<svg width="181" height="141" viewBox="0 0 181 141" fill="none" xmlns="http://www.w3.org/2000/svg">
<path d="M149.494 108.333L60.6563 77.7954L57.8801 85.4299L146.718 115.274L164.989 137.808C165.647 138.619 167.009 137.999 166.849 136.968C166.117 132.263 165.19 124.527 166.152 120.132C167.388 114.482 174.064 106.852 177.938 102.802C178.656 102.052 177.907 100.757 176.904 101.024L149.494 108.333Z" stroke="#2D3A53" stroke-width="2" stroke-linecap="round"/>
<path d="M22.4837 68.7727C12.5443 91.4913 55.798 116.662 55.798 116.662C55.798 116.662 54.0075 94.3576 58.5742 81.2656C62.9565 68.702 77.3135 52.8095 77.3135 52.8095C77.3135 52.8095 32.2003 46.5632 22.4837 68.7727Z" stroke="#2D3A53" stroke-width="2" stroke-linecap="round"/>
<circle cx="44.6932" cy="65.3025" r="4.74644" stroke="#2D3A53" stroke-width="3"/>
<path d="M90.369 55.2981C90.369 55.2981 84.2539 59.7501 79.3956 66.6906C74.5373 73.6311 72.3237 80.2839 72.3237 80.2839" stroke="#2D3A53" stroke-width="3" stroke-linecap="round"/>
<path d="M104.379 67.3204C104.379 67.3204 99.1828 70.4058 95.39 75.7594C91.5972 81.1129 90.2133 86.5287 90.2133 86.5287" stroke="#2D3A53" stroke-width="3" stroke-linecap="round"/>
<path d="M120.344 77.1013C120.344 77.1013 114.652 78.7945 111.561 83.4023C108.471 88.0101 108.533 93.4556 108.533 93.4556" stroke="#2D3A53" stroke-width="3" stroke-linecap="round"/>
<path d="M134.868 88.4525C134.868 88.4525 130.882 88.9458 128.156 91.6484C125.429 94.3509 124.638 97.952 124.638 97.952" stroke="#2D3A53" stroke-width="3" stroke-linecap="round"/>
<path d="M154.389 95.6085C154.389 95.6085 150.282 95.5402 147.06 97.8609C143.838 100.182 142.412 103.675 142.412 103.675" stroke="#2D3A53" stroke-width="3" stroke-linecap="round"/>
<path d="M68.4392 90.9823C68.4392 90.9823 66.0885 98.1717 66.2135 106.643C66.3385 115.114 68.4392 121.803 68.4392 121.803" stroke="#2D3A53" stroke-width="3" stroke-linecap="round"/>
<path d="M85.642 96.5347C85.642 96.5347 84.1791 102.363 84.2569 109.23C84.3347 116.098 85.642 121.52 85.642 121.52" stroke="#2D3A53" stroke-width="3" stroke-linecap="round"/>
<path d="M103.958 101.998C103.958 101.998 101.592 107.378 102.387 113.332C103.181 119.287 106.286 123.724 106.286 123.724" stroke="#2D3A53" stroke-width="3" stroke-linecap="round"/>
<path d="M121.643 107.515C121.643 107.515 119.526 111.971 120.569 116.537C121.613 121.102 124.883 124.233 124.883 124.233" stroke="#2D3A53" stroke-width="3" stroke-linecap="round"/>
<path d="M139.828 113.718C139.828 113.718 137.685 117.413 138.669 120.949C139.653 124.484 142.857 126.71 142.857 126.71" stroke="#2D3A53" stroke-width="3" stroke-linecap="round"/>
<path d="M21 0C16.8466 0 12.7865 1.23163 9.33303 3.53914C5.8796 5.84665 3.18798 9.1264 1.59854 12.9636C0.00909897 16.8009 -0.406771 21.0233 0.403518 25.0969C1.21381 29.1705 3.21386 32.9123 6.15077 35.8492C9.08767 38.7861 12.8295 40.7862 16.9031 41.5965C20.9767 42.4068 25.1991 41.9909 29.0364 40.4015C32.8736 38.812 36.1534 36.1204 38.4609 32.667C40.7684 29.2135 42 25.1534 42 21C41.9941 15.4323 39.7797 10.0942 35.8427 6.15725C31.9058 2.22026 26.5677 0.00587963 21 0ZM21 33.9231C20.5208 33.9231 20.0523 33.781 19.6538 33.5147C19.2553 33.2485 18.9448 32.87 18.7614 32.4273C18.578 31.9845 18.53 31.4973 18.6235 31.0273C18.717 30.5572 18.9478 30.1255 19.2866 29.7866C19.6255 29.4477 20.0573 29.217 20.5273 29.1235C20.9973 29.03 21.4845 29.078 21.9273 29.2614C22.37 29.4448 22.7485 29.7553 23.0147 30.1538C23.281 30.5523 23.4231 31.0208 23.4231 31.5C23.4231 32.1426 23.1678 32.7589 22.7134 33.2134C22.259 33.6678 21.6426 33.9231 21 33.9231ZM22.6154 24.0854V24.2308C22.6154 24.6592 22.4452 25.0701 22.1423 25.373C21.8393 25.676 21.4284 25.8461 21 25.8461C20.5716 25.8461 20.1607 25.676 19.8578 25.373C19.5548 25.0701 19.3846 24.6592 19.3846 24.2308V22.6154C19.3846 22.187 19.5548 21.7761 19.8578 21.4731C20.1607 21.1702 20.5716 21 21 21C23.6714 21 25.8462 19.1827 25.8462 16.9615C25.8462 14.7404 23.6714 12.9231 21 12.9231C18.3286 12.9231 16.1539 14.7404 16.1539 16.9615V17.7692C16.1539 18.1977 15.9837 18.6085 15.6807 18.9115C15.3778 19.2144 14.9669 19.3846 14.5385 19.3846C14.11 19.3846 13.6992 19.2144 13.3962 18.9115C13.0933 18.6085 12.9231 18.1977 12.9231 17.7692V16.9615C12.9231 12.9534 16.5456 9.69231 21 9.69231C25.4544 9.69231 29.0769 12.9534 29.0769 16.9615C29.0769 20.471 26.2985 23.4089 22.6154 24.0854Z" fill="#2D3A53"/>
</svg>
