<svg width="267" height="199" viewBox="0 0 267 199" fill="none" xmlns="http://www.w3.org/2000/svg">
<g filter="url(#filter0_i_309_7054)">
<path d="M157.644 130.258L141.901 123.266C141.901 123.266 139.686 125.739 138.23 127.29C136.283 129.363 135.947 129.915 133.539 131.428C131.279 132.849 128.158 132.543 126.698 134.778C125.165 137.123 125.994 139.545 127.501 141.906C128.798 143.938 129.654 144.643 131.582 146.087C133.621 147.614 134.737 148.07 137.076 149.078C138.819 149.829 140.57 150.826 142.455 151.05C146.037 151.474 147.851 151.225 151.054 149.565C155.105 147.465 156.098 144.531 157.207 140.105C158.136 136.396 157.644 130.258 157.644 130.258Z" fill="#D6374A"/>
</g>
<g filter="url(#filter1_i_309_7054)">
<path d="M173.501 138.268C172.602 136.041 172.793 131.984 172.793 131.984L191.147 129.915L201.097 126.907C201.097 126.907 201.454 129.071 201.499 130.471C201.564 132.511 201.251 133.647 201.055 135.678C200.877 137.514 200.833 138.281 200.044 140.433C199.255 142.584 198.351 143.718 196.996 145.417L196.996 145.417C195.641 147.117 194.127 148.198 193.719 148.365C193.31 148.533 190.678 148.837 190.154 148.767C189.631 148.697 185.966 148.208 183.814 147.419C181.663 146.63 180.303 145.546 178.263 143.92L178.263 143.919C176.223 142.293 174.477 140.688 173.501 138.268Z" fill="#EC5671"/>
</g>
<g filter="url(#filter2_i_309_7054)">
<path d="M164.204 57.2472C181.251 50.8843 201.329 60.0189 203.365 59.7893C205.677 59.5287 196.974 38.853 189.235 29.2368C181.427 19.5362 166.85 9.0709 164.305 9.35789C161.759 9.64489 155.341 30.4792 147.373 37.5653C139.406 44.6514 136.466 46.0141 129 48.4027C120.696 51.0593 113.055 58.4507 113.632 63.0267C114.382 68.983 119.699 71.109 122.532 73.3679C126.498 76.5305 128.609 79.731 129.24 85.3321C129.355 86.3505 146.389 63.8964 164.204 57.2472Z" fill="#EC5672"/>
</g>
<g filter="url(#filter3_i_309_7054)">
<path d="M221.221 113.294C225.554 108.09 227.631 104.511 229.288 97.9458L229.321 97.816C230.109 94.6944 230.582 92.8198 230.406 89.5691C230.232 86.3471 229.769 84.4903 228.47 81.5368C227.1 78.4231 225.748 76.9419 223.535 74.3582C221.375 71.8359 219.89 70.6066 217.386 68.5342L217.188 68.3701C214.679 66.2926 213.188 65.2171 210.446 63.4577C207.549 61.5983 205.876 60.5983 202.743 59.1694C198.916 57.4234 196.656 56.6054 192.552 55.6773C187.958 54.6382 185.264 54.4098 180.554 54.4515C176.151 54.4905 173.65 54.7616 169.352 55.7143C163.713 56.9642 160.655 58.2899 155.496 60.8858C150.3 63.5004 147.501 65.3087 143.003 68.9977C136.54 74.2989 134.94 79.335 128.825 85.0345C125.659 87.9861 124.284 90.3743 120.349 92.178C117.814 93.3398 116.183 93.5802 113.457 93.982L113.335 93.9999C108.939 94.6481 101.96 93.7352 101.96 93.7352L108.71 103.288C108.71 103.288 107.484 115.286 108.56 115.68C109.635 116.075 117.793 109.972 119.188 109.326C120.658 108.644 123.255 108.96 124.904 109.713C127.622 110.953 128.815 112.763 130.003 113.779C131.068 114.69 138.059 122.772 146.943 126.823C152.658 129.429 156.202 130.248 162.399 131.269C168.794 132.323 172.514 132.427 178.98 131.978C185.181 131.548 188.702 130.987 194.65 129.181C198.412 128.038 200.498 127.254 204.038 125.544C211.458 121.959 215.947 119.627 221.221 113.294Z" fill="#BC1E2D"/>
</g>
<g filter="url(#filter4_i_309_7054)">
<path d="M108.395 118.793C108.885 117.072 110.068 114.911 109.527 113.744C108.987 112.577 110.215 107.218 108.699 103.198C106.856 98.3109 103.104 94.6866 102.805 94.0413C102.805 94.0413 98.8707 91.734 96.9759 90.6876C95.2242 89.7201 94.345 88.9922 92.5579 88.0916C89.3613 86.4806 87.4032 85.8858 83.9517 84.9365C80.7173 84.0469 78.8635 83.5484 75.5176 83.3089C71.9193 83.0513 69.8476 83.2071 66.2947 83.8329L66.2139 83.8471C62.8608 84.4377 60.8683 84.7886 57.8106 86.3363C54.6874 87.9172 52.8777 89.0478 50.6894 91.78C48.8852 94.0326 48.4599 95.7048 47.3046 98.3495C44.7164 104.275 44.2675 107.991 42.9163 114.314C42.3475 116.976 41.7739 119.428 41.6257 121.163C41.4776 122.899 41.9982 125.057 41.2961 127.388C40.476 130.112 38.3 132.367 37.3448 133.506C36.7485 134.217 35.0002 136.233 33.1639 137.587C30.7697 139.353 27.0404 140.668 26.3222 140.936C25.604 141.205 17.8464 143.955 16.4253 144.63C15.2682 145.181 13.7505 146.077 13.5507 147.017C12.8767 150.187 18.8407 150.77 19.5647 150.93C21.2533 151.305 24.3999 152.211 27.5387 152.61C29.7581 152.892 31.1214 152.991 33.3583 153.035C36.7654 153.102 41.3989 151.613 41.9654 152.065C41.9654 152.065 42.9206 152.473 43.2625 153.981C43.6045 155.489 45.3371 163.235 45.4289 164.05C45.4289 164.05 44.5244 169.309 46.4047 172.706C48.285 176.104 50.7843 178.53 51.791 179.318C52.7977 180.107 54.337 181.207 56.2089 181.914C58.3114 182.709 59.4446 183.612 59.7733 181.513C60.0397 179.811 59.9666 176.314 60.0538 175.293C60.276 172.69 60.1982 171.157 60.326 168.559C60.5066 164.884 60.4461 161.326 60.9268 159.725C61.5095 157.784 62.5781 153.529 64.4273 150.048C65.8229 147.421 66.8679 146.057 68.8878 143.873C70.4851 142.146 72.7118 141.033 75.4999 138.487C77.3923 136.759 79.6234 133.897 80.6336 133.267C81.494 132.731 83.7511 131.703 85.2163 132.751C86.8443 133.914 85.4842 135.127 85.7903 137.842L86.8235 147.008C86.9153 147.823 85.2459 151.311 85.2459 151.311C85.2459 151.311 80.3006 158.675 79.9391 159.129C79.9391 159.129 77.2691 164.414 76.16 166.774C75.0509 169.133 78.4788 172.123 78.7208 175.767C78.9106 178.626 78.6799 180.285 77.9968 183.068C77.4634 185.241 75.5004 186.272 76.0248 188.447C76.3395 189.752 76.661 190.806 77.8968 191.33C79.416 191.974 80.3413 190.508 81.8555 189.852C89.9539 186.345 93.7197 182.33 99.3181 175.508C104.601 169.07 107.423 164.86 109.587 156.818C111.076 151.284 110.932 147.945 111.035 142.216C111.2 133.012 105.873 127.646 108.395 118.793Z" fill="#E95774"/>
</g>
<g filter="url(#filter5_i_309_7054)">
<path d="M225.474 119.002C219.693 113.466 207.343 104.545 206.267 104.151C205.191 103.756 203.327 105.513 202.875 106.08C202.126 107.019 202.595 108.174 203.219 109.135C203.786 110.008 204.648 112.402 205.378 114.564C206.22 117.058 206.82 118.457 207.143 121.069C207.49 123.877 207.019 126.067 206.928 128.312C206.837 130.557 207.42 133.254 206.204 135.613C204.988 137.973 204.002 138.955 203.156 140.598L203.156 140.598C202.31 142.24 201.464 143.882 201.751 146.428C201.866 147.447 203.114 149.369 204.189 149.763C205.265 150.158 207.323 150.761 209.511 151.226C212.279 151.814 213.94 151.735 216.754 151.441C220.386 151.061 224.336 150.078 225.805 149.389C227.142 148.763 230.807 147.163 232.475 144.512C233.622 142.688 233.666 141.329 233.937 139.19C234.137 137.621 233.933 132.781 232.904 130.025C232.165 128.046 231.254 124.539 225.474 119.002Z" fill="#D6374A"/>
</g>
<g filter="url(#filter6_f_309_7054)">
<path d="M190.303 63.1499C190.303 63.1499 186.598 65.6302 186.861 69.2102C187.077 72.1574 191.68 75.3705 191.68 75.3705" stroke="#E36A78" stroke-linecap="round"/>
</g>
<g filter="url(#filter7_f_309_7054)">
<path d="M198.15 87.0171C198.15 87.0171 194.445 89.4974 194.708 93.0774C194.924 96.0246 199.528 99.2377 199.528 99.2377" stroke="#E36A78" stroke-linecap="round"/>
</g>
<g filter="url(#filter8_f_309_7054)">
<path d="M187.163 81.0366C187.163 81.0366 183.458 83.5169 183.72 87.0969C183.937 90.0442 188.54 93.2573 188.54 93.2573" stroke="#E36A78" stroke-linecap="round"/>
</g>
<g filter="url(#filter9_f_309_7054)">
<path d="M176.375 58.532C176.375 58.532 172.67 61.0123 172.933 64.5923C173.149 67.5395 177.753 70.7526 177.753 70.7526" stroke="#E36A78" stroke-linecap="round"/>
</g>
<g filter="url(#filter10_f_309_7054)">
<path d="M165.862 65.9053C165.862 65.9053 162.157 68.3856 162.42 71.9656C162.636 74.9128 167.239 78.1259 167.239 78.1259" stroke="#E36A78" stroke-linecap="round"/>
</g>
<g filter="url(#filter11_f_309_7054)">
<path d="M151.045 71.7007C151.045 71.7007 147.34 74.181 147.603 77.761C147.819 80.7082 152.423 83.9213 152.423 83.9213" stroke="#E36A78" stroke-linecap="round"/>
</g>
<g filter="url(#filter12_f_309_7054)">
<path d="M138.739 90.6204C138.739 90.6204 135.034 93.1007 135.297 96.6807C135.513 99.6279 140.117 102.841 140.117 102.841" stroke="#E36A78" stroke-linecap="round"/>
</g>
<g filter="url(#filter13_f_309_7054)">
<path d="M128.725 93.2962C128.725 93.2962 125.984 95.1522 126.247 98.7323C126.463 101.679 130.383 103.423 130.383 103.423" stroke="#E36A78" stroke-linecap="round"/>
</g>
<g filter="url(#filter14_f_309_7054)">
<path d="M141.32 76.9221C141.32 76.9221 137.616 79.4024 137.878 82.9824C138.095 85.9296 142.698 89.1428 142.698 89.1428" stroke="#E36A78" stroke-linecap="round"/>
</g>
<g filter="url(#filter15_f_309_7054)">
<path d="M118.771 96.4809C118.771 96.4809 116.376 96.9081 116.627 100.332C116.843 103.279 119.517 103.1 119.517 103.1" stroke="#E36A78" stroke-linecap="round"/>
</g>
<g filter="url(#filter16_f_309_7054)">
<path d="M160.225 79.9478C160.225 79.9478 156.52 82.4281 156.783 86.0081C157 88.9553 161.603 92.1684 161.603 92.1684" stroke="#E36A78" stroke-linecap="round"/>
</g>
<g filter="url(#filter17_f_309_7054)">
<path d="M160.599 101.563C160.599 101.563 156.894 104.044 157.157 107.624C157.374 110.571 161.977 113.784 161.977 113.784" stroke="#E36A78" stroke-linecap="round"/>
</g>
<g filter="url(#filter18_f_309_7054)">
<path d="M147.346 93.7757C147.346 93.7757 143.641 96.2559 143.903 99.836C144.12 102.783 148.723 105.996 148.723 105.996" stroke="#E36A78" stroke-linecap="round"/>
</g>
<g filter="url(#filter19_f_309_7054)">
<path d="M152.582 112.78C152.582 112.78 148.877 115.261 149.14 118.841C149.356 121.788 153.959 125.001 153.959 125.001" stroke="#E36A78" stroke-linecap="round"/>
</g>
<g filter="url(#filter20_f_309_7054)">
<path d="M143.976 109.625C143.976 109.625 140.271 112.106 140.534 115.686C140.75 118.633 145.353 121.846 145.353 121.846" stroke="#E36A78" stroke-linecap="round"/>
</g>
<g filter="url(#filter21_f_309_7054)">
<path d="M173.35 77.437C173.35 77.437 169.645 79.9173 169.907 83.4973C170.124 86.4445 174.727 89.6576 174.727 89.6576" stroke="#E36A78" stroke-linecap="round"/>
</g>
<g filter="url(#filter22_f_309_7054)">
<path d="M169.076 94.4199C169.076 94.4199 165.371 96.9002 165.634 100.48C165.85 103.427 170.454 106.641 170.454 106.641" stroke="#E36A78" stroke-linecap="round"/>
</g>
<g filter="url(#filter23_f_309_7054)">
<path d="M173.524 115.576C173.524 115.576 169.819 118.057 170.081 121.637C170.298 124.584 174.901 127.797 174.901 127.797" stroke="#E36A78" stroke-linecap="round"/>
</g>
<g filter="url(#filter24_f_309_7054)">
<path d="M180.852 98.249C180.852 98.249 177.147 100.729 177.41 104.309C177.626 107.257 182.23 110.47 182.23 110.47" stroke="#E36A78" stroke-linecap="round"/>
</g>
<g filter="url(#filter25_f_309_7054)">
<path d="M193.647 101.963C193.647 101.963 189.942 104.444 190.205 108.024C190.421 110.971 195.024 114.184 195.024 114.184" stroke="#E36A78" stroke-linecap="round"/>
</g>
<g filter="url(#filter26_f_309_7054)">
<path d="M186.596 117.197C186.596 117.197 184.398 119.507 184.624 122.576C184.84 125.523 188.195 126.814 188.195 126.814" stroke="#E36A78" stroke-linecap="round"/>
</g>
<g filter="url(#filter27_f_309_7054)">
<path d="M154.324 129.973C154.78 134.014 154.603 136.08 152.902 139.136" stroke="#B21A2B" stroke-linecap="round"/>
</g>
<g filter="url(#filter28_f_309_7054)">
<path d="M150.101 128.812C149.123 134.652 147.689 136.45 144.103 140.947" stroke="#B21A2B" stroke-linecap="round"/>
</g>
<g filter="url(#filter29_f_309_7054)">
<path d="M145.337 126.485C143.056 131.653 141.53 132.643 137.763 135.523" stroke="#B21A2B" stroke-linecap="round"/>
</g>
<g filter="url(#filter30_f_309_7054)">
<path d="M95.1274 94.9065C95.1274 94.9065 76.9686 86.9758 65.9764 90.4175C53.7233 94.254 49.8485 114.333 49.8485 114.333C49.8485 114.333 48.8876 131.219 44.1415 139.938C41.3416 145.082 29.959 144.811 29.959 144.811" stroke="#C32E42" stroke-opacity="0.3" stroke-linecap="round"/>
</g>
<g filter="url(#filter31_f_309_7054)">
<path d="M97.114 101.639C97.114 101.639 89.0617 97.5484 83.4547 96.6316C77.7932 95.7059 74.0466 94.8054 68.7712 97.0592C64.5589 98.8587 62.3435 100.807 59.8021 104.618C57.0369 108.764 57.361 112.019 56.2741 116.883C54.7035 123.911 56.583 128.506 53.8335 135.163C51.6833 140.369 45.7695 147.121 45.7695 147.121" stroke="#C32E42" stroke-opacity="0.3" stroke-linecap="round"/>
</g>
<g filter="url(#filter32_f_309_7054)">
<path d="M87.3706 102.328C87.3706 102.328 79.767 103.051 76.3297 106.028C71.6007 110.124 74.4813 115.802 71.5042 121.304C68.7255 126.439 62.1825 132.994 62.1825 132.994C62.1825 132.994 58.0084 136.844 55.9964 139.83C50.9161 147.368 50.7786 162.515 50.7786 162.515" stroke="#C32E42" stroke-opacity="0.3" stroke-linecap="round"/>
</g>
<g filter="url(#filter33_f_309_7054)">
<path d="M94.1091 104.024C94.1091 104.024 86.4976 106.01 83.7001 109.699C81.8544 112.133 80.8377 116.978 80.8377 116.978" stroke="#C32E42" stroke-opacity="0.3" stroke-linecap="round"/>
</g>
<g filter="url(#filter34_f_309_7054)">
<path d="M104.639 117.569C104.639 117.569 109.307 144.46 101.516 158.842C96.2189 168.621 84.3979 181.232 84.3979 181.232" stroke="#C32E42" stroke-opacity="0.3" stroke-linecap="round"/>
</g>
<g filter="url(#filter35_f_309_7054)">
<path d="M101.981 112.14C101.981 112.14 99.9553 114.908 99.249 116.949C97.8429 121.012 99.6776 123.651 99.6707 127.95C99.6592 135.052 99.9178 139.147 98.4423 146.094C96.4328 155.554 94.1657 160.875 88.7341 168.877" stroke="#C32E42" stroke-opacity="0.3" stroke-linecap="round"/>
</g>
<g filter="url(#filter36_f_309_7054)">
<path d="M97.7517 107.296C97.7517 107.296 94.4153 110.029 92.9998 112.333C89.0852 118.706 94.0924 123.985 93.9284 131.462C93.8293 135.977 93.1834 143.004 93.1834 143.004C93.1834 143.004 93.9605 149.025 92.6148 152.48C91.3104 155.828 86.8783 159.674 86.8783 159.674" stroke="#C32E42" stroke-opacity="0.3" stroke-linecap="round"/>
</g>
<g filter="url(#filter37_f_309_7054)">
<path d="M162.93 35.7024C167.7 41.7121 169.681 44.7626 172.834 50.9545" stroke="#C32E42" stroke-opacity="0.5" stroke-linecap="round"/>
</g>
<g filter="url(#filter38_f_309_7054)">
<path d="M167.768 27.7915C176.043 35.8613 178.519 39.6744 182.89 49.4119" stroke="#C32E42" stroke-opacity="0.5" stroke-linecap="round"/>
</g>
<g filter="url(#filter39_f_309_7054)">
<path d="M134.538 56.0901C139.171 60.8876 140.206 62.8169 142.011 67.9333" stroke="#C32E42" stroke-opacity="0.5" stroke-linecap="round"/>
</g>
<g filter="url(#filter40_f_309_7054)">
<path d="M126.553 61.4915C131.636 66.6475 132.717 68.9809 135.421 74.8143" stroke="#C32E42" stroke-opacity="0.5" stroke-linecap="round"/>
</g>
<g filter="url(#filter41_f_309_7054)">
<path d="M171.438 20.4209C184.836 30.3686 187.722 37.8183 192.549 51.5967" stroke="#C32E42" stroke-opacity="0.5" stroke-linecap="round"/>
</g>
<g filter="url(#filter42_f_309_7054)">
<path d="M148.669 47.1313C152.806 51.1663 154.337 53.8582 156.5 58.5249" stroke="#C32E42" stroke-opacity="0.5" stroke-linecap="round"/>
</g>
<g filter="url(#filter43_f_309_7054)">
<path d="M155.487 42.2705C160.569 47.4266 162.055 49.7144 164.758 55.5478" stroke="#C32E42" stroke-opacity="0.5" stroke-linecap="round"/>
</g>
<g filter="url(#filter44_f_309_7054)">
<path d="M142.568 51.0928C146.393 55.9814 147.428 57.9107 149.637 62.9815" stroke="#C32E42" stroke-opacity="0.5" stroke-linecap="round"/>
</g>
<g filter="url(#filter45_f_309_7054)">
<path d="M213.348 112.68C223.057 118.951 226.341 122.673 228.738 133.043" stroke="#B21A2B" stroke-opacity="0.25" stroke-linecap="round"/>
</g>
<g filter="url(#filter46_f_309_7054)">
<path d="M212.141 116.499C220.73 123.715 220.377 127.847 222.187 136.646" stroke="#B21A2B" stroke-opacity="0.25" stroke-linecap="round"/>
</g>
<g filter="url(#filter47_f_309_7054)">
<path d="M211.345 123.955C213.24 129.879 213.787 134.728 213.212 140.522" stroke="#B21A2B" stroke-opacity="0.25" stroke-linecap="round"/>
</g>
<path d="M198.779 128.645C199.189 132.282 198.608 134.393 196.053 137.137" stroke="#B21A2B" stroke-opacity="0.25" stroke-linecap="round"/>
<path d="M193.258 130.495C192.815 133.819 192.189 135.526 189.588 137.865" stroke="#B21A2B" stroke-opacity="0.25" stroke-linecap="round"/>
<path d="M185.222 131.81C184.192 133.563 184.192 133.563 181.813 134.24" stroke="#B21A2B" stroke-opacity="0.25" stroke-linecap="round"/>
<path d="M239.99 54.9378C239.55 54.5578 239.33 54.1278 239.33 53.6478C239.33 53.0878 239.58 52.4978 240.08 51.8778C240.58 51.2578 241.21 50.6378 241.97 50.0178C242.73 49.3978 243.51 48.8178 244.31 48.2778C245.13 47.7378 245.87 47.2678 246.53 46.8678C247.19 46.4678 247.66 46.1778 247.94 45.9978C249.16 45.2378 250.04 44.4478 250.58 43.6278C251.12 42.7878 251.39 41.9978 251.39 41.2578C251.39 40.2778 250.98 39.4678 250.16 38.8278C249.36 38.1678 248.28 37.8378 246.92 37.8378C245.68 37.8378 244.6 38.0678 243.68 38.5278C242.78 38.9878 242.03 39.5578 241.43 40.2378C240.85 40.9178 240.42 41.5878 240.14 42.2478C239.94 42.7278 239.84 43.1278 239.84 43.4478C239.84 43.8078 239.95 44.0578 240.17 44.1978C240.39 44.3378 240.67 44.4078 241.01 44.4078C241.43 44.4078 241.89 44.3378 242.39 44.1978C242.89 44.0378 243.33 43.8778 243.71 43.7178C244.11 43.5378 244.35 43.4278 244.43 43.3878L244.46 43.3878C244.5 43.3878 244.53 43.4278 244.55 43.5078C244.57 43.5878 244.55 43.6478 244.49 43.6878C244.31 43.8478 243.99 44.0378 243.53 44.2578C243.09 44.4578 242.59 44.6378 242.03 44.7978C241.49 44.9378 240.97 45.0078 240.47 45.0078C239.97 45.0078 239.56 44.9078 239.24 44.7078C238.92 44.5078 238.76 44.1678 238.76 43.6878C238.76 43.2678 238.87 42.7978 239.09 42.2778C239.39 41.5778 239.92 40.8678 240.68 40.1478C241.44 39.4078 242.36 38.7878 243.44 38.2878C244.52 37.7878 245.68 37.5378 246.92 37.5378C247.94 37.5378 248.82 37.7378 249.56 38.1378C250.32 38.5178 250.9 39.0378 251.3 39.6978C251.72 40.3378 251.93 41.0478 251.93 41.8278C251.93 42.6878 251.65 43.5778 251.09 44.4978C250.53 45.4178 249.64 46.2678 248.42 47.0478C248.2 47.1878 247.77 47.4278 247.13 47.7678C246.49 48.1078 245.76 48.5078 244.94 48.9678C244.12 49.4278 243.32 49.9278 242.54 50.4678C241.78 50.9878 241.14 51.5178 240.62 52.0578C240.12 52.5978 239.87 53.1078 239.87 53.5878C239.87 53.9678 240.04 54.2978 240.38 54.5778C240.4 54.5978 240.41 54.6178 240.41 54.6378C240.41 54.7178 240.35 54.7978 240.23 54.8778C240.13 54.9578 240.05 54.9778 239.99 54.9378ZM238.58 59.7078C238.44 59.7678 238.28 59.6878 238.1 59.4678C237.94 59.2478 237.86 59.0278 237.86 58.8078C237.86 58.6078 237.94 58.4378 238.1 58.2978C238.26 58.1578 238.36 58.0778 238.4 58.0578C238.48 57.9578 238.66 57.8278 238.94 57.6678C239.24 57.4878 239.52 57.3378 239.78 57.2178C240.06 57.0978 240.21 57.0778 240.23 57.1578C240.27 57.2378 240.24 57.3078 240.14 57.3678C240.06 57.4078 239.95 57.5278 239.81 57.7278C239.67 57.9078 239.53 58.2478 239.39 58.7478C239.33 58.9278 239.25 59.1078 239.15 59.2878C239.05 59.4478 238.86 59.5878 238.58 59.7078Z" fill="black"/>
<defs>
<filter id="filter0_i_309_7054" x="125.881" y="116.266" width="31.8929" height="34.9653" filterUnits="userSpaceOnUse" color-interpolation-filters="sRGB">
<feFlood flood-opacity="0" result="BackgroundImageFix"/>
<feBlend mode="normal" in="SourceGraphic" in2="BackgroundImageFix" result="shape"/>
<feColorMatrix in="SourceAlpha" type="matrix" values="0 0 0 0 0 0 0 0 0 0 0 0 0 0 0 0 0 0 127 0" result="hardAlpha"/>
<feOffset dy="-7"/>
<feGaussianBlur stdDeviation="4"/>
<feComposite in2="hardAlpha" operator="arithmetic" k2="-1" k3="1"/>
<feColorMatrix type="matrix" values="0 0 0 0 0.495 0 0 0 0 0.181087 0 0 0 0 0.181087 0 0 0 0.47 0"/>
<feBlend mode="normal" in2="shape" result="effect1_innerShadow_309_7054"/>
</filter>
<filter id="filter1_i_309_7054" x="172.776" y="119.907" width="28.7322" height="28.8704" filterUnits="userSpaceOnUse" color-interpolation-filters="sRGB">
<feFlood flood-opacity="0" result="BackgroundImageFix"/>
<feBlend mode="normal" in="SourceGraphic" in2="BackgroundImageFix" result="shape"/>
<feColorMatrix in="SourceAlpha" type="matrix" values="0 0 0 0 0 0 0 0 0 0 0 0 0 0 0 0 0 0 127 0" result="hardAlpha"/>
<feOffset dy="-7"/>
<feGaussianBlur stdDeviation="4"/>
<feComposite in2="hardAlpha" operator="arithmetic" k2="-1" k3="1"/>
<feColorMatrix type="matrix" values="0 0 0 0 0.495 0 0 0 0 0.181087 0 0 0 0 0.181087 0 0 0 0.47 0"/>
<feBlend mode="normal" in2="shape" result="effect1_innerShadow_309_7054"/>
</filter>
<filter id="filter2_i_309_7054" x="113.601" y="2.35205" width="90.1435" height="83.0137" filterUnits="userSpaceOnUse" color-interpolation-filters="sRGB">
<feFlood flood-opacity="0" result="BackgroundImageFix"/>
<feBlend mode="normal" in="SourceGraphic" in2="BackgroundImageFix" result="shape"/>
<feColorMatrix in="SourceAlpha" type="matrix" values="0 0 0 0 0 0 0 0 0 0 0 0 0 0 0 0 0 0 127 0" result="hardAlpha"/>
<feOffset dy="-7"/>
<feGaussianBlur stdDeviation="4"/>
<feComposite in2="hardAlpha" operator="arithmetic" k2="-1" k3="1"/>
<feColorMatrix type="matrix" values="0 0 0 0 0.495 0 0 0 0 0.181087 0 0 0 0 0.181087 0 0 0 0.47 0"/>
<feBlend mode="normal" in2="shape" result="effect1_innerShadow_309_7054"/>
</filter>
<filter id="filter3_i_309_7054" x="101.96" y="47.447" width="128.483" height="84.7822" filterUnits="userSpaceOnUse" color-interpolation-filters="sRGB">
<feFlood flood-opacity="0" result="BackgroundImageFix"/>
<feBlend mode="normal" in="SourceGraphic" in2="BackgroundImageFix" result="shape"/>
<feColorMatrix in="SourceAlpha" type="matrix" values="0 0 0 0 0 0 0 0 0 0 0 0 0 0 0 0 0 0 127 0" result="hardAlpha"/>
<feOffset dy="-7"/>
<feGaussianBlur stdDeviation="4"/>
<feComposite in2="hardAlpha" operator="arithmetic" k2="-1" k3="1"/>
<feColorMatrix type="matrix" values="0 0 0 0 0.495 0 0 0 0 0.181087 0 0 0 0 0.181087 0 0 0 0.47 0"/>
<feBlend mode="normal" in2="shape" result="effect1_innerShadow_309_7054"/>
</filter>
<filter id="filter4_i_309_7054" x="13.4977" y="76.1902" width="97.5412" height="115.3" filterUnits="userSpaceOnUse" color-interpolation-filters="sRGB">
<feFlood flood-opacity="0" result="BackgroundImageFix"/>
<feBlend mode="normal" in="SourceGraphic" in2="BackgroundImageFix" result="shape"/>
<feColorMatrix in="SourceAlpha" type="matrix" values="0 0 0 0 0 0 0 0 0 0 0 0 0 0 0 0 0 0 127 0" result="hardAlpha"/>
<feOffset dy="-7"/>
<feGaussianBlur stdDeviation="4"/>
<feComposite in2="hardAlpha" operator="arithmetic" k2="-1" k3="1"/>
<feColorMatrix type="matrix" values="0 0 0 0 0.495 0 0 0 0 0.181087 0 0 0 0 0.181087 0 0 0 0.47 0"/>
<feBlend mode="normal" in2="shape" result="effect1_innerShadow_309_7054"/>
</filter>
<filter id="filter5_i_309_7054" x="201.694" y="97.0935" width="32.3121" height="54.573" filterUnits="userSpaceOnUse" color-interpolation-filters="sRGB">
<feFlood flood-opacity="0" result="BackgroundImageFix"/>
<feBlend mode="normal" in="SourceGraphic" in2="BackgroundImageFix" result="shape"/>
<feColorMatrix in="SourceAlpha" type="matrix" values="0 0 0 0 0 0 0 0 0 0 0 0 0 0 0 0 0 0 127 0" result="hardAlpha"/>
<feOffset dy="-7"/>
<feGaussianBlur stdDeviation="4"/>
<feComposite in2="hardAlpha" operator="arithmetic" k2="-1" k3="1"/>
<feColorMatrix type="matrix" values="0 0 0 0 0.495 0 0 0 0 0.181087 0 0 0 0 0.181087 0 0 0 0.47 0"/>
<feBlend mode="normal" in2="shape" result="effect1_innerShadow_309_7054"/>
</filter>
<filter id="filter6_f_309_7054" x="185.347" y="61.6499" width="7.8331" height="15.2207" filterUnits="userSpaceOnUse" color-interpolation-filters="sRGB">
<feFlood flood-opacity="0" result="BackgroundImageFix"/>
<feBlend mode="normal" in="SourceGraphic" in2="BackgroundImageFix" result="shape"/>
<feGaussianBlur stdDeviation="0.5" result="effect1_foregroundBlur_309_7054"/>
</filter>
<filter id="filter7_f_309_7054" x="193.194" y="85.5171" width="7.8331" height="15.2207" filterUnits="userSpaceOnUse" color-interpolation-filters="sRGB">
<feFlood flood-opacity="0" result="BackgroundImageFix"/>
<feBlend mode="normal" in="SourceGraphic" in2="BackgroundImageFix" result="shape"/>
<feGaussianBlur stdDeviation="0.5" result="effect1_foregroundBlur_309_7054"/>
</filter>
<filter id="filter8_f_309_7054" x="182.207" y="79.5366" width="7.8331" height="15.2207" filterUnits="userSpaceOnUse" color-interpolation-filters="sRGB">
<feFlood flood-opacity="0" result="BackgroundImageFix"/>
<feBlend mode="normal" in="SourceGraphic" in2="BackgroundImageFix" result="shape"/>
<feGaussianBlur stdDeviation="0.5" result="effect1_foregroundBlur_309_7054"/>
</filter>
<filter id="filter9_f_309_7054" x="171.42" y="57.032" width="7.8331" height="15.2207" filterUnits="userSpaceOnUse" color-interpolation-filters="sRGB">
<feFlood flood-opacity="0" result="BackgroundImageFix"/>
<feBlend mode="normal" in="SourceGraphic" in2="BackgroundImageFix" result="shape"/>
<feGaussianBlur stdDeviation="0.5" result="effect1_foregroundBlur_309_7054"/>
</filter>
<filter id="filter10_f_309_7054" x="160.906" y="64.4053" width="7.8331" height="15.2207" filterUnits="userSpaceOnUse" color-interpolation-filters="sRGB">
<feFlood flood-opacity="0" result="BackgroundImageFix"/>
<feBlend mode="normal" in="SourceGraphic" in2="BackgroundImageFix" result="shape"/>
<feGaussianBlur stdDeviation="0.5" result="effect1_foregroundBlur_309_7054"/>
</filter>
<filter id="filter11_f_309_7054" x="146.09" y="70.2007" width="7.83313" height="15.2207" filterUnits="userSpaceOnUse" color-interpolation-filters="sRGB">
<feFlood flood-opacity="0" result="BackgroundImageFix"/>
<feBlend mode="normal" in="SourceGraphic" in2="BackgroundImageFix" result="shape"/>
<feGaussianBlur stdDeviation="0.5" result="effect1_foregroundBlur_309_7054"/>
</filter>
<filter id="filter12_f_309_7054" x="133.784" y="89.1204" width="7.83313" height="15.2207" filterUnits="userSpaceOnUse" color-interpolation-filters="sRGB">
<feFlood flood-opacity="0" result="BackgroundImageFix"/>
<feBlend mode="normal" in="SourceGraphic" in2="BackgroundImageFix" result="shape"/>
<feGaussianBlur stdDeviation="0.5" result="effect1_foregroundBlur_309_7054"/>
</filter>
<filter id="filter13_f_309_7054" x="124.729" y="91.7961" width="7.15393" height="13.1267" filterUnits="userSpaceOnUse" color-interpolation-filters="sRGB">
<feFlood flood-opacity="0" result="BackgroundImageFix"/>
<feBlend mode="normal" in="SourceGraphic" in2="BackgroundImageFix" result="shape"/>
<feGaussianBlur stdDeviation="0.5" result="effect1_foregroundBlur_309_7054"/>
</filter>
<filter id="filter14_f_309_7054" x="136.365" y="75.4221" width="7.83313" height="15.2207" filterUnits="userSpaceOnUse" color-interpolation-filters="sRGB">
<feFlood flood-opacity="0" result="BackgroundImageFix"/>
<feBlend mode="normal" in="SourceGraphic" in2="BackgroundImageFix" result="shape"/>
<feGaussianBlur stdDeviation="0.5" result="effect1_foregroundBlur_309_7054"/>
</filter>
<filter id="filter15_f_309_7054" x="115.109" y="94.9807" width="5.90887" height="9.62183" filterUnits="userSpaceOnUse" color-interpolation-filters="sRGB">
<feFlood flood-opacity="0" result="BackgroundImageFix"/>
<feBlend mode="normal" in="SourceGraphic" in2="BackgroundImageFix" result="shape"/>
<feGaussianBlur stdDeviation="0.5" result="effect1_foregroundBlur_309_7054"/>
</filter>
<filter id="filter16_f_309_7054" x="155.27" y="78.4478" width="7.83313" height="15.2207" filterUnits="userSpaceOnUse" color-interpolation-filters="sRGB">
<feFlood flood-opacity="0" result="BackgroundImageFix"/>
<feBlend mode="normal" in="SourceGraphic" in2="BackgroundImageFix" result="shape"/>
<feGaussianBlur stdDeviation="0.5" result="effect1_foregroundBlur_309_7054"/>
</filter>
<filter id="filter17_f_309_7054" x="155.644" y="100.063" width="7.83313" height="15.2207" filterUnits="userSpaceOnUse" color-interpolation-filters="sRGB">
<feFlood flood-opacity="0" result="BackgroundImageFix"/>
<feBlend mode="normal" in="SourceGraphic" in2="BackgroundImageFix" result="shape"/>
<feGaussianBlur stdDeviation="0.5" result="effect1_foregroundBlur_309_7054"/>
</filter>
<filter id="filter18_f_309_7054" x="142.39" y="92.2756" width="7.83313" height="15.2207" filterUnits="userSpaceOnUse" color-interpolation-filters="sRGB">
<feFlood flood-opacity="0" result="BackgroundImageFix"/>
<feBlend mode="normal" in="SourceGraphic" in2="BackgroundImageFix" result="shape"/>
<feGaussianBlur stdDeviation="0.5" result="effect1_foregroundBlur_309_7054"/>
</filter>
<filter id="filter19_f_309_7054" x="147.626" y="111.28" width="7.83313" height="15.2207" filterUnits="userSpaceOnUse" color-interpolation-filters="sRGB">
<feFlood flood-opacity="0" result="BackgroundImageFix"/>
<feBlend mode="normal" in="SourceGraphic" in2="BackgroundImageFix" result="shape"/>
<feGaussianBlur stdDeviation="0.5" result="effect1_foregroundBlur_309_7054"/>
</filter>
<filter id="filter20_f_309_7054" x="139.02" y="108.125" width="7.83313" height="15.2207" filterUnits="userSpaceOnUse" color-interpolation-filters="sRGB">
<feFlood flood-opacity="0" result="BackgroundImageFix"/>
<feBlend mode="normal" in="SourceGraphic" in2="BackgroundImageFix" result="shape"/>
<feGaussianBlur stdDeviation="0.5" result="effect1_foregroundBlur_309_7054"/>
</filter>
<filter id="filter21_f_309_7054" x="168.394" y="75.937" width="7.8331" height="15.2207" filterUnits="userSpaceOnUse" color-interpolation-filters="sRGB">
<feFlood flood-opacity="0" result="BackgroundImageFix"/>
<feBlend mode="normal" in="SourceGraphic" in2="BackgroundImageFix" result="shape"/>
<feGaussianBlur stdDeviation="0.5" result="effect1_foregroundBlur_309_7054"/>
</filter>
<filter id="filter22_f_309_7054" x="164.121" y="92.9199" width="7.8331" height="15.2207" filterUnits="userSpaceOnUse" color-interpolation-filters="sRGB">
<feFlood flood-opacity="0" result="BackgroundImageFix"/>
<feBlend mode="normal" in="SourceGraphic" in2="BackgroundImageFix" result="shape"/>
<feGaussianBlur stdDeviation="0.5" result="effect1_foregroundBlur_309_7054"/>
</filter>
<filter id="filter23_f_309_7054" x="168.568" y="114.076" width="7.8331" height="15.2207" filterUnits="userSpaceOnUse" color-interpolation-filters="sRGB">
<feFlood flood-opacity="0" result="BackgroundImageFix"/>
<feBlend mode="normal" in="SourceGraphic" in2="BackgroundImageFix" result="shape"/>
<feGaussianBlur stdDeviation="0.5" result="effect1_foregroundBlur_309_7054"/>
</filter>
<filter id="filter24_f_309_7054" x="175.897" y="96.749" width="7.8331" height="15.2207" filterUnits="userSpaceOnUse" color-interpolation-filters="sRGB">
<feFlood flood-opacity="0" result="BackgroundImageFix"/>
<feBlend mode="normal" in="SourceGraphic" in2="BackgroundImageFix" result="shape"/>
<feGaussianBlur stdDeviation="0.5" result="effect1_foregroundBlur_309_7054"/>
</filter>
<filter id="filter25_f_309_7054" x="188.691" y="100.463" width="7.8331" height="15.2207" filterUnits="userSpaceOnUse" color-interpolation-filters="sRGB">
<feFlood flood-opacity="0" result="BackgroundImageFix"/>
<feBlend mode="normal" in="SourceGraphic" in2="BackgroundImageFix" result="shape"/>
<feGaussianBlur stdDeviation="0.5" result="effect1_foregroundBlur_309_7054"/>
</filter>
<filter id="filter26_f_309_7054" x="183.107" y="115.697" width="6.58813" height="12.6174" filterUnits="userSpaceOnUse" color-interpolation-filters="sRGB">
<feFlood flood-opacity="0" result="BackgroundImageFix"/>
<feBlend mode="normal" in="SourceGraphic" in2="BackgroundImageFix" result="shape"/>
<feGaussianBlur stdDeviation="0.5" result="effect1_foregroundBlur_309_7054"/>
</filter>
<filter id="filter27_f_309_7054" x="151.402" y="128.473" width="4.6377" height="12.1633" filterUnits="userSpaceOnUse" color-interpolation-filters="sRGB">
<feFlood flood-opacity="0" result="BackgroundImageFix"/>
<feBlend mode="normal" in="SourceGraphic" in2="BackgroundImageFix" result="shape"/>
<feGaussianBlur stdDeviation="0.5" result="effect1_foregroundBlur_309_7054"/>
</filter>
<filter id="filter28_f_309_7054" x="142.603" y="127.312" width="8.99811" height="15.1343" filterUnits="userSpaceOnUse" color-interpolation-filters="sRGB">
<feFlood flood-opacity="0" result="BackgroundImageFix"/>
<feBlend mode="normal" in="SourceGraphic" in2="BackgroundImageFix" result="shape"/>
<feGaussianBlur stdDeviation="0.5" result="effect1_foregroundBlur_309_7054"/>
</filter>
<filter id="filter29_f_309_7054" x="136.263" y="124.985" width="10.5748" height="12.0383" filterUnits="userSpaceOnUse" color-interpolation-filters="sRGB">
<feFlood flood-opacity="0" result="BackgroundImageFix"/>
<feBlend mode="normal" in="SourceGraphic" in2="BackgroundImageFix" result="shape"/>
<feGaussianBlur stdDeviation="0.5" result="effect1_foregroundBlur_309_7054"/>
</filter>
<filter id="filter30_f_309_7054" x="28.459" y="88.052" width="68.1685" height="58.2615" filterUnits="userSpaceOnUse" color-interpolation-filters="sRGB">
<feFlood flood-opacity="0" result="BackgroundImageFix"/>
<feBlend mode="normal" in="SourceGraphic" in2="BackgroundImageFix" result="shape"/>
<feGaussianBlur stdDeviation="0.5" result="effect1_foregroundBlur_309_7054"/>
</filter>
<filter id="filter31_f_309_7054" x="44.2695" y="94.1467" width="54.3446" height="54.4741" filterUnits="userSpaceOnUse" color-interpolation-filters="sRGB">
<feFlood flood-opacity="0" result="BackgroundImageFix"/>
<feBlend mode="normal" in="SourceGraphic" in2="BackgroundImageFix" result="shape"/>
<feGaussianBlur stdDeviation="0.5" result="effect1_foregroundBlur_309_7054"/>
</filter>
<filter id="filter32_f_309_7054" x="49.2786" y="100.828" width="39.592" height="63.187" filterUnits="userSpaceOnUse" color-interpolation-filters="sRGB">
<feFlood flood-opacity="0" result="BackgroundImageFix"/>
<feBlend mode="normal" in="SourceGraphic" in2="BackgroundImageFix" result="shape"/>
<feGaussianBlur stdDeviation="0.5" result="effect1_foregroundBlur_309_7054"/>
</filter>
<filter id="filter33_f_309_7054" x="79.3376" y="102.524" width="16.2716" height="15.9541" filterUnits="userSpaceOnUse" color-interpolation-filters="sRGB">
<feFlood flood-opacity="0" result="BackgroundImageFix"/>
<feBlend mode="normal" in="SourceGraphic" in2="BackgroundImageFix" result="shape"/>
<feGaussianBlur stdDeviation="0.5" result="effect1_foregroundBlur_309_7054"/>
</filter>
<filter id="filter34_f_309_7054" x="82.8979" y="116.069" width="24.6279" height="66.6638" filterUnits="userSpaceOnUse" color-interpolation-filters="sRGB">
<feFlood flood-opacity="0" result="BackgroundImageFix"/>
<feBlend mode="normal" in="SourceGraphic" in2="BackgroundImageFix" result="shape"/>
<feGaussianBlur stdDeviation="0.5" result="effect1_foregroundBlur_309_7054"/>
</filter>
<filter id="filter35_f_309_7054" x="87.234" y="110.639" width="16.2466" height="59.7373" filterUnits="userSpaceOnUse" color-interpolation-filters="sRGB">
<feFlood flood-opacity="0" result="BackgroundImageFix"/>
<feBlend mode="normal" in="SourceGraphic" in2="BackgroundImageFix" result="shape"/>
<feGaussianBlur stdDeviation="0.5" result="effect1_foregroundBlur_309_7054"/>
</filter>
<filter id="filter36_f_309_7054" x="85.3783" y="105.796" width="13.8735" height="55.3774" filterUnits="userSpaceOnUse" color-interpolation-filters="sRGB">
<feFlood flood-opacity="0" result="BackgroundImageFix"/>
<feBlend mode="normal" in="SourceGraphic" in2="BackgroundImageFix" result="shape"/>
<feGaussianBlur stdDeviation="0.5" result="effect1_foregroundBlur_309_7054"/>
</filter>
<filter id="filter37_f_309_7054" x="161.43" y="34.2024" width="12.9037" height="18.2522" filterUnits="userSpaceOnUse" color-interpolation-filters="sRGB">
<feFlood flood-opacity="0" result="BackgroundImageFix"/>
<feBlend mode="normal" in="SourceGraphic" in2="BackgroundImageFix" result="shape"/>
<feGaussianBlur stdDeviation="0.5" result="effect1_foregroundBlur_309_7054"/>
</filter>
<filter id="filter38_f_309_7054" x="166.268" y="26.2915" width="18.1229" height="24.6206" filterUnits="userSpaceOnUse" color-interpolation-filters="sRGB">
<feFlood flood-opacity="0" result="BackgroundImageFix"/>
<feBlend mode="normal" in="SourceGraphic" in2="BackgroundImageFix" result="shape"/>
<feGaussianBlur stdDeviation="0.5" result="effect1_foregroundBlur_309_7054"/>
</filter>
<filter id="filter39_f_309_7054" x="133.038" y="54.5901" width="10.4734" height="14.8433" filterUnits="userSpaceOnUse" color-interpolation-filters="sRGB">
<feFlood flood-opacity="0" result="BackgroundImageFix"/>
<feBlend mode="normal" in="SourceGraphic" in2="BackgroundImageFix" result="shape"/>
<feGaussianBlur stdDeviation="0.5" result="effect1_foregroundBlur_309_7054"/>
</filter>
<filter id="filter40_f_309_7054" x="125.053" y="59.9915" width="11.8678" height="16.323" filterUnits="userSpaceOnUse" color-interpolation-filters="sRGB">
<feFlood flood-opacity="0" result="BackgroundImageFix"/>
<feBlend mode="normal" in="SourceGraphic" in2="BackgroundImageFix" result="shape"/>
<feGaussianBlur stdDeviation="0.5" result="effect1_foregroundBlur_309_7054"/>
</filter>
<filter id="filter41_f_309_7054" x="169.938" y="18.9209" width="24.1107" height="34.176" filterUnits="userSpaceOnUse" color-interpolation-filters="sRGB">
<feFlood flood-opacity="0" result="BackgroundImageFix"/>
<feBlend mode="normal" in="SourceGraphic" in2="BackgroundImageFix" result="shape"/>
<feGaussianBlur stdDeviation="0.5" result="effect1_foregroundBlur_309_7054"/>
</filter>
<filter id="filter42_f_309_7054" x="147.169" y="45.6313" width="10.8319" height="14.3936" filterUnits="userSpaceOnUse" color-interpolation-filters="sRGB">
<feFlood flood-opacity="0" result="BackgroundImageFix"/>
<feBlend mode="normal" in="SourceGraphic" in2="BackgroundImageFix" result="shape"/>
<feGaussianBlur stdDeviation="0.5" result="effect1_foregroundBlur_309_7054"/>
</filter>
<filter id="filter43_f_309_7054" x="153.987" y="40.7705" width="12.2719" height="16.2773" filterUnits="userSpaceOnUse" color-interpolation-filters="sRGB">
<feFlood flood-opacity="0" result="BackgroundImageFix"/>
<feBlend mode="normal" in="SourceGraphic" in2="BackgroundImageFix" result="shape"/>
<feGaussianBlur stdDeviation="0.5" result="effect1_foregroundBlur_309_7054"/>
</filter>
<filter id="filter44_f_309_7054" x="141.068" y="49.5928" width="10.0693" height="14.8889" filterUnits="userSpaceOnUse" color-interpolation-filters="sRGB">
<feFlood flood-opacity="0" result="BackgroundImageFix"/>
<feBlend mode="normal" in="SourceGraphic" in2="BackgroundImageFix" result="shape"/>
<feGaussianBlur stdDeviation="0.5" result="effect1_foregroundBlur_309_7054"/>
</filter>
<filter id="filter45_f_309_7054" x="212.348" y="111.68" width="17.3904" height="22.3628" filterUnits="userSpaceOnUse" color-interpolation-filters="sRGB">
<feFlood flood-opacity="0" result="BackgroundImageFix"/>
<feBlend mode="normal" in="SourceGraphic" in2="BackgroundImageFix" result="shape"/>
<feGaussianBlur stdDeviation="0.25" result="effect1_foregroundBlur_309_7054"/>
</filter>
<filter id="filter46_f_309_7054" x="211.141" y="115.499" width="12.0462" height="22.1467" filterUnits="userSpaceOnUse" color-interpolation-filters="sRGB">
<feFlood flood-opacity="0" result="BackgroundImageFix"/>
<feBlend mode="normal" in="SourceGraphic" in2="BackgroundImageFix" result="shape"/>
<feGaussianBlur stdDeviation="0.25" result="effect1_foregroundBlur_309_7054"/>
</filter>
<filter id="filter47_f_309_7054" x="210.345" y="122.955" width="4.08481" height="18.5676" filterUnits="userSpaceOnUse" color-interpolation-filters="sRGB">
<feFlood flood-opacity="0" result="BackgroundImageFix"/>
<feBlend mode="normal" in="SourceGraphic" in2="BackgroundImageFix" result="shape"/>
<feGaussianBlur stdDeviation="0.25" result="effect1_foregroundBlur_309_7054"/>
</filter>
</defs>
</svg>
