<svg width="277" height="343" viewBox="0 0 277 343" fill="none" xmlns="http://www.w3.org/2000/svg">
<g filter="url(#filter0_i_131_7052)">
<circle cx="168" cy="24" r="24" fill="#95D7EC"/>
</g>
<circle cx="163.385" cy="10.1539" r="4.61538" fill="#B5E6F2"/>
<g filter="url(#filter1_i_131_7052)">
<circle cx="254" cy="323" r="20" fill="#95D7EC"/>
</g>
<circle cx="250.154" cy="311.462" r="3.84615" fill="#B5E6F2"/>
<g filter="url(#filter2_i_131_7052)">
<circle cx="256" cy="91" r="21" fill="#95D7EC"/>
</g>
<circle cx="251.962" cy="78.8846" r="4.03846" fill="#B5E6F2"/>
<g filter="url(#filter3_i_131_7052)">
<circle cx="34" cy="206" r="19" fill="#95D7EC"/>
</g>
<circle cx="30.6538" cy="197.654" r="3.65385" fill="#B5E6F2"/>
<g filter="url(#filter4_i_131_7052)">
<path d="M150.49 301.593L141.33 296.223C141.33 296.223 139.802 297.585 138.803 298.434C137.468 299.57 137.224 299.884 135.645 300.645C134.162 301.359 132.272 300.956 131.223 302.224C130.122 303.555 130.463 305.096 131.223 306.646C131.877 307.98 132.352 308.471 133.434 309.489C134.577 310.565 135.229 310.921 136.592 311.7C137.608 312.28 138.611 313.012 139.751 313.279C141.916 313.786 143.044 313.759 145.12 312.963C147.747 311.957 148.557 310.228 149.542 307.594C150.367 305.386 150.49 301.593 150.49 301.593Z" fill="#D6374A"/>
</g>
<g filter="url(#filter5_i_131_7052)">
<path d="M159.649 307.594C159.253 306.168 159.649 303.696 159.649 303.696H171.034L177.337 302.54C177.337 302.54 177.406 303.891 177.337 304.751C177.236 306.005 176.965 306.679 176.705 307.91C176.47 309.022 176.389 309.489 175.757 310.752C175.126 312.016 174.494 312.647 173.547 313.595L173.546 313.595C172.599 314.542 171.597 315.1 171.336 315.174C171.074 315.249 169.44 315.253 169.125 315.174C168.809 315.095 166.598 314.542 165.334 313.911C164.071 313.279 163.313 312.521 162.176 311.384L162.176 311.384C161.039 310.247 160.08 309.143 159.649 307.594Z" fill="#EC5671"/>
</g>
<g filter="url(#filter6_i_131_7052)">
<path d="M159.549 257.326C170.43 254.605 182.097 261.587 183.36 261.587C184.794 261.587 180.891 248.322 176.814 241.897C172.702 235.417 164.496 228 162.917 228C161.338 228 155.968 240.318 150.599 244.108C145.23 247.898 143.334 248.53 138.597 249.478C133.327 250.532 128.137 254.531 128.174 257.374C128.222 261.074 131.332 262.743 132.911 264.323C135.122 266.534 136.194 268.64 136.194 272.114C136.194 272.746 148.178 260.168 159.549 257.326Z" fill="#EC5672"/>
</g>
<g filter="url(#filter7_i_131_7052)">
<path d="M190.602 295.592C193.616 292.704 195.135 290.655 196.603 286.748L196.632 286.671C197.331 284.813 197.75 283.697 197.867 281.694C197.983 279.709 197.827 278.539 197.235 276.641C196.611 274.639 195.885 273.638 194.708 271.903C193.559 270.209 192.735 269.353 191.344 267.911L191.234 267.797C189.841 266.351 189.002 265.589 187.444 264.323C185.797 262.984 184.842 262.256 183.022 261.164C180.798 259.83 179.47 259.173 177.021 258.321C174.279 257.368 172.644 257.042 169.756 256.742C167.057 256.462 165.506 256.455 162.808 256.742C159.268 257.118 157.303 257.719 153.964 258.953C150.601 260.196 148.761 261.11 145.752 263.059C141.427 265.86 140.1 268.834 135.961 271.903C133.817 273.492 132.81 274.86 130.275 275.693C128.642 276.23 127.627 276.264 125.929 276.322L125.853 276.325C123.116 276.418 118.905 275.377 118.905 275.377L122.379 281.694C122.379 281.694 120.8 288.959 121.431 289.275C122.063 289.59 127.481 286.416 128.38 286.116C129.328 285.8 130.897 286.173 131.854 286.748C133.434 287.695 134.04 288.886 134.697 289.59C135.287 290.222 139.01 295.655 144.173 298.75C147.493 300.741 149.607 301.487 153.332 302.54C157.176 303.627 159.448 303.948 163.439 304.119C167.267 304.284 169.463 304.184 173.231 303.488C175.614 303.048 176.945 302.712 179.232 301.909C184.024 300.225 186.935 299.106 190.602 295.592Z" fill="#BC1E2D"/>
</g>
<g filter="url(#filter8_i_131_7052)">
<path d="M121.116 291.17C121.535 290.149 122.409 288.907 122.158 288.155C121.907 287.403 123.03 284.205 122.379 281.639C121.588 278.518 119.539 276.039 119.401 275.623C119.401 275.623 117.15 273.938 116.062 273.166C115.056 272.453 114.568 271.946 113.535 271.271C111.688 270.064 110.53 269.564 108.482 268.744C106.562 267.976 105.461 267.543 103.428 267.165C101.242 266.759 99.9622 266.711 97.7428 266.849L97.6923 266.852C95.5977 266.983 94.3531 267.06 92.3734 267.797C90.3512 268.55 89.1646 269.117 87.6356 270.64C86.375 271.895 85.9991 272.89 85.1089 274.43C83.1144 277.88 82.5829 280.126 81.3187 283.905C80.7865 285.496 80.2659 286.958 80.0553 288.011C79.8447 289.064 80.0145 290.422 79.4236 291.801C78.7332 293.413 77.2446 294.644 76.581 295.276C76.1666 295.67 74.9566 296.784 73.7383 297.487C72.1499 298.403 69.7749 298.951 69.3164 299.066C68.858 299.181 63.9165 300.329 62.9995 300.645C62.2527 300.902 61.2612 301.347 61.0739 301.909C60.4422 303.804 64.055 304.572 64.4874 304.721C65.4958 305.067 67.3605 305.839 69.2556 306.3C70.5955 306.626 71.4237 306.781 72.7908 306.962C74.8731 307.238 77.8139 306.646 78.1297 306.962C78.1297 306.962 78.6866 307.278 78.7919 308.226C78.8972 309.173 79.4236 314.037 79.4236 314.542C79.4236 314.542 78.5065 317.701 79.4236 319.912C80.3407 322.123 81.704 323.781 82.2662 324.334C82.8284 324.886 83.6952 325.666 84.793 326.229C86.0259 326.861 86.6576 327.492 87.0039 326.229C87.2846 325.205 87.4813 323.058 87.6052 322.439C87.921 320.859 87.9792 319.915 88.2369 318.333C88.6013 316.094 88.8099 313.911 89.2149 312.963C89.7058 311.815 90.6541 309.282 92.0271 307.278C93.0633 305.765 93.7976 305.002 95.1856 303.804C96.2831 302.856 97.7239 302.328 99.6074 300.961C100.886 300.033 102.45 298.434 103.112 298.118C103.676 297.849 105.13 297.376 105.955 298.118C106.872 298.944 105.955 299.592 105.955 301.277V306.962C105.955 307.467 104.691 309.489 104.691 309.489C104.691 309.489 101.154 313.658 100.901 313.911C100.901 313.911 98.9009 316.964 98.0586 318.333C97.2164 319.701 99.1096 321.769 99.0062 324.018C98.9251 325.782 98.6692 326.783 98.0586 328.44C97.5819 329.734 96.3084 330.23 96.4794 331.598C96.582 332.419 96.7062 333.087 97.4269 333.493C98.313 333.993 98.981 333.159 99.9537 332.862C105.156 331.272 107.74 329.074 111.64 325.281C115.321 321.703 117.34 319.319 119.221 314.542C120.515 311.256 120.657 309.201 121.116 305.699C121.852 300.073 118.96 296.418 121.116 291.17Z" fill="#E95774"/>
</g>
<g filter="url(#filter9_i_131_7052)">
<path d="M192.813 299.382C189.655 295.592 182.706 289.275 182.074 288.959C181.443 288.643 180.179 289.59 179.863 289.906C179.34 290.43 179.548 291.17 179.863 291.801C180.15 292.375 180.513 293.901 180.811 295.276C181.155 296.861 181.425 297.76 181.443 299.382C181.461 301.126 181.022 302.435 180.811 303.804C180.6 305.172 180.771 306.864 179.863 308.226C178.956 309.587 178.284 310.121 177.653 311.068L177.652 311.068C177.021 312.016 176.389 312.963 176.389 314.543C176.389 315.174 177.021 316.438 177.653 316.753C178.284 317.069 179.503 317.581 180.811 318.017C182.466 318.568 183.489 318.635 185.233 318.649C187.484 318.667 189.971 318.337 190.918 318.017C191.78 317.725 194.136 316.999 195.34 315.49C196.169 314.452 196.289 313.622 196.603 312.332C196.834 311.384 197.043 308.406 196.603 306.646C196.288 305.383 195.972 303.172 192.813 299.382Z" fill="#D6374A"/>
</g>
<g filter="url(#filter10_f_131_7052)">
<path d="M175.127 262.743C175.127 262.743 172.687 264.007 172.6 266.218C172.529 268.038 175.127 270.324 175.127 270.324" stroke="#E36A78" stroke-linecap="round"/>
</g>
<g filter="url(#filter11_f_131_7052)">
<path d="M178.286 277.904C178.286 277.904 175.845 279.167 175.759 281.378C175.688 283.199 178.286 285.484 178.286 285.484" stroke="#E36A78" stroke-linecap="round"/>
</g>
<g filter="url(#filter12_f_131_7052)">
<path d="M171.969 273.482C171.969 273.482 169.528 274.746 169.442 276.957C169.371 278.777 171.969 281.063 171.969 281.063" stroke="#E36A78" stroke-linecap="round"/>
</g>
<g filter="url(#filter13_f_131_7052)">
<path d="M166.915 258.953C166.915 258.953 164.475 260.217 164.388 262.427C164.317 264.248 166.915 266.534 166.915 266.534" stroke="#E36A78" stroke-linecap="round"/>
</g>
<g filter="url(#filter14_f_131_7052)">
<path d="M159.966 262.743C159.966 262.743 157.526 264.007 157.44 266.218C157.369 268.038 159.966 270.324 159.966 270.324" stroke="#E36A78" stroke-linecap="round"/>
</g>
<g filter="url(#filter15_f_131_7052)">
<path d="M150.491 265.27C150.491 265.27 148.05 266.534 147.964 268.744C147.893 270.565 150.491 272.85 150.491 272.85" stroke="#E36A78" stroke-linecap="round"/>
</g>
<g filter="url(#filter16_f_131_7052)">
<path d="M141.647 276.009C141.647 276.009 139.207 277.272 139.12 279.483C139.049 281.303 141.647 283.589 141.647 283.589" stroke="#E36A78" stroke-linecap="round"/>
</g>
<g filter="url(#filter17_f_131_7052)">
<path d="M135.329 276.957C135.329 276.957 133.521 277.904 133.435 280.115C133.364 281.935 135.645 283.273 135.645 283.273" stroke="#E36A78" stroke-linecap="round"/>
</g>
<g filter="url(#filter18_f_131_7052)">
<path d="M144.174 267.797C144.174 267.797 141.733 269.06 141.647 271.271C141.576 273.091 144.174 275.377 144.174 275.377" stroke="#E36A78" stroke-linecap="round"/>
</g>
<g filter="url(#filter19_f_131_7052)">
<path d="M129.012 278.22C129.012 278.22 127.515 278.316 127.433 280.431C127.362 282.251 129.012 282.326 129.012 282.326" stroke="#E36A78" stroke-linecap="round"/>
</g>
<g filter="url(#filter20_f_131_7052)">
<path d="M155.545 270.955C155.545 270.955 153.104 272.219 153.018 274.43C152.947 276.25 155.545 278.536 155.545 278.536" stroke="#E36A78" stroke-linecap="round"/>
</g>
<g filter="url(#filter21_f_131_7052)">
<path d="M154.281 284.221C154.281 284.221 151.841 285.484 151.754 287.695C151.683 289.516 154.281 291.801 154.281 291.801" stroke="#E36A78" stroke-linecap="round"/>
</g>
<g filter="url(#filter22_f_131_7052)">
<path d="M146.701 278.536C146.701 278.536 144.26 279.799 144.174 282.01C144.103 283.83 146.701 286.116 146.701 286.116" stroke="#E36A78" stroke-linecap="round"/>
</g>
<g filter="url(#filter23_f_131_7052)">
<path d="M148.596 290.538C148.596 290.538 146.155 291.801 146.069 294.012C145.998 295.832 148.596 298.118 148.596 298.118" stroke="#E36A78" stroke-linecap="round"/>
</g>
<g filter="url(#filter24_f_131_7052)">
<path d="M143.542 288.011C143.542 288.011 141.102 289.275 141.016 291.486C140.945 293.306 143.542 295.592 143.542 295.592" stroke="#E36A78" stroke-linecap="round"/>
</g>
<g filter="url(#filter25_f_131_7052)">
<path d="M163.757 270.324C163.757 270.324 161.316 271.587 161.23 273.798C161.159 275.618 163.757 277.904 163.757 277.904" stroke="#E36A78" stroke-linecap="round"/>
</g>
<g filter="url(#filter26_f_131_7052)">
<path d="M159.966 280.431C159.966 280.431 157.526 281.694 157.44 283.905C157.369 285.725 159.966 288.011 159.966 288.011" stroke="#E36A78" stroke-linecap="round"/>
</g>
<g filter="url(#filter27_f_131_7052)">
<path d="M161.23 293.696C161.23 293.696 158.789 294.96 158.703 297.171C158.632 298.991 161.23 301.277 161.23 301.277" stroke="#E36A78" stroke-linecap="round"/>
</g>
<g filter="url(#filter28_f_131_7052)">
<path d="M166.915 283.589C166.915 283.589 164.475 284.853 164.388 287.064C164.317 288.884 166.915 291.17 166.915 291.17" stroke="#E36A78" stroke-linecap="round"/>
</g>
<g filter="url(#filter29_f_131_7052)">
<path d="M174.495 286.748C174.495 286.748 172.055 288.011 171.969 290.222C171.898 292.042 174.495 294.328 174.495 294.328" stroke="#E36A78" stroke-linecap="round"/>
</g>
<g filter="url(#filter30_f_131_7052)">
<path d="M169.125 295.592C169.125 295.592 167.619 296.855 167.545 298.75C167.474 300.57 169.44 301.593 169.44 301.593" stroke="#E36A78" stroke-linecap="round"/>
</g>
<g filter="url(#filter31_f_131_7052)">
<path d="M148.476 301.189C148.476 303.695 148.225 304.949 146.972 306.703" stroke="#B21A2B" stroke-linecap="round"/>
</g>
<g filter="url(#filter32_f_131_7052)">
<path d="M145.969 300.186C144.967 303.695 143.964 304.698 141.458 307.205" stroke="#B21A2B" stroke-linecap="round"/>
</g>
<g filter="url(#filter33_f_131_7052)">
<path d="M143.212 298.432C141.458 301.44 140.455 301.941 137.949 303.445" stroke="#B21A2B" stroke-linecap="round"/>
</g>
<g filter="url(#filter34_f_131_7052)">
<path d="M114.639 275.623C114.639 275.623 104.064 269.512 97.0932 270.861C89.3232 272.365 85.5635 284.396 85.5635 284.396C85.5635 284.396 83.8089 294.672 80.2999 299.685C78.2298 302.642 71.2766 301.69 71.2766 301.69" stroke="#C32E42" stroke-opacity="0.3" stroke-linecap="round"/>
</g>
<g filter="url(#filter35_f_131_7052)">
<path d="M115.39 279.884C115.39 279.884 110.741 276.822 107.37 275.874C103.966 274.916 101.733 274.106 98.3465 275.122C95.6422 275.933 94.1507 276.973 92.3309 279.132C90.3509 281.481 90.3247 283.497 89.3232 286.401C87.8758 290.598 88.7098 293.542 86.566 297.429C84.8896 300.47 80.8011 304.197 80.8011 304.197" stroke="#C32E42" stroke-opacity="0.3" stroke-linecap="round"/>
</g>
<g filter="url(#filter36_f_131_7052)">
<path d="M109.375 279.633C109.375 279.633 104.668 279.551 102.357 281.137C99.1775 283.319 100.55 286.996 98.3465 290.161C96.2899 293.114 91.8296 296.677 91.8296 296.677C91.8296 296.677 89.0072 298.747 87.5686 300.437C83.9364 304.704 82.8063 313.972 82.8063 313.972" stroke="#C32E42" stroke-opacity="0.3" stroke-linecap="round"/>
</g>
<g filter="url(#filter37_f_131_7052)">
<path d="M113.385 281.137C113.385 281.137 108.586 281.828 106.618 283.894C105.319 285.258 104.362 288.155 104.362 288.155" stroke="#C32E42" stroke-opacity="0.3" stroke-linecap="round"/>
</g>
<g filter="url(#filter38_f_131_7052)">
<path d="M118.9 290.161C118.9 290.161 119.902 306.954 114.137 315.225C110.217 320.849 102.106 327.758 102.106 327.758" stroke="#C32E42" stroke-opacity="0.3" stroke-linecap="round"/>
</g>
<g filter="url(#filter39_f_131_7052)">
<path d="M117.646 286.651C117.646 286.651 116.215 288.207 115.641 289.409C114.499 291.8 115.441 293.543 115.14 296.176C114.642 300.525 114.518 303.051 113.135 307.205C111.251 312.86 109.495 315.963 105.615 320.489" stroke="#C32E42" stroke-opacity="0.3" stroke-linecap="round"/>
</g>
<g filter="url(#filter40_f_131_7052)">
<path d="M115.39 283.393C115.39 283.393 113.158 284.837 112.132 286.15C109.294 289.783 111.997 293.362 111.38 297.931C111.008 300.69 110.127 304.949 110.127 304.949C110.127 304.949 110.187 308.691 109.124 310.714C108.094 312.674 105.114 314.724 105.114 314.724" stroke="#C32E42" stroke-opacity="0.3" stroke-linecap="round"/>
</g>
<g filter="url(#filter41_f_131_7052)">
<path d="M160.256 244.041C162.763 248.052 163.765 250.057 165.269 254.067" stroke="#C32E42" stroke-opacity="0.5" stroke-linecap="round"/>
</g>
<g filter="url(#filter42_f_131_7052)">
<path d="M163.765 239.53C168.277 245.044 169.53 247.551 171.536 253.817" stroke="#C32E42" stroke-opacity="0.5" stroke-linecap="round"/>
</g>
<g filter="url(#filter43_f_131_7052)">
<path d="M141.458 254.569C143.964 257.827 144.466 259.08 145.218 262.339" stroke="#C32E42" stroke-opacity="0.5" stroke-linecap="round"/>
</g>
<g filter="url(#filter44_f_131_7052)">
<path d="M136.194 257.326C138.951 260.835 139.453 262.339 140.706 266.098" stroke="#C32E42" stroke-opacity="0.5" stroke-linecap="round"/>
</g>
<g filter="url(#filter45_f_131_7052)">
<path d="M166.523 235.269C174.042 242.287 175.295 247.049 177.3 255.822" stroke="#C32E42" stroke-opacity="0.5" stroke-linecap="round"/>
</g>
<g filter="url(#filter46_f_131_7052)">
<path d="M150.732 250.057C152.988 252.814 153.74 254.569 154.742 257.576" stroke="#C32E42" stroke-opacity="0.5" stroke-linecap="round"/>
</g>
<g filter="url(#filter47_f_131_7052)">
<path d="M155.243 247.551C158.001 251.06 158.752 252.563 160.006 256.323" stroke="#C32E42" stroke-opacity="0.5" stroke-linecap="round"/>
</g>
<g filter="url(#filter48_f_131_7052)">
<path d="M146.721 252.062C148.727 255.321 149.228 256.574 150.23 259.832" stroke="#C32E42" stroke-opacity="0.5" stroke-linecap="round"/>
</g>
<g filter="url(#filter49_f_131_7052)">
<path d="M185.822 294.672C191.337 299.184 193.091 301.69 193.843 308.207" stroke="#B21A2B" stroke-opacity="0.25" stroke-linecap="round"/>
</g>
<g filter="url(#filter50_f_131_7052)">
<path d="M184.82 296.928C189.582 301.941 189.081 304.447 189.582 309.962" stroke="#B21A2B" stroke-opacity="0.25" stroke-linecap="round"/>
</g>
<g filter="url(#filter51_f_131_7052)">
<path d="M183.817 301.44C184.569 305.199 184.569 308.207 183.817 311.716" stroke="#B21A2B" stroke-opacity="0.25" stroke-linecap="round"/>
</g>
<path d="M175.797 303.445C175.797 305.701 175.295 306.954 173.541 308.458" stroke="#B21A2B" stroke-opacity="0.25" stroke-linecap="round"/>
<path d="M172.287 304.197C171.786 306.202 171.285 307.205 169.53 308.458" stroke="#B21A2B" stroke-opacity="0.25" stroke-linecap="round"/>
<path d="M167.274 304.447C166.523 305.45 166.523 305.45 165.019 305.701" stroke="#B21A2B" stroke-opacity="0.25" stroke-linecap="round"/>
<path d="M48.7221 170.188C48.2749 170.188 47.8074 170.147 47.3196 170.065C46.8724 170.024 46.4252 169.921 45.978 169.757C44.2706 169.183 42.8681 168.138 41.7705 166.621C40.6729 165.105 39.7989 163.321 39.1484 161.272C38.498 159.181 37.9492 157.009 37.502 154.754C37.0955 152.458 36.6686 150.265 36.2214 148.175C35.571 147.888 34.9409 147.56 34.3311 147.191C33.7213 146.822 33.1928 146.433 32.7456 146.023L32.3798 146.638C28.4365 153.278 24.1883 158.443 19.6352 162.133C15.0821 165.822 10.3867 167.523 5.54907 167.236C4.20754 167.154 2.94731 166.683 1.76839 165.822C0.589462 165.002 0 163.813 0 162.256C0 162.051 0.0203263 161.846 0.0609788 161.641C0.0609788 161.436 0.0813051 161.231 0.121958 161.026C0.365873 159.96 1.01631 159.079 2.07328 158.382C3.1709 157.644 4.24819 157.275 5.30516 157.275C5.75234 156.742 6.32147 156.476 7.01257 156.476C7.33779 156.476 7.64268 156.558 7.92725 156.722C8.25247 156.886 8.51671 157.152 8.71997 157.521C8.88258 157.562 9.10617 157.583 9.39074 157.583C9.71596 157.583 10.0005 157.542 10.2444 157.46C10.4884 157.378 10.6306 157.234 10.6713 157.029C10.7526 156.742 10.8746 156.599 11.0372 156.599C11.1998 156.599 11.3014 156.681 11.3421 156.845C11.4234 157.009 11.464 157.193 11.464 157.398C11.464 157.685 11.3624 157.951 11.1591 158.197C10.9559 158.443 10.5697 158.607 10.0005 158.689C9.67531 158.689 9.37042 158.607 9.08585 158.443C9.1265 158.73 9.1265 159.038 9.08585 159.366C9.08585 159.653 9.08585 159.96 9.08585 160.288V160.472C9.08585 160.841 9.18748 161.169 9.39074 161.456C9.63466 161.743 9.87857 161.805 10.1225 161.641C10.2851 161.518 10.4071 161.456 10.4884 161.456C10.6103 161.456 10.6103 161.559 10.4884 161.764C10.2038 162.297 9.73629 162.563 9.08585 162.563C8.92324 162.563 8.76063 162.522 8.59802 162.44C8.11019 162.235 7.72399 161.928 7.43942 161.518C7.1955 161.067 7.05322 160.636 7.01257 160.227C6.93126 159.448 6.70767 158.894 6.3418 158.566C5.97593 158.238 5.63038 158.033 5.30516 157.951C5.1832 157.951 5.12222 157.931 5.12222 157.89C4.34982 158.054 3.57743 158.464 2.80503 159.12C2.03263 159.735 1.5448 160.452 1.34153 161.272C1.30088 161.436 1.26023 161.62 1.21958 161.825C1.21958 162.03 1.21958 162.215 1.21958 162.379C1.21958 163.649 1.68708 164.633 2.62209 165.33C3.5571 166.027 4.65472 166.375 5.91495 166.375C7.74431 166.375 9.67531 165.699 11.7079 164.346C13.7812 163.035 15.8952 161.272 18.0497 159.058C20.2043 156.804 22.3386 154.303 24.4525 151.557C26.5664 148.769 28.6194 145.961 30.6114 143.133C30.2049 142.272 30.0016 141.411 30.0016 140.55C30.0016 140.058 30.1032 139.566 30.3065 139.074C30.6317 138.583 31.2008 138.337 32.0139 138.337H32.2578C32.705 138.337 33.1318 138.48 33.5384 138.767C33.9449 138.193 34.3311 137.64 34.697 137.107C35.0628 136.533 35.4287 135.98 35.7946 135.447C36.9328 133.684 38.3354 131.757 40.0021 129.667C41.6689 127.576 43.4779 125.588 45.4292 123.702C43.5999 123.087 41.6282 122.636 39.5143 122.35C37.441 122.022 35.2864 121.858 33.0505 121.858C30.1236 121.858 27.1966 122.124 24.2696 122.657C21.3832 123.19 18.6392 124.01 16.0374 125.117C13.4763 126.223 11.1998 127.617 9.20781 129.298C7.21583 130.937 5.67103 132.885 4.57341 135.139C4.08558 136.082 3.71971 137.004 3.47579 137.906C3.27253 138.808 3.1709 139.669 3.1709 140.489C3.1709 142.046 3.5571 143.42 4.3295 144.608L4.41662 144.749C4.85218 145.627 4.01009 145.545 4.41662 145.627C4.41662 145.627 3.98844 145.188 4.31366 145.188C4.51692 145.188 3.7312 144.967 3.89381 144.967C3.7312 145.008 4.05642 144.926 3.89381 144.967C3.85316 144.844 4.26368 145.1 4.22303 144.977C4.22303 144.854 4.3295 145.223 4.3295 145.1C4.3295 144.608 3.93846 145.182 4.22303 144.977C4.54825 144.731 4.20754 145.018 4.45146 144.977C4.20754 145.1 4.73602 144.895 4.45146 144.977C4.73602 144.854 4.49844 145.305 4.6204 145.1C4.82366 144.772 4.4108 145.516 4.45146 145.188C4.49211 144.86 4.3295 145.264 4.3295 145.1C4.61407 145.387 4.10107 144.485 4.22303 144.977C4.34498 145.428 4.25628 144.584 4.25628 144.994C4.25628 146.06 3.54549 144.749 3.98105 144.749C3.84284 144.967 4.12397 144.749 3.98105 144.749C3.53388 144.749 4.65472 145.2 4.3295 144.872C3.88232 145.036 4.81733 144.872 4.3295 144.872C4.04493 144.872 4.17838 144.711 3.89381 144.67C3.60924 144.588 5.20353 145.387 4.87831 145.346C6.4231 147.15 8.55736 148.052 11.2811 148.052C12.6226 148.052 13.9235 147.826 15.1837 147.375C15.2244 147.375 15.265 147.375 15.3057 147.375C15.3463 147.334 15.387 147.314 15.4276 147.314L15.6106 147.252C17.5213 146.597 19.127 145.572 20.4279 144.178C21.7694 142.784 22.7858 141.247 23.4769 139.566C24.1679 137.845 24.5135 136.246 24.5135 134.77C24.5135 133.294 24.1679 132.065 23.4769 131.081C22.7858 130.056 21.6678 129.544 20.123 129.544H20.062C19.4929 129.544 18.9644 129.892 18.4766 130.589C18.0294 131.245 17.7855 132.147 17.7448 133.294C17.7042 133.827 17.4603 134.606 17.0131 135.631C16.5659 136.615 15.9561 137.394 15.1837 137.968C14.6552 138.378 14.1268 138.583 13.5983 138.583C13.1511 138.583 12.7649 138.439 12.4397 138.152C12.3584 138.07 12.3177 137.988 12.3177 137.906C12.3177 137.824 12.5413 137.742 12.9885 137.66C13.4357 137.578 13.8015 137.25 14.0861 136.676C14.4113 136.061 14.5333 135.488 14.452 134.955C14.33 133.11 14.6146 131.634 15.3057 130.528C16.0374 129.38 17.1351 128.806 18.5985 128.806C18.7612 128.806 18.9034 128.806 19.0254 128.806C19.188 128.806 19.3506 128.826 19.5132 128.867C19.9604 128.867 20.3669 128.908 20.7328 128.99C21.0987 129.072 21.4442 129.154 21.7694 129.236C21.5255 129.031 21.2816 128.785 21.0377 128.498C20.8344 128.17 20.7328 127.781 20.7328 127.33C20.7328 126.961 20.8954 126.674 21.2206 126.469C21.5865 126.264 21.9524 126.162 22.3183 126.162C22.5215 126.162 22.7045 126.203 22.8671 126.285C23.1516 126.449 23.2939 126.592 23.2939 126.715C23.2939 126.838 23.111 126.879 22.7451 126.838H22.6232C22.2979 126.838 22.1353 127.043 22.1353 127.453C22.1353 127.822 22.237 128.252 22.4402 128.744C22.6841 129.236 22.8874 129.585 23.05 129.79C23.8631 130.282 24.4932 130.937 24.9403 131.757C25.3875 132.577 25.6779 133.704 25.7592 134.647C25.8812 134.442 25.593 134.903 25.7556 134.698C25.593 134.903 25.9182 134.493 25.7556 134.698C25.5117 134.37 25.7592 135.016 25.7592 134.647C25.7592 134.155 25.7435 134.713 25.7396 134.677C25.6801 134.713 25.0275 135.057 25.7592 134.647C25.7796 134.647 24.8612 134.862 25.7556 134.698C24.8612 134.698 25.744 134.683 25.7556 134.698C25.72 134.651 25.103 134.56 25.6721 134.683C25.6917 134.647 25.434 134.36 25.7592 134.647C25.7388 134.647 25.7592 134.483 25.7592 134.647C25.6721 134.683 25.7999 134.811 25.7592 134.647C25.3527 134.565 25.9734 134.619 25.6481 134.619C25.1603 134.619 25.9734 134.496 25.6481 134.619C25.201 134.824 25.8754 134.314 25.6721 134.683C25.4688 135.052 25.6274 134.654 25.5468 134.651C25.6481 134.619 25.6721 134.651 25.5468 134.651C25.6231 134.648 25.6721 134.63 25.7592 134.647C25.0681 134.647 25.7286 134.664 25.6721 134.683C25.2249 135.011 25.3236 134.208 25.794 134.77C25.5501 135.139 25.7941 135.508 25.6721 135.877C25.5095 137.886 24.7574 139.935 23.4159 142.026C22.0743 144.076 20.2653 145.736 17.9888 147.006C18.3546 147.006 17.312 146.705 17.7185 146.91C18.0031 146.623 17.3979 146.883 17.8451 146.883C18.3736 146.883 17.4312 146.014 17.9191 146.506C18.4476 146.957 18.1798 145.639 18.1798 146.663C18.1798 147.073 17.6055 146.851 17.4835 147.384C17.3616 147.876 17.9572 146.31 17.632 146.638C17.5914 146.433 17.7185 146.993 17.7185 146.706C17.7185 146.378 17.9915 147.106 17.7883 146.779C17.6663 146.574 18.3394 146.727 18.0548 146.604C17.8109 146.44 18.2036 146.745 17.9191 146.663C17.6752 146.581 18.1297 146.711 17.8451 146.506C17.5605 146.26 18.7902 146.945 17.4835 146.945C17.335 146.267 18.0548 146.686 18.0548 146.604C18.0955 146.481 17.5914 147.006 17.632 146.883C17.2661 146.761 18.125 147.006 17.7185 147.006C17.5965 147.006 17.6055 147.384 17.4835 147.384C17.3616 147.384 17.0741 147.519 16.9521 147.56C15.0821 148.38 13.0698 148.79 10.9152 148.79C8.92324 148.79 7.21583 148.4 5.79299 147.621C6.15886 148.154 6.3418 148.605 6.3418 148.974C6.3418 149.507 6.07756 149.917 5.54907 150.204C5.06124 150.45 4.65472 150.511 4.3295 150.388C4.20754 150.347 4.12624 150.286 4.08558 150.204C4.04493 150.081 4.16689 149.978 4.45146 149.896C4.81733 149.773 5.00027 149.384 5.00027 148.728C5.00027 148.359 4.95961 147.99 4.87831 147.621C4.797 147.211 4.65472 146.924 4.45146 146.761L4.39048 146.699C3.37416 145.674 2.52046 144.567 1.82937 143.379C1.13827 142.19 0.792725 140.817 0.792725 139.259C0.792725 138.439 0.894356 137.558 1.09762 136.615C1.34153 135.672 1.68708 134.729 2.13426 133.786C2.58144 132.803 3.15057 131.88 3.84167 131.019C4.57341 130.159 5.38646 129.359 6.28082 128.621C6.07756 128.662 5.83364 128.724 5.54907 128.806C5.30516 128.847 5.06124 128.867 4.81733 128.867C4.3295 128.867 3.88232 128.765 3.47579 128.56C3.19123 128.396 2.98796 128.17 2.86601 127.883C2.74405 127.556 2.68307 127.248 2.68307 126.961C2.68307 126.428 2.82535 125.977 3.10992 125.608C3.23188 125.485 3.33351 125.424 3.41482 125.424C3.53677 125.424 3.59775 125.649 3.59775 126.1C3.59775 126.469 3.82134 126.797 4.26852 127.084C4.75635 127.33 5.28483 127.515 5.85397 127.638C6.46376 127.72 6.93126 127.72 7.25648 127.638C7.5817 127.515 7.76464 127.433 7.80529 127.392C9.87857 125.957 12.2567 124.768 14.9398 123.825C17.6229 122.882 20.4686 122.186 23.4769 121.735C26.4851 121.243 29.4934 120.997 32.5017 120.997C34.9002 120.997 37.2784 121.161 39.6362 121.489C41.9941 121.776 44.23 122.227 46.3439 122.841C46.9131 122.268 47.5025 121.714 48.1123 121.181C48.7627 120.648 49.4132 120.156 50.0636 119.706C51.4052 118.681 52.7467 117.984 54.0882 117.615C55.4298 117.205 56.6493 117 57.747 117C58.9259 117 59.9016 117.164 60.6739 117.492C61.487 117.82 61.9748 118.209 62.1374 118.66L61.7716 118.906C61.4463 118.537 60.9788 118.23 60.3691 117.984C59.7593 117.738 59.0478 117.615 58.2348 117.615C57.2591 117.615 56.1412 117.84 54.881 118.291C53.6207 118.742 52.2182 119.542 50.6734 120.689C50.2262 121.017 49.7587 121.407 49.2709 121.858C48.8237 122.309 48.3562 122.8 47.8684 123.333C51.1206 124.522 53.7833 126.162 55.8566 128.252C57.9299 130.343 58.9665 132.905 58.9665 135.939C58.9665 137.906 58.4787 139.73 57.503 141.411C56.5274 143.051 55.2265 144.465 53.6004 145.654C52.015 146.843 50.2669 147.765 48.3562 148.421C46.4456 149.077 44.5349 149.405 42.6242 149.405C41.4046 149.405 40.1851 149.241 38.9655 148.913L38.7216 148.851C39.5753 151.147 40.429 153.524 41.2827 155.984C42.1364 158.443 43.0511 160.677 44.0267 162.686C45.043 164.736 46.1407 166.273 47.3196 167.298C47.7668 167.708 48.2139 167.995 48.6611 168.159C49.1489 168.323 49.6368 168.405 50.1246 168.405C50.9783 168.405 51.771 168.179 52.5028 167.728C53.2752 167.277 53.8646 166.683 54.2712 165.945C54.7183 165.207 54.881 164.449 54.759 163.67L55.3078 163.608C55.4704 165.043 55.2468 166.252 54.637 167.236C54.0273 168.22 53.1939 168.958 52.1369 169.45C51.0799 169.942 49.9417 170.188 48.7221 170.188ZM41.9534 148.236C43.6609 148.236 45.2463 148.011 46.7098 147.56C49.027 146.822 50.8767 145.777 52.2589 144.424C53.6817 143.03 54.7183 141.554 55.3688 139.997C56.0192 138.398 56.3444 136.922 56.3444 135.57C56.3444 132.946 55.4704 130.691 53.7224 128.806C52.015 126.92 49.7791 125.424 47.0147 124.317C45.7951 125.793 44.5146 127.494 43.173 129.421C41.8315 131.347 40.5103 133.335 39.2094 135.385C37.9492 137.435 36.7296 139.423 35.5507 141.35C36.0385 142.21 36.506 143.194 36.9532 144.301C37.441 145.408 37.9085 146.576 38.3557 147.806C38.9248 147.97 39.5143 148.093 40.1241 148.175C40.7339 148.216 41.3437 148.236 41.9534 148.236ZM31.2212 142.272C31.5057 141.821 31.7903 141.391 32.0749 140.981C32.3594 140.571 32.644 140.161 32.9286 139.751C32.8473 139.669 32.766 139.607 32.6847 139.566C32.6034 139.484 32.5221 139.423 32.4407 139.382C32.1968 139.259 31.9732 139.197 31.77 139.197C31.4448 139.197 31.2415 139.32 31.1602 139.566C30.9976 139.894 30.9163 140.243 30.9163 140.612C30.9163 141.022 31.0179 141.575 31.2212 142.272ZM35.9775 147.068C35.8149 146.248 35.632 145.49 35.4287 144.793C35.2254 144.055 35.0019 143.379 34.7579 142.764L33.2335 145.223C33.9652 145.879 34.8799 146.494 35.9775 147.068Z" fill="#2D3A53"/>
<path d="M58.24 162.871C57.1831 162.871 56.1871 162.625 55.2521 162.133C54.3171 161.6 53.626 160.759 53.1788 159.612C52.8942 158.874 52.7519 158.033 52.7519 157.091C52.7519 155.943 52.9755 154.816 53.4227 153.709C53.9918 152.356 54.8252 151.024 55.9228 149.712C57.0205 148.4 58.24 147.211 59.5816 146.146C60.9231 145.08 62.2646 144.239 63.6062 143.625C64.9477 142.969 66.147 142.641 67.2039 142.641C68.0983 142.641 68.8097 142.887 69.3382 143.379C69.7041 143.748 69.887 144.28 69.887 144.977C69.887 145.879 69.5415 146.924 68.8504 148.113C68.1999 149.261 67.2649 150.265 66.0453 151.126C65.2729 151.659 64.3582 152.11 63.3013 152.479C62.285 152.807 61.2077 152.971 60.0694 152.971C59.7035 152.971 59.3173 152.95 58.9108 152.909C58.5449 152.868 58.1791 152.807 57.8132 152.725C57.5286 153.053 57.1831 153.586 56.7765 154.324C56.4107 155.02 56.0854 155.799 55.8009 156.66C55.557 157.521 55.435 158.341 55.435 159.12C55.4757 160.186 55.7602 160.944 56.2887 161.395C56.8578 161.805 57.5286 162.01 58.301 162.01C59.8458 162.01 61.3296 161.518 62.7525 160.534C64.216 159.509 65.5372 158.259 66.7161 156.783C67.895 155.307 68.891 153.893 69.7041 152.54C69.826 152.376 69.9277 152.294 70.009 152.294C70.0903 152.254 70.1512 152.233 70.1919 152.233C70.3138 152.233 70.4155 152.294 70.4968 152.417C70.6187 152.54 70.6391 152.704 70.5578 152.909C70.0293 153.77 69.3382 154.795 68.4845 155.984C67.6714 157.173 66.6958 158.32 65.5575 159.427C64.4599 160.493 63.22 161.374 61.8378 162.071C61.3093 162.358 60.7198 162.563 60.0694 162.686C59.4596 162.809 58.8498 162.871 58.24 162.871ZM59.5206 152.11C61.4313 152.11 63.159 151.618 64.7038 150.634C66.2892 149.609 67.4275 148.38 68.1186 146.945C68.3219 146.617 68.4438 146.31 68.4845 146.023C68.5658 145.736 68.6064 145.51 68.6064 145.346C68.6064 144.649 68.2202 144.301 67.4478 144.301C66.96 144.301 66.4112 144.424 65.8014 144.67C65.2323 144.916 64.7241 145.203 64.2769 145.531C63.5045 146.105 62.6915 146.822 61.8378 147.683C61.0247 148.503 60.293 149.323 59.6425 150.142C58.9921 150.921 58.5043 151.536 58.1791 151.987C58.3823 152.028 58.6059 152.069 58.8498 152.11C59.0937 152.11 59.3173 152.11 59.5206 152.11Z" fill="#2D3A53"/>
<path d="M94.3295 163.239C93.1099 163.239 92.2359 162.932 91.7074 162.317C91.1789 161.661 90.9147 160.903 90.9147 160.042C90.9147 159.263 91.057 158.525 91.3415 157.828C92.0733 155.902 92.9473 154.221 93.9636 152.786C95.0206 151.352 96.1182 149.732 97.2565 147.929C97.9069 146.863 98.2321 146.064 98.2321 145.531C98.2321 145.039 97.9882 144.793 97.5004 144.793C96.85 144.793 95.915 145.223 94.6954 146.084C93.4758 146.904 92.2156 148.093 90.9147 149.65C90.0203 150.716 89.0447 151.967 87.9877 153.401C86.9714 154.836 85.9957 156.23 85.0607 157.583C84.1257 158.935 83.3736 160.063 82.8045 160.964C82.2354 161.866 81.9508 162.317 81.9508 162.317C81.7069 162.399 81.3207 162.461 80.7922 162.502C80.2637 162.584 79.7352 162.625 79.2067 162.625C78.8815 162.625 78.5766 162.604 78.2921 162.563C78.0482 162.563 77.8246 162.543 77.6213 162.502C78.0278 161.887 78.597 161.046 79.3287 159.981C80.1011 158.915 80.9142 157.767 81.7679 156.537C82.6622 155.266 83.5159 154.037 84.329 152.848C85.142 151.618 85.8534 150.552 86.4632 149.65C87.073 148.749 87.4795 148.134 87.6828 147.806C88.4146 146.617 88.7804 145.633 88.7804 144.854C88.7804 144.321 88.5568 144.055 88.1097 144.055C87.7438 144.055 87.1747 144.321 86.4023 144.854C85.6299 145.346 84.5932 146.207 83.2923 147.437C82.4386 148.257 81.6052 149.179 80.7922 150.204C79.9791 151.229 79.2067 152.254 78.475 153.278C77.3367 154.795 76.3001 156.25 75.3651 157.644C74.4301 158.997 73.678 160.104 73.1089 160.964C72.5804 161.825 72.2958 162.276 72.2552 162.317C71.9299 162.44 71.5437 162.522 71.0966 162.563C70.69 162.604 70.2835 162.625 69.877 162.625C69.4298 162.625 69.003 162.604 68.5964 162.563C68.2306 162.522 67.9866 162.481 67.8647 162.44C68.3525 161.784 69.003 160.903 69.816 159.796C70.6291 158.689 71.4828 157.48 72.3771 156.168C73.3121 154.816 74.2065 153.483 75.0602 152.172C75.9545 150.86 76.7269 149.671 77.3774 148.605C78.0278 147.539 78.4953 146.72 78.7799 146.146C79.2677 145.039 79.5117 144.28 79.5117 143.871C79.5117 143.42 79.3287 143.194 78.9628 143.194C78.7596 143.194 78.414 143.338 77.9262 143.625C77.3977 143.994 76.7676 144.588 76.0359 145.408C75.3448 146.187 74.6333 147.068 73.9016 148.052C73.1698 149.036 72.4991 149.978 71.8893 150.88C71.2795 151.782 70.812 152.499 70.4868 153.032C70.4055 153.073 70.3038 153.094 70.1819 153.094C70.0193 153.094 69.8973 153.032 69.816 152.909C69.7347 152.786 69.7144 152.643 69.755 152.479C70.0396 152.028 70.5071 151.352 71.1575 150.45C71.808 149.507 72.5194 148.503 73.2918 147.437C74.1049 146.371 74.8773 145.408 75.609 144.547C76.3407 143.645 76.9302 143.03 77.3774 142.702C78.2311 142.087 79.0441 141.78 79.8165 141.78C80.5076 141.78 81.0564 142.026 81.463 142.518C81.8695 142.969 82.0728 143.584 82.0728 144.362C82.0728 145.428 81.8085 146.638 81.28 147.99C81.4833 147.703 81.9101 147.252 82.5606 146.638C83.211 145.982 83.8615 145.346 84.5119 144.731C85.203 144.117 85.6502 143.748 85.8534 143.625C86.5445 143.256 87.195 142.989 87.8048 142.825C88.4552 142.661 89.0447 142.579 89.5732 142.579C90.5895 142.579 91.3009 142.825 91.7074 143.317C91.9513 143.563 92.0733 143.953 92.0733 144.485C92.0733 145.018 91.9513 145.613 91.7074 146.269C91.4635 146.924 91.1789 147.539 90.8537 148.113C91.5855 147.334 92.3579 146.597 93.1709 145.9C93.984 145.203 94.8377 144.588 95.732 144.055C96.5451 143.563 97.2768 143.215 97.9273 143.01C98.6183 142.764 99.2281 142.641 99.7566 142.641C101.342 142.641 102.135 143.461 102.135 145.1C102.135 145.715 101.972 146.433 101.647 147.252C101.362 148.072 100.875 148.933 100.183 149.835C99.4111 150.86 98.4151 152.172 97.1955 153.77C96.0166 155.369 95.0816 156.906 94.3905 158.382C93.9026 159.407 93.6587 160.227 93.6587 160.841C93.6587 161.661 94.0449 162.071 94.8173 162.071C95.4271 162.071 96.2402 161.764 97.2565 161.149C98.4761 160.411 99.7769 159.304 101.159 157.828C102.582 156.353 103.924 154.529 105.184 152.356C105.306 152.233 105.468 152.172 105.672 152.172C106.037 152.172 106.119 152.417 105.915 152.909C104.777 154.795 103.558 156.517 102.257 158.074C100.997 159.632 99.6956 160.882 98.3541 161.825C97.0126 162.768 95.671 163.239 94.3295 163.239Z" fill="#2D3A53"/>
<path d="M116.653 139.935C116.083 139.935 115.636 139.751 115.311 139.382C115.026 139.013 114.884 138.583 114.884 138.091C114.884 137.271 115.169 136.615 115.738 136.123C116.307 135.631 116.917 135.385 117.567 135.385C118.136 135.385 118.584 135.57 118.909 135.939C119.234 136.266 119.397 136.697 119.397 137.23C119.397 138.009 119.112 138.665 118.543 139.197C117.974 139.689 117.344 139.935 116.653 139.935ZM106.53 163.055C105.432 163.055 104.497 162.727 103.725 162.071C102.993 161.374 102.627 160.391 102.627 159.12C102.627 158.464 102.749 157.706 102.993 156.845C103.278 155.943 103.603 155.123 103.969 154.385C104.375 153.606 104.721 152.971 105.006 152.479C105.331 151.987 105.493 151.741 105.493 151.741L111.469 142.825C111.713 142.62 112.018 142.497 112.384 142.456C112.75 142.374 113.136 142.333 113.543 142.333C114.112 142.333 114.6 142.395 115.006 142.518C115.413 142.6 115.575 142.743 115.494 142.948L109.457 151.987C109.335 152.151 108.929 152.725 108.237 153.709C107.587 154.652 106.957 155.697 106.347 156.845C105.575 158.279 105.188 159.509 105.188 160.534C105.188 161.641 105.697 162.194 106.713 162.194C107.038 162.194 107.424 162.133 107.872 162.01C108.359 161.846 108.908 161.6 109.518 161.272C112.079 159.837 114.701 156.927 117.384 152.54C117.506 152.335 117.608 152.233 117.689 152.233C117.811 152.192 117.892 152.172 117.933 152.172C118.136 152.172 118.258 152.254 118.299 152.417C118.38 152.54 118.36 152.704 118.238 152.909C116.774 155.164 115.331 157.111 113.908 158.751C112.526 160.391 111.063 161.579 109.518 162.317C108.502 162.809 107.506 163.055 106.53 163.055Z" fill="#2D3A53"/>
<path d="M132.089 163.178C131.114 163.178 130.28 162.871 129.589 162.256C128.898 161.6 128.552 160.677 128.552 159.489C128.552 158.054 128.959 156.578 129.772 155.061C130.585 153.504 131.54 151.967 132.638 150.45C133.736 148.933 134.691 147.539 135.504 146.269C135.951 145.49 136.175 144.854 136.175 144.362C136.175 143.789 135.911 143.502 135.382 143.502C134.976 143.502 134.366 143.768 133.553 144.301C132.74 144.793 131.703 145.654 130.443 146.883C129.223 148.113 128.044 149.487 126.906 151.003C125.808 152.479 124.792 153.955 123.857 155.43C122.963 156.906 122.17 158.259 121.479 159.489C120.828 160.718 120.341 161.661 120.015 162.317C119.731 162.44 119.365 162.522 118.918 162.563C118.511 162.604 118.084 162.625 117.637 162.625C116.621 162.625 115.95 162.563 115.625 162.44C116.153 161.702 116.845 160.677 117.698 159.366C118.593 158.054 119.528 156.64 120.503 155.123C121.479 153.565 122.373 152.11 123.186 150.757C123.633 149.978 124.121 149.138 124.65 148.236C125.178 147.334 125.625 146.494 125.991 145.715C126.357 144.895 126.54 144.28 126.54 143.871C126.54 143.461 126.378 143.256 126.052 143.256C125.849 143.256 125.585 143.358 125.26 143.563C124.934 143.768 124.629 144.035 124.345 144.362C123.735 144.977 122.942 145.941 121.967 147.252C121.032 148.523 119.792 150.409 118.247 152.909C118.125 153.114 117.922 153.217 117.637 153.217C117.312 153.217 117.231 152.991 117.393 152.54C118.125 151.352 118.877 150.163 119.65 148.974C120.422 147.744 121.194 146.597 121.967 145.531C122.78 144.465 123.532 143.625 124.223 143.01C124.955 142.354 125.727 142.026 126.54 142.026C127.313 142.026 127.902 142.292 128.309 142.825C128.715 143.358 128.918 143.973 128.918 144.67C128.918 145.49 128.735 146.392 128.37 147.375C128.532 147.211 128.674 147.047 128.796 146.883C128.959 146.72 129.122 146.556 129.284 146.392C130.707 144.875 132.089 143.768 133.431 143.071C134.813 142.333 136.012 141.964 137.029 141.964C137.801 141.964 138.451 142.169 138.98 142.579C139.549 142.989 139.834 143.543 139.834 144.239C139.834 145.059 139.549 146.043 138.98 147.191C138.411 148.339 137.76 149.425 137.029 150.45C136.337 151.475 135.768 152.274 135.321 152.848C135.037 153.258 134.488 154.016 133.675 155.123C132.862 156.189 132.171 157.296 131.601 158.443C131.317 158.935 131.114 159.386 130.992 159.796C130.91 160.165 130.87 160.513 130.87 160.841C130.87 161.784 131.296 162.256 132.15 162.256C133.085 162.256 134.244 161.702 135.626 160.595C136.724 159.735 137.842 158.628 138.98 157.275C140.159 155.881 141.277 154.303 142.334 152.54C142.456 152.335 142.578 152.233 142.7 152.233C142.822 152.192 142.903 152.172 142.943 152.172C143.228 152.172 143.309 152.417 143.187 152.909C142.008 154.795 140.769 156.537 139.468 158.136C138.207 159.735 136.927 161.005 135.626 161.948C134.447 162.768 133.268 163.178 132.089 163.178Z" fill="#2D3A53"/>
<path d="M155.028 162.994C154.256 162.994 153.585 162.748 153.016 162.256C152.447 161.764 152.162 160.944 152.162 159.796C152.162 159.222 152.223 158.628 152.345 158.013C152.508 157.357 152.67 156.763 152.833 156.23C152.183 157.091 151.39 158.033 150.455 159.058C149.52 160.083 148.524 160.964 147.467 161.702C146.41 162.44 145.333 162.809 144.235 162.809C143.137 162.809 142.284 162.358 141.674 161.456C141.105 160.554 140.82 159.407 140.82 158.013C140.82 156.373 141.186 154.672 141.918 152.909C142.243 152.172 142.832 151.229 143.686 150.081C144.54 148.933 145.577 147.806 146.796 146.699C148.016 145.592 149.337 144.67 150.76 143.932C152.183 143.153 153.605 142.764 155.028 142.764C156.085 142.764 156.817 143.051 157.223 143.625C157.671 144.157 157.894 144.813 157.894 145.592C157.894 145.961 157.854 146.351 157.772 146.761C157.691 147.129 157.589 147.519 157.467 147.929L165.456 134.709C165.537 134.504 165.984 134.258 166.797 133.971C167.61 133.643 168.322 133.479 168.931 133.479C169.582 133.479 169.907 133.684 169.907 134.094C169.907 134.422 169.744 134.832 169.419 135.324L161.98 147.252C161.777 147.58 161.39 148.175 160.821 149.036C160.252 149.855 159.622 150.819 158.931 151.926C158.28 153.032 157.63 154.16 156.98 155.307C156.939 155.43 156.756 155.799 156.431 156.414C156.106 157.029 155.78 157.706 155.455 158.443C155.049 159.386 154.845 160.165 154.845 160.78C154.845 161.6 155.191 162.01 155.882 162.01C156.573 162.01 157.366 161.641 158.26 160.903C159.033 160.288 159.805 159.55 160.577 158.689C161.35 157.828 162.061 156.947 162.712 156.045C163.403 155.143 163.951 154.365 164.358 153.709C164.805 153.012 165.09 152.561 165.212 152.356C165.334 152.192 165.476 152.11 165.639 152.11C166.004 152.11 166.147 152.294 166.065 152.663C165.74 153.237 165.212 154.098 164.48 155.246C163.789 156.394 162.935 157.562 161.919 158.751C160.943 159.94 159.886 160.923 158.748 161.702C158.219 162.071 157.61 162.379 156.919 162.625C156.268 162.871 155.638 162.994 155.028 162.994ZM144.723 161.764C145.658 161.764 146.633 161.354 147.65 160.534C148.707 159.714 149.743 158.669 150.76 157.398C151.817 156.127 152.772 154.795 153.626 153.401C154.479 152.008 155.171 150.716 155.699 149.528C156.268 148.339 156.614 147.437 156.736 146.822C156.776 146.617 156.797 146.433 156.797 146.269C156.837 146.064 156.858 145.879 156.858 145.715C156.858 144.321 156.37 143.625 155.394 143.625C154.744 143.625 153.992 143.912 153.138 144.485C152.284 145.059 151.41 145.797 150.516 146.699C149.662 147.601 148.849 148.585 148.077 149.65C147.345 150.675 146.755 151.68 146.308 152.663C146.186 152.909 145.881 153.504 145.394 154.447C144.946 155.389 144.499 156.414 144.052 157.521C143.646 158.628 143.442 159.591 143.442 160.411C143.442 161.313 143.869 161.764 144.723 161.764Z" fill="#2D3A53"/>
<path d="M171.495 174C168.934 174 166.82 173.549 165.154 172.647C163.487 171.745 162.247 170.577 161.434 169.142C160.621 167.708 160.214 166.232 160.214 164.715C160.214 163.485 160.418 162.379 160.824 161.395C161.637 159.468 163.101 157.787 165.215 156.353C167.328 154.918 169.91 154.201 172.959 154.201C173.325 154.201 173.691 154.221 174.056 154.262C174.463 154.303 174.829 154.365 175.154 154.447C175.601 154.406 176.028 154.262 176.435 154.016C176.841 153.729 177.146 153.483 177.349 153.278C177.553 153.032 177.715 152.786 177.837 152.54C177.959 152.254 178.02 152.008 178.02 151.803C178.02 151.516 177.918 151.311 177.715 151.188C177.593 151.106 177.532 151.024 177.532 150.942C177.532 150.655 177.797 150.593 178.325 150.757C179.097 151.003 179.484 151.495 179.484 152.233C179.484 152.93 179.118 153.524 178.386 154.016C178.101 154.262 177.756 154.447 177.349 154.57C176.983 154.652 176.597 154.693 176.191 154.693C177.573 155.102 178.833 155.82 179.971 156.845L178.935 156.722C179.463 156.558 178.833 156.353 179.484 156.722C179.199 155.902 180.134 157.091 179.484 156.722C179.687 157.337 179.077 155.911 179.077 156.607C179.077 157.345 179.728 156.025 179.484 156.722C179.28 157.419 179.971 156.435 179.484 156.722C178.996 157.009 179.199 156.853 179.077 156.607C179.362 156.362 179.161 156.742 179.161 156.414C179.161 156.086 179.484 156.876 179.24 156.507C179.036 156.179 179.179 156.771 178.935 156.607C178.691 156.403 179.577 156.853 179.293 156.607C179.008 156.321 179.484 157.04 179.24 156.507C179.036 156.097 179.293 156.976 179.293 156.607C179.293 156.075 178.914 157.457 179.24 157.047C177.166 155.366 174.951 154.939 172.227 155.184C170.032 155.389 168.182 155.984 166.678 156.968C165.174 157.91 164.036 159.079 163.263 160.472C162.491 161.866 162.105 163.321 162.105 164.838C162.105 166.847 162.755 168.63 164.056 170.188L163.934 170.003C163.649 169.429 163.507 168.753 163.507 167.974C163.507 167.482 163.568 167.031 163.69 166.621C164.219 165.269 164.971 164.592 165.946 164.592C166.597 164.592 167.125 164.9 167.532 165.515C167.694 165.72 167.776 165.945 167.776 166.191C167.776 166.56 167.613 166.621 167.288 166.375C167.003 166.17 166.637 166.191 166.19 166.437C165.743 166.724 165.357 167.113 165.032 167.605C164.869 167.81 164.727 168.118 164.605 168.528C164.483 168.937 164.422 169.368 164.422 169.819C164.422 170.065 164.462 170.352 164.544 170.68C165.316 171.458 166.251 172.073 167.349 172.524C168.446 172.975 169.727 173.201 171.19 173.201C173.304 173.201 175.398 172.668 177.471 171.602C179.545 170.577 181.557 169.204 183.508 167.482C185.46 165.761 187.33 163.834 189.118 161.702C190.907 159.571 192.594 157.398 194.179 155.184C195.765 152.93 197.208 150.798 198.509 148.79C199.851 146.781 201.009 145.059 201.985 143.625C204.017 140.591 206.131 137.681 208.327 134.893C210.522 132.106 212.859 129.851 215.339 128.129C212.493 127.187 209.465 126.182 206.253 125.117C203.082 124.051 199.871 123.272 196.619 122.78C195.643 122.575 194.708 122.452 193.814 122.411C193.854 122.452 193.814 122.452 193.692 122.411C193.163 122.329 192.696 122.452 192.289 122.78C191.883 123.067 191.598 123.333 191.435 123.579C191.151 124.071 191.009 124.522 191.009 124.932C191.009 125.301 191.131 125.547 191.374 125.67C191.578 125.752 191.679 125.854 191.679 125.977C191.679 126.141 191.537 126.223 191.253 126.223C190.927 126.223 190.541 126.1 190.094 125.854C189.687 125.608 189.484 125.219 189.484 124.686C189.484 124.153 189.687 123.661 190.094 123.21C190.541 122.759 191.09 122.452 191.74 122.288C188.447 122.206 185.602 122.595 183.203 123.456C180.805 124.317 178.833 125.465 177.288 126.9C175.744 128.293 174.585 129.851 173.813 131.573C173.975 131.573 173.415 131.368 173.415 131.573C173.374 132.434 172.736 131.04 172.98 131.573C173.223 132.106 172.361 130.485 172.767 130.936C173.011 130.485 172.097 131.163 172.544 130.958C172.991 130.753 170.825 134.647 171.312 134.647C171.719 134.647 171.388 133.848 171.673 133.971C172.364 134.217 171.743 132.562 172.108 132.89C172.515 133.177 172.259 130.806 172.544 131.134C172.747 131.38 171.702 132.246 172.108 132.451C172.515 132.656 172.178 131.134 172.544 131.134C173.113 131.134 172.979 132.516 173.264 132.065C173.386 132.188 172.593 131.634 172.593 131.88C172.593 132.495 173.154 131.561 172.544 132.012C171.975 132.463 173.512 130.712 172.658 130.958C171.845 131.204 173.793 130.694 172.98 130.694C171.516 130.694 174.117 131.288 173.264 130.427C172.451 129.525 173.253 131.912 173.415 131.134L173.851 131.573C173.813 131.843 173.415 132.451 173.415 132.89C172.98 132.451 173.648 131.88 173.264 132.926C173.25 132.963 172.593 135.713 172.593 136.984C172.593 138.665 172.939 140.263 173.63 141.78C174.321 143.256 175.337 144.444 176.679 145.346C178.02 146.248 179.646 146.699 181.557 146.699C183.468 146.699 185.317 146.207 187.106 145.223C188.895 144.198 190.338 142.825 191.435 141.104C192.533 139.341 193.001 137.353 192.838 135.139C192.797 134.442 192.553 133.725 192.106 132.987C191.7 132.249 191.09 131.88 190.277 131.88C190.074 131.88 189.85 131.921 189.606 132.003C189.362 132.085 189.2 132.229 189.118 132.434C189.078 132.557 188.996 132.618 188.874 132.618C188.671 132.618 188.569 132.434 188.569 132.065C188.569 131.491 188.773 131.019 189.179 130.65C189.626 130.282 190.114 130.097 190.643 130.097C191.212 130.097 191.761 130.384 192.289 130.958C192.858 131.532 193.163 132.536 193.204 133.971C193.326 133.602 193.488 133.233 193.692 132.864C194.139 132.249 194.667 131.942 195.277 131.942C195.928 131.942 196.354 132.249 196.558 132.864C196.639 133.11 196.639 133.294 196.558 133.417C196.476 133.54 196.354 133.52 196.192 133.356C196.07 133.233 195.928 133.172 195.765 133.172C195.44 133.172 195.013 133.356 194.484 133.725C194.362 133.848 194.22 134.032 194.058 134.278C193.895 134.524 193.773 134.811 193.692 135.139C193.773 137.64 193.305 139.792 192.289 141.595C191.273 143.399 189.952 144.813 188.326 145.838C188.529 145.797 188.712 145.777 188.874 145.777C189.037 145.736 189.2 145.715 189.362 145.715C190.175 145.715 190.826 145.941 191.313 146.392C191.842 146.802 192.106 147.252 192.106 147.744C192.106 148.277 191.842 148.728 191.313 149.097C191.029 149.261 190.805 149.323 190.643 149.282C190.48 149.2 190.48 149.056 190.643 148.851C190.846 148.605 190.826 148.298 190.582 147.929C190.378 147.56 190.074 147.232 189.667 146.945C189.22 146.576 188.61 146.392 187.838 146.392C187.756 146.392 187.655 146.392 187.533 146.392C187.411 146.392 187.309 146.412 187.228 146.453C185.48 147.273 183.63 147.683 181.679 147.683C179.199 147.683 177.085 147.191 175.337 146.207C173.63 145.182 172.288 143.912 171.312 142.395C171.312 142.641 172.19 142.225 172.108 142.553C171.865 143.332 172.718 142.418 172.108 142.992C172.312 143.402 172.544 142.541 172.544 142.992C172.544 144.017 173.398 142.57 172.544 143.431C172.056 143.964 173.915 143.021 172.98 143.431C172.045 143.8 173.813 143.465 172.959 143.465C172.268 143.465 173.406 143.793 172.959 143.465C172.674 143.26 173.02 144.035 172.98 143.871C172.939 143.666 171.632 143.033 171.673 142.992C171.795 143.074 170.993 140.357 171.237 140.357C170.871 140.808 171.725 140.357 171.237 140.357C171.644 139.865 170.846 141.425 170.927 141.016C171.009 140.606 170.639 140.808 170.802 140.357C170.964 139.906 170.831 141.288 171.237 140.796C171.237 140.796 172.108 142.114 170.802 141.675C171.452 141.675 170.395 139.947 170.802 140.357C171.208 139.865 172.544 141.235 171.673 141.78C172.108 142.114 171.673 142.319 171.673 142.114C171.714 141.909 170.802 141.944 170.802 141.78C170.802 141.411 170.621 141.083 170.581 140.919C169.971 139.443 169.666 137.865 169.666 136.184C169.666 134.75 169.89 133.315 170.337 131.88C170.825 130.405 171.556 129.031 172.532 127.761C172.369 127.802 173.466 126.859 173.223 126.9C173.019 126.9 174.987 126.72 174.784 126.72C174.256 126.72 174.379 127.386 173.851 127.181C173.363 126.976 175.024 127.168 174.618 126.758C174.425 126.792 174.496 126.799 174.618 126.758C174.049 126.758 175.157 126.742 174.673 126.408C174.063 125.957 175.157 126.302 174.835 126.408C174.84 126.561 174.618 127.373 174.586 126.9C174.618 126.608 174.618 126.9 174.722 126.742C174.663 126.965 174.722 127.62 174.159 127.498C174.485 127.293 174.159 127.719 173.851 127.62C174.013 127.661 174.641 127.14 174.722 127.181C174.397 127.468 173.851 126.73 173.851 127.181C173.851 127.591 174.16 126.428 174.404 126.838C174.648 127.207 173.755 126.66 174.039 126.865C174.365 127.111 174.261 126.572 174.586 126.9C174.286 128.059 173.875 126.184 174.159 126.758C174.363 127.25 174.984 125.491 174.984 125.901C174.984 126.885 175.118 126.264 174.427 126.756C174.996 127.248 174.049 126.408 174.984 126.408L174.286 127.498C174.855 127.498 172.715 127.043 173.325 126.838C174.91 125.035 177.024 123.559 179.667 122.411C182.309 121.263 185.52 120.689 189.301 120.689C190.236 120.689 191.192 120.73 192.167 120.812C193.143 120.894 194.139 121.017 195.155 121.181C197.31 121.509 199.647 122.042 202.168 122.78C204.729 123.518 207.249 124.297 209.729 125.117C212.209 125.936 214.424 126.695 216.376 127.392C217.555 126.695 218.754 126.141 219.974 125.731C221.193 125.321 222.453 125.117 223.754 125.117C224.893 125.117 225.746 125.362 226.315 125.854C226.925 126.346 227.23 126.9 227.23 127.515C227.23 128.17 226.864 128.765 226.132 129.298C225.441 129.831 224.344 130.077 222.84 130.036C221.742 131.675 220.746 133.479 219.852 135.447C218.957 137.414 218.144 139.382 217.412 141.35C216.721 143.317 216.132 145.141 215.644 146.822C215.034 148.913 214.363 150.901 213.632 152.786C212.941 154.672 211.884 156.394 210.461 157.951C212.981 156.025 215.278 153.811 217.351 151.311C219.465 148.81 221.376 146.248 223.083 143.625C224.222 141.862 225.604 139.874 227.23 137.66C228.856 135.406 230.645 133.151 232.596 130.896C234.547 128.601 236.56 126.469 238.633 124.502C240.747 122.493 242.861 120.853 244.975 119.583C247.089 118.271 249.101 117.533 251.012 117.369C251.256 117.328 251.5 117.307 251.744 117.307C251.987 117.307 252.211 117.307 252.414 117.307C254.772 117.307 256.459 117.82 257.476 118.845C258.492 119.828 259 120.894 259 122.042C259 122.78 258.797 123.477 258.39 124.133C257.984 124.748 257.435 125.178 256.744 125.424L256.622 124.809C257.597 124.235 258.085 123.415 258.085 122.35C258.085 121.53 257.719 120.771 256.988 120.074C256.297 119.378 255.24 119.029 253.817 119.029C253.085 119.029 252.252 119.152 251.317 119.398C249.853 119.808 248.227 120.648 246.438 121.919C244.65 123.19 242.78 124.707 240.828 126.469C238.918 128.232 237.027 130.118 235.157 132.126C233.328 134.094 231.621 136 230.035 137.845C228.45 139.689 227.088 141.309 225.949 142.702C224.852 144.096 224.079 145.1 223.632 145.715C222.901 146.74 221.966 147.97 220.827 149.405C219.73 150.839 218.469 152.315 217.047 153.832C215.664 155.307 214.201 156.701 212.656 158.013C211.111 159.284 209.546 160.329 207.961 161.149C206.375 161.928 204.83 162.317 203.326 162.317C202.513 162.317 202.107 162.235 202.107 162.071C202.107 161.866 202.371 161.641 202.899 161.395C203.428 161.149 203.773 160.944 203.936 160.78C204.139 160.616 204.485 160.124 204.973 159.304C205.461 158.484 206.03 157.501 206.68 156.353C207.371 155.164 208.062 153.934 208.753 152.663C209.485 151.393 210.136 150.224 210.705 149.159C211.274 148.052 211.701 147.17 211.985 146.515C212.229 146.023 212.676 145.141 213.327 143.871C213.977 142.559 214.77 141.083 215.705 139.443C216.64 137.763 217.616 136.082 218.632 134.401C219.689 132.68 220.726 131.183 221.742 129.913C221.457 129.872 221.132 129.81 220.766 129.728C220.4 129.646 220.014 129.564 219.608 129.482L217.839 128.929C216.538 130.036 215.258 131.347 213.998 132.864C212.737 134.381 211.558 135.939 210.461 137.537C209.404 139.095 208.449 140.571 207.595 141.964C206.741 143.358 206.05 144.485 205.522 145.346C204.302 147.437 202.798 149.753 201.009 152.294C199.22 154.836 197.208 157.378 194.972 159.919C192.736 162.461 190.338 164.797 187.777 166.929C185.256 169.06 182.614 170.762 179.849 172.032C177.085 173.344 174.3 174 171.495 174ZM223.998 129.052C224.689 129.011 225.238 128.826 225.645 128.498C226.051 128.17 226.254 127.802 226.254 127.392C226.254 127.023 226.051 126.695 225.645 126.408C225.279 126.121 224.649 125.977 223.754 125.977C222.982 126.018 222.169 126.244 221.315 126.654C220.461 127.023 219.608 127.535 218.754 128.191C219.445 128.437 220.075 128.621 220.644 128.744C221.213 128.867 221.844 128.949 222.535 128.99C222.819 128.662 223.083 128.375 223.327 128.129C223.612 127.843 223.897 127.617 224.181 127.453L224.547 127.638C224.384 127.843 224.222 128.068 224.059 128.314C223.897 128.56 223.714 128.806 223.51 129.052H223.998ZM228.815 167.421C227.962 167.421 227.189 167.154 226.498 166.621C225.97 166.252 225.584 165.699 225.34 164.961C225.096 164.223 224.974 163.403 224.974 162.502C224.974 161.764 225.035 160.985 225.157 160.165C225.319 159.345 225.523 158.505 225.767 157.644C226.458 155.266 227.515 152.643 228.937 149.773C230.401 146.904 232.068 143.994 233.938 141.042C235.808 138.091 237.779 135.324 239.853 132.741C241.967 130.118 244.02 127.883 246.012 126.039L246.377 126.469C245.036 128.109 243.674 130.036 242.292 132.249C240.95 134.422 239.629 136.738 238.328 139.197C237.068 141.657 235.869 144.137 234.73 146.638C233.633 149.097 232.677 151.454 231.864 153.709C231.824 153.832 231.661 154.262 231.377 155C231.133 155.738 230.848 156.66 230.523 157.767C230.238 158.833 229.974 159.919 229.73 161.026C229.486 162.133 229.364 163.096 229.364 163.916C229.364 164.49 229.446 164.961 229.608 165.33C229.771 165.699 230.035 165.883 230.401 165.883C230.767 165.883 231.255 165.699 231.864 165.33C232.149 165.125 232.413 164.92 232.657 164.715C232.901 164.551 233.145 164.346 233.389 164.1L233.877 164.654C233.308 165.31 232.556 165.924 231.621 166.498C230.726 167.113 229.791 167.421 228.815 167.421Z" fill="#2D3A53"/>
<path d="M243.737 162.871C242.68 162.871 241.684 162.625 240.749 162.133C239.814 161.6 239.123 160.759 238.676 159.612C238.391 158.874 238.249 158.033 238.249 157.091C238.249 155.943 238.473 154.816 238.92 153.709C239.489 152.356 240.322 151.024 241.42 149.712C242.518 148.4 243.737 147.211 245.079 146.146C246.42 145.08 247.762 144.239 249.103 143.625C250.445 142.969 251.644 142.641 252.701 142.641C253.595 142.641 254.307 142.887 254.835 143.379C255.201 143.748 255.384 144.28 255.384 144.977C255.384 145.879 255.039 146.924 254.348 148.113C253.697 149.261 252.762 150.265 251.542 151.126C250.77 151.659 249.855 152.11 248.798 152.479C247.782 152.807 246.705 152.971 245.567 152.971C245.201 152.971 244.814 152.95 244.408 152.909C244.042 152.868 243.676 152.807 243.31 152.725C243.026 153.053 242.68 153.586 242.274 154.324C241.908 155.02 241.583 155.799 241.298 156.66C241.054 157.521 240.932 158.341 240.932 159.12C240.973 160.186 241.257 160.944 241.786 161.395C242.355 161.805 243.026 162.01 243.798 162.01C245.343 162.01 246.827 161.518 248.25 160.534C249.713 159.509 251.034 158.259 252.213 156.783C253.392 155.307 254.388 153.893 255.201 152.54C255.323 152.376 255.425 152.294 255.506 152.294C255.587 152.254 255.648 152.233 255.689 152.233C255.811 152.233 255.913 152.294 255.994 152.417C256.116 152.54 256.136 152.704 256.055 152.909C255.526 153.77 254.835 154.795 253.982 155.984C253.169 157.173 252.193 158.32 251.055 159.427C249.957 160.493 248.717 161.374 247.335 162.071C246.806 162.358 246.217 162.563 245.567 162.686C244.957 162.809 244.347 162.871 243.737 162.871ZM245.018 152.11C246.928 152.11 248.656 151.618 250.201 150.634C251.786 149.609 252.925 148.38 253.616 146.945C253.819 146.617 253.941 146.31 253.982 146.023C254.063 145.736 254.104 145.51 254.104 145.346C254.104 144.649 253.717 144.301 252.945 144.301C252.457 144.301 251.908 144.424 251.299 144.67C250.729 144.916 250.221 145.203 249.774 145.531C249.002 146.105 248.189 146.822 247.335 147.683C246.522 148.503 245.79 149.323 245.14 150.142C244.489 150.921 244.001 151.536 243.676 151.987C243.879 152.028 244.103 152.069 244.347 152.11C244.591 152.11 244.814 152.11 245.018 152.11Z" fill="#2D3A53"/>
<path d="M172.108 141.675L171.673 142.553C171.673 142.553 171.843 143.164 171.673 142.992C171.503 142.821 170.802 141.675 170.802 141.675H172.108Z" fill="#2D3A53"/>
<path d="M173.415 142.992H172.544L172.108 143.431L172.544 143.871H173.415V142.992Z" fill="#2D3A53"/>
<path d="M173.851 129.816H172.544V130.694H171.673V131.573V133.33H170.802V135.086H172.544V134.208V132.451H173.415V131.573H173.851V129.816Z" fill="#2D3A53"/>
<defs>
<filter id="filter0_i_131_7052" x="144" y="-1" width="48" height="49" filterUnits="userSpaceOnUse" color-interpolation-filters="sRGB">
<feFlood flood-opacity="0" result="BackgroundImageFix"/>
<feBlend mode="normal" in="SourceGraphic" in2="BackgroundImageFix" result="shape"/>
<feColorMatrix in="SourceAlpha" type="matrix" values="0 0 0 0 0 0 0 0 0 0 0 0 0 0 0 0 0 0 127 0" result="hardAlpha"/>
<feOffset dy="-6"/>
<feGaussianBlur stdDeviation="0.5"/>
<feComposite in2="hardAlpha" operator="arithmetic" k2="-1" k3="1"/>
<feColorMatrix type="matrix" values="0 0 0 0 0.388235 0 0 0 0 0.72549 0 0 0 0 0.866667 0 0 0 1 0"/>
<feBlend mode="normal" in2="shape" result="effect1_innerShadow_131_7052"/>
</filter>
<filter id="filter1_i_131_7052" x="234" y="302" width="40" height="41" filterUnits="userSpaceOnUse" color-interpolation-filters="sRGB">
<feFlood flood-opacity="0" result="BackgroundImageFix"/>
<feBlend mode="normal" in="SourceGraphic" in2="BackgroundImageFix" result="shape"/>
<feColorMatrix in="SourceAlpha" type="matrix" values="0 0 0 0 0 0 0 0 0 0 0 0 0 0 0 0 0 0 127 0" result="hardAlpha"/>
<feOffset dy="-6"/>
<feGaussianBlur stdDeviation="0.5"/>
<feComposite in2="hardAlpha" operator="arithmetic" k2="-1" k3="1"/>
<feColorMatrix type="matrix" values="0 0 0 0 0.388235 0 0 0 0 0.72549 0 0 0 0 0.866667 0 0 0 1 0"/>
<feBlend mode="normal" in2="shape" result="effect1_innerShadow_131_7052"/>
</filter>
<filter id="filter2_i_131_7052" x="235" y="69" width="42" height="43" filterUnits="userSpaceOnUse" color-interpolation-filters="sRGB">
<feFlood flood-opacity="0" result="BackgroundImageFix"/>
<feBlend mode="normal" in="SourceGraphic" in2="BackgroundImageFix" result="shape"/>
<feColorMatrix in="SourceAlpha" type="matrix" values="0 0 0 0 0 0 0 0 0 0 0 0 0 0 0 0 0 0 127 0" result="hardAlpha"/>
<feOffset dy="-6"/>
<feGaussianBlur stdDeviation="0.5"/>
<feComposite in2="hardAlpha" operator="arithmetic" k2="-1" k3="1"/>
<feColorMatrix type="matrix" values="0 0 0 0 0.388235 0 0 0 0 0.72549 0 0 0 0 0.866667 0 0 0 1 0"/>
<feBlend mode="normal" in2="shape" result="effect1_innerShadow_131_7052"/>
</filter>
<filter id="filter3_i_131_7052" x="15" y="186" width="38" height="39" filterUnits="userSpaceOnUse" color-interpolation-filters="sRGB">
<feFlood flood-opacity="0" result="BackgroundImageFix"/>
<feBlend mode="normal" in="SourceGraphic" in2="BackgroundImageFix" result="shape"/>
<feColorMatrix in="SourceAlpha" type="matrix" values="0 0 0 0 0 0 0 0 0 0 0 0 0 0 0 0 0 0 127 0" result="hardAlpha"/>
<feOffset dy="-6"/>
<feGaussianBlur stdDeviation="0.5"/>
<feComposite in2="hardAlpha" operator="arithmetic" k2="-1" k3="1"/>
<feColorMatrix type="matrix" values="0 0 0 0 0.388235 0 0 0 0 0.72549 0 0 0 0 0.866667 0 0 0 1 0"/>
<feBlend mode="normal" in2="shape" result="effect1_innerShadow_131_7052"/>
</filter>
<filter id="filter4_i_131_7052" x="130.519" y="289.223" width="19.9704" height="24.3951" filterUnits="userSpaceOnUse" color-interpolation-filters="sRGB">
<feFlood flood-opacity="0" result="BackgroundImageFix"/>
<feBlend mode="normal" in="SourceGraphic" in2="BackgroundImageFix" result="shape"/>
<feColorMatrix in="SourceAlpha" type="matrix" values="0 0 0 0 0 0 0 0 0 0 0 0 0 0 0 0 0 0 127 0" result="hardAlpha"/>
<feOffset dy="-7"/>
<feGaussianBlur stdDeviation="4"/>
<feComposite in2="hardAlpha" operator="arithmetic" k2="-1" k3="1"/>
<feColorMatrix type="matrix" values="0 0 0 0 0.495 0 0 0 0 0.181087 0 0 0 0 0.181087 0 0 0 0.47 0"/>
<feBlend mode="normal" in2="shape" result="effect1_innerShadow_131_7052"/>
</filter>
<filter id="filter5_i_131_7052" x="159.473" y="295.54" width="17.8946" height="19.6915" filterUnits="userSpaceOnUse" color-interpolation-filters="sRGB">
<feFlood flood-opacity="0" result="BackgroundImageFix"/>
<feBlend mode="normal" in="SourceGraphic" in2="BackgroundImageFix" result="shape"/>
<feColorMatrix in="SourceAlpha" type="matrix" values="0 0 0 0 0 0 0 0 0 0 0 0 0 0 0 0 0 0 127 0" result="hardAlpha"/>
<feOffset dy="-7"/>
<feGaussianBlur stdDeviation="4"/>
<feComposite in2="hardAlpha" operator="arithmetic" k2="-1" k3="1"/>
<feColorMatrix type="matrix" values="0 0 0 0 0.495 0 0 0 0 0.181087 0 0 0 0 0.181087 0 0 0 0.47 0"/>
<feBlend mode="normal" in2="shape" result="effect1_innerShadow_131_7052"/>
</filter>
<filter id="filter6_i_131_7052" x="128.174" y="221" width="55.4895" height="51.1369" filterUnits="userSpaceOnUse" color-interpolation-filters="sRGB">
<feFlood flood-opacity="0" result="BackgroundImageFix"/>
<feBlend mode="normal" in="SourceGraphic" in2="BackgroundImageFix" result="shape"/>
<feColorMatrix in="SourceAlpha" type="matrix" values="0 0 0 0 0 0 0 0 0 0 0 0 0 0 0 0 0 0 127 0" result="hardAlpha"/>
<feOffset dy="-7"/>
<feGaussianBlur stdDeviation="4"/>
<feComposite in2="hardAlpha" operator="arithmetic" k2="-1" k3="1"/>
<feColorMatrix type="matrix" values="0 0 0 0 0.495 0 0 0 0 0.181087 0 0 0 0 0.181087 0 0 0 0.47 0"/>
<feBlend mode="normal" in2="shape" result="effect1_innerShadow_131_7052"/>
</filter>
<filter id="filter7_i_131_7052" x="118.905" y="249.53" width="78.9977" height="54.6588" filterUnits="userSpaceOnUse" color-interpolation-filters="sRGB">
<feFlood flood-opacity="0" result="BackgroundImageFix"/>
<feBlend mode="normal" in="SourceGraphic" in2="BackgroundImageFix" result="shape"/>
<feColorMatrix in="SourceAlpha" type="matrix" values="0 0 0 0 0 0 0 0 0 0 0 0 0 0 0 0 0 0 127 0" result="hardAlpha"/>
<feOffset dy="-7"/>
<feGaussianBlur stdDeviation="4"/>
<feComposite in2="hardAlpha" operator="arithmetic" k2="-1" k3="1"/>
<feColorMatrix type="matrix" values="0 0 0 0 0.495 0 0 0 0 0.181087 0 0 0 0 0.181087 0 0 0 0.47 0"/>
<feBlend mode="normal" in2="shape" result="effect1_innerShadow_131_7052"/>
</filter>
<filter id="filter8_i_131_7052" x="61" y="259.78" width="61.585" height="73.8698" filterUnits="userSpaceOnUse" color-interpolation-filters="sRGB">
<feFlood flood-opacity="0" result="BackgroundImageFix"/>
<feBlend mode="normal" in="SourceGraphic" in2="BackgroundImageFix" result="shape"/>
<feColorMatrix in="SourceAlpha" type="matrix" values="0 0 0 0 0 0 0 0 0 0 0 0 0 0 0 0 0 0 127 0" result="hardAlpha"/>
<feOffset dy="-7"/>
<feGaussianBlur stdDeviation="4"/>
<feComposite in2="hardAlpha" operator="arithmetic" k2="-1" k3="1"/>
<feColorMatrix type="matrix" values="0 0 0 0 0.495 0 0 0 0 0.181087 0 0 0 0 0.181087 0 0 0 0.47 0"/>
<feBlend mode="normal" in2="shape" result="effect1_innerShadow_131_7052"/>
</filter>
<filter id="filter9_i_131_7052" x="176.389" y="281.895" width="20.4715" height="36.754" filterUnits="userSpaceOnUse" color-interpolation-filters="sRGB">
<feFlood flood-opacity="0" result="BackgroundImageFix"/>
<feBlend mode="normal" in="SourceGraphic" in2="BackgroundImageFix" result="shape"/>
<feColorMatrix in="SourceAlpha" type="matrix" values="0 0 0 0 0 0 0 0 0 0 0 0 0 0 0 0 0 0 127 0" result="hardAlpha"/>
<feOffset dy="-7"/>
<feGaussianBlur stdDeviation="4"/>
<feComposite in2="hardAlpha" operator="arithmetic" k2="-1" k3="1"/>
<feColorMatrix type="matrix" values="0 0 0 0 0.495 0 0 0 0 0.181087 0 0 0 0 0.181087 0 0 0 0.47 0"/>
<feBlend mode="normal" in2="shape" result="effect1_innerShadow_131_7052"/>
</filter>
<filter id="filter10_f_131_7052" x="171.099" y="261.243" width="5.52832" height="10.5805" filterUnits="userSpaceOnUse" color-interpolation-filters="sRGB">
<feFlood flood-opacity="0" result="BackgroundImageFix"/>
<feBlend mode="normal" in="SourceGraphic" in2="BackgroundImageFix" result="shape"/>
<feGaussianBlur stdDeviation="0.5" result="effect1_foregroundBlur_131_7052"/>
</filter>
<filter id="filter11_f_131_7052" x="174.257" y="276.404" width="5.52832" height="10.5805" filterUnits="userSpaceOnUse" color-interpolation-filters="sRGB">
<feFlood flood-opacity="0" result="BackgroundImageFix"/>
<feBlend mode="normal" in="SourceGraphic" in2="BackgroundImageFix" result="shape"/>
<feGaussianBlur stdDeviation="0.5" result="effect1_foregroundBlur_131_7052"/>
</filter>
<filter id="filter12_f_131_7052" x="167.94" y="271.982" width="5.52832" height="10.5805" filterUnits="userSpaceOnUse" color-interpolation-filters="sRGB">
<feFlood flood-opacity="0" result="BackgroundImageFix"/>
<feBlend mode="normal" in="SourceGraphic" in2="BackgroundImageFix" result="shape"/>
<feGaussianBlur stdDeviation="0.5" result="effect1_foregroundBlur_131_7052"/>
</filter>
<filter id="filter13_f_131_7052" x="162.887" y="257.453" width="5.52832" height="10.5805" filterUnits="userSpaceOnUse" color-interpolation-filters="sRGB">
<feFlood flood-opacity="0" result="BackgroundImageFix"/>
<feBlend mode="normal" in="SourceGraphic" in2="BackgroundImageFix" result="shape"/>
<feGaussianBlur stdDeviation="0.5" result="effect1_foregroundBlur_131_7052"/>
</filter>
<filter id="filter14_f_131_7052" x="155.938" y="261.243" width="5.52832" height="10.5805" filterUnits="userSpaceOnUse" color-interpolation-filters="sRGB">
<feFlood flood-opacity="0" result="BackgroundImageFix"/>
<feBlend mode="normal" in="SourceGraphic" in2="BackgroundImageFix" result="shape"/>
<feGaussianBlur stdDeviation="0.5" result="effect1_foregroundBlur_131_7052"/>
</filter>
<filter id="filter15_f_131_7052" x="146.463" y="263.77" width="5.52832" height="10.5805" filterUnits="userSpaceOnUse" color-interpolation-filters="sRGB">
<feFlood flood-opacity="0" result="BackgroundImageFix"/>
<feBlend mode="normal" in="SourceGraphic" in2="BackgroundImageFix" result="shape"/>
<feGaussianBlur stdDeviation="0.5" result="effect1_foregroundBlur_131_7052"/>
</filter>
<filter id="filter16_f_131_7052" x="137.619" y="274.509" width="5.52832" height="10.5805" filterUnits="userSpaceOnUse" color-interpolation-filters="sRGB">
<feFlood flood-opacity="0" result="BackgroundImageFix"/>
<feBlend mode="normal" in="SourceGraphic" in2="BackgroundImageFix" result="shape"/>
<feGaussianBlur stdDeviation="0.5" result="effect1_foregroundBlur_131_7052"/>
</filter>
<filter id="filter17_f_131_7052" x="131.934" y="275.456" width="5.21123" height="9.31714" filterUnits="userSpaceOnUse" color-interpolation-filters="sRGB">
<feFlood flood-opacity="0" result="BackgroundImageFix"/>
<feBlend mode="normal" in="SourceGraphic" in2="BackgroundImageFix" result="shape"/>
<feGaussianBlur stdDeviation="0.5" result="effect1_foregroundBlur_131_7052"/>
</filter>
<filter id="filter18_f_131_7052" x="140.146" y="266.297" width="5.52832" height="10.5805" filterUnits="userSpaceOnUse" color-interpolation-filters="sRGB">
<feFlood flood-opacity="0" result="BackgroundImageFix"/>
<feBlend mode="normal" in="SourceGraphic" in2="BackgroundImageFix" result="shape"/>
<feGaussianBlur stdDeviation="0.5" result="effect1_foregroundBlur_131_7052"/>
</filter>
<filter id="filter19_f_131_7052" x="125.93" y="276.72" width="4.5815" height="7.10608" filterUnits="userSpaceOnUse" color-interpolation-filters="sRGB">
<feFlood flood-opacity="0" result="BackgroundImageFix"/>
<feBlend mode="normal" in="SourceGraphic" in2="BackgroundImageFix" result="shape"/>
<feGaussianBlur stdDeviation="0.5" result="effect1_foregroundBlur_131_7052"/>
</filter>
<filter id="filter20_f_131_7052" x="151.516" y="269.455" width="5.52832" height="10.5805" filterUnits="userSpaceOnUse" color-interpolation-filters="sRGB">
<feFlood flood-opacity="0" result="BackgroundImageFix"/>
<feBlend mode="normal" in="SourceGraphic" in2="BackgroundImageFix" result="shape"/>
<feGaussianBlur stdDeviation="0.5" result="effect1_foregroundBlur_131_7052"/>
</filter>
<filter id="filter21_f_131_7052" x="150.253" y="282.721" width="5.52832" height="10.5805" filterUnits="userSpaceOnUse" color-interpolation-filters="sRGB">
<feFlood flood-opacity="0" result="BackgroundImageFix"/>
<feBlend mode="normal" in="SourceGraphic" in2="BackgroundImageFix" result="shape"/>
<feGaussianBlur stdDeviation="0.5" result="effect1_foregroundBlur_131_7052"/>
</filter>
<filter id="filter22_f_131_7052" x="142.673" y="277.036" width="5.52832" height="10.5805" filterUnits="userSpaceOnUse" color-interpolation-filters="sRGB">
<feFlood flood-opacity="0" result="BackgroundImageFix"/>
<feBlend mode="normal" in="SourceGraphic" in2="BackgroundImageFix" result="shape"/>
<feGaussianBlur stdDeviation="0.5" result="effect1_foregroundBlur_131_7052"/>
</filter>
<filter id="filter23_f_131_7052" x="144.568" y="289.038" width="5.52832" height="10.5805" filterUnits="userSpaceOnUse" color-interpolation-filters="sRGB">
<feFlood flood-opacity="0" result="BackgroundImageFix"/>
<feBlend mode="normal" in="SourceGraphic" in2="BackgroundImageFix" result="shape"/>
<feGaussianBlur stdDeviation="0.5" result="effect1_foregroundBlur_131_7052"/>
</filter>
<filter id="filter24_f_131_7052" x="139.514" y="286.511" width="5.52832" height="10.5805" filterUnits="userSpaceOnUse" color-interpolation-filters="sRGB">
<feFlood flood-opacity="0" result="BackgroundImageFix"/>
<feBlend mode="normal" in="SourceGraphic" in2="BackgroundImageFix" result="shape"/>
<feGaussianBlur stdDeviation="0.5" result="effect1_foregroundBlur_131_7052"/>
</filter>
<filter id="filter25_f_131_7052" x="159.728" y="268.824" width="5.52832" height="10.5805" filterUnits="userSpaceOnUse" color-interpolation-filters="sRGB">
<feFlood flood-opacity="0" result="BackgroundImageFix"/>
<feBlend mode="normal" in="SourceGraphic" in2="BackgroundImageFix" result="shape"/>
<feGaussianBlur stdDeviation="0.5" result="effect1_foregroundBlur_131_7052"/>
</filter>
<filter id="filter26_f_131_7052" x="155.938" y="278.931" width="5.52832" height="10.5805" filterUnits="userSpaceOnUse" color-interpolation-filters="sRGB">
<feFlood flood-opacity="0" result="BackgroundImageFix"/>
<feBlend mode="normal" in="SourceGraphic" in2="BackgroundImageFix" result="shape"/>
<feGaussianBlur stdDeviation="0.5" result="effect1_foregroundBlur_131_7052"/>
</filter>
<filter id="filter27_f_131_7052" x="157.202" y="292.196" width="5.52832" height="10.5805" filterUnits="userSpaceOnUse" color-interpolation-filters="sRGB">
<feFlood flood-opacity="0" result="BackgroundImageFix"/>
<feBlend mode="normal" in="SourceGraphic" in2="BackgroundImageFix" result="shape"/>
<feGaussianBlur stdDeviation="0.5" result="effect1_foregroundBlur_131_7052"/>
</filter>
<filter id="filter28_f_131_7052" x="162.887" y="282.089" width="5.52832" height="10.5805" filterUnits="userSpaceOnUse" color-interpolation-filters="sRGB">
<feFlood flood-opacity="0" result="BackgroundImageFix"/>
<feBlend mode="normal" in="SourceGraphic" in2="BackgroundImageFix" result="shape"/>
<feGaussianBlur stdDeviation="0.5" result="effect1_foregroundBlur_131_7052"/>
</filter>
<filter id="filter29_f_131_7052" x="170.467" y="285.248" width="5.52832" height="10.5805" filterUnits="userSpaceOnUse" color-interpolation-filters="sRGB">
<feFlood flood-opacity="0" result="BackgroundImageFix"/>
<feBlend mode="normal" in="SourceGraphic" in2="BackgroundImageFix" result="shape"/>
<feGaussianBlur stdDeviation="0.5" result="effect1_foregroundBlur_131_7052"/>
</filter>
<filter id="filter30_f_131_7052" x="166.043" y="294.092" width="4.89712" height="9.00122" filterUnits="userSpaceOnUse" color-interpolation-filters="sRGB">
<feFlood flood-opacity="0" result="BackgroundImageFix"/>
<feBlend mode="normal" in="SourceGraphic" in2="BackgroundImageFix" result="shape"/>
<feGaussianBlur stdDeviation="0.5" result="effect1_foregroundBlur_131_7052"/>
</filter>
<filter id="filter31_f_131_7052" x="145.472" y="299.689" width="4.50392" height="8.51428" filterUnits="userSpaceOnUse" color-interpolation-filters="sRGB">
<feFlood flood-opacity="0" result="BackgroundImageFix"/>
<feBlend mode="normal" in="SourceGraphic" in2="BackgroundImageFix" result="shape"/>
<feGaussianBlur stdDeviation="0.5" result="effect1_foregroundBlur_131_7052"/>
</filter>
<filter id="filter32_f_131_7052" x="139.958" y="298.686" width="7.51178" height="10.0182" filterUnits="userSpaceOnUse" color-interpolation-filters="sRGB">
<feFlood flood-opacity="0" result="BackgroundImageFix"/>
<feBlend mode="normal" in="SourceGraphic" in2="BackgroundImageFix" result="shape"/>
<feGaussianBlur stdDeviation="0.5" result="effect1_foregroundBlur_131_7052"/>
</filter>
<filter id="filter33_f_131_7052" x="136.449" y="296.932" width="8.26376" height="8.01312" filterUnits="userSpaceOnUse" color-interpolation-filters="sRGB">
<feFlood flood-opacity="0" result="BackgroundImageFix"/>
<feBlend mode="normal" in="SourceGraphic" in2="BackgroundImageFix" result="shape"/>
<feGaussianBlur stdDeviation="0.5" result="effect1_foregroundBlur_131_7052"/>
</filter>
<filter id="filter34_f_131_7052" x="69.7765" y="269.166" width="46.3621" height="34.17" filterUnits="userSpaceOnUse" color-interpolation-filters="sRGB">
<feFlood flood-opacity="0" result="BackgroundImageFix"/>
<feBlend mode="normal" in="SourceGraphic" in2="BackgroundImageFix" result="shape"/>
<feGaussianBlur stdDeviation="0.5" result="effect1_foregroundBlur_131_7052"/>
</filter>
<filter id="filter35_f_131_7052" x="79.3011" y="273.153" width="37.5894" height="32.5442" filterUnits="userSpaceOnUse" color-interpolation-filters="sRGB">
<feFlood flood-opacity="0" result="BackgroundImageFix"/>
<feBlend mode="normal" in="SourceGraphic" in2="BackgroundImageFix" result="shape"/>
<feGaussianBlur stdDeviation="0.5" result="effect1_foregroundBlur_131_7052"/>
</filter>
<filter id="filter36_f_131_7052" x="81.3063" y="278.133" width="29.5687" height="37.3395" filterUnits="userSpaceOnUse" color-interpolation-filters="sRGB">
<feFlood flood-opacity="0" result="BackgroundImageFix"/>
<feBlend mode="normal" in="SourceGraphic" in2="BackgroundImageFix" result="shape"/>
<feGaussianBlur stdDeviation="0.5" result="effect1_foregroundBlur_131_7052"/>
</filter>
<filter id="filter37_f_131_7052" x="102.862" y="279.637" width="12.0235" height="10.0183" filterUnits="userSpaceOnUse" color-interpolation-filters="sRGB">
<feFlood flood-opacity="0" result="BackgroundImageFix"/>
<feBlend mode="normal" in="SourceGraphic" in2="BackgroundImageFix" result="shape"/>
<feGaussianBlur stdDeviation="0.5" result="effect1_foregroundBlur_131_7052"/>
</filter>
<filter id="filter38_f_131_7052" x="100.606" y="288.661" width="19.8602" height="40.5972" filterUnits="userSpaceOnUse" color-interpolation-filters="sRGB">
<feFlood flood-opacity="0" result="BackgroundImageFix"/>
<feBlend mode="normal" in="SourceGraphic" in2="BackgroundImageFix" result="shape"/>
<feGaussianBlur stdDeviation="0.5" result="effect1_foregroundBlur_131_7052"/>
</filter>
<filter id="filter39_f_131_7052" x="104.115" y="285.151" width="15.0311" height="36.8374" filterUnits="userSpaceOnUse" color-interpolation-filters="sRGB">
<feFlood flood-opacity="0" result="BackgroundImageFix"/>
<feBlend mode="normal" in="SourceGraphic" in2="BackgroundImageFix" result="shape"/>
<feGaussianBlur stdDeviation="0.5" result="effect1_foregroundBlur_131_7052"/>
</filter>
<filter id="filter40_f_131_7052" x="103.614" y="281.893" width="13.2766" height="34.3311" filterUnits="userSpaceOnUse" color-interpolation-filters="sRGB">
<feFlood flood-opacity="0" result="BackgroundImageFix"/>
<feBlend mode="normal" in="SourceGraphic" in2="BackgroundImageFix" result="shape"/>
<feGaussianBlur stdDeviation="0.5" result="effect1_foregroundBlur_131_7052"/>
</filter>
<filter id="filter41_f_131_7052" x="158.756" y="242.541" width="8.01315" height="13.0261" filterUnits="userSpaceOnUse" color-interpolation-filters="sRGB">
<feFlood flood-opacity="0" result="BackgroundImageFix"/>
<feBlend mode="normal" in="SourceGraphic" in2="BackgroundImageFix" result="shape"/>
<feGaussianBlur stdDeviation="0.5" result="effect1_foregroundBlur_131_7052"/>
</filter>
<filter id="filter42_f_131_7052" x="162.265" y="238.03" width="10.7702" height="17.287" filterUnits="userSpaceOnUse" color-interpolation-filters="sRGB">
<feFlood flood-opacity="0" result="BackgroundImageFix"/>
<feBlend mode="normal" in="SourceGraphic" in2="BackgroundImageFix" result="shape"/>
<feGaussianBlur stdDeviation="0.5" result="effect1_foregroundBlur_131_7052"/>
</filter>
<filter id="filter43_f_131_7052" x="139.958" y="253.069" width="6.75984" height="10.7702" filterUnits="userSpaceOnUse" color-interpolation-filters="sRGB">
<feFlood flood-opacity="0" result="BackgroundImageFix"/>
<feBlend mode="normal" in="SourceGraphic" in2="BackgroundImageFix" result="shape"/>
<feGaussianBlur stdDeviation="0.5" result="effect1_foregroundBlur_131_7052"/>
</filter>
<filter id="filter44_f_131_7052" x="134.694" y="255.826" width="7.51181" height="11.7728" filterUnits="userSpaceOnUse" color-interpolation-filters="sRGB">
<feFlood flood-opacity="0" result="BackgroundImageFix"/>
<feBlend mode="normal" in="SourceGraphic" in2="BackgroundImageFix" result="shape"/>
<feGaussianBlur stdDeviation="0.5" result="effect1_foregroundBlur_131_7052"/>
</filter>
<filter id="filter45_f_131_7052" x="165.023" y="233.769" width="13.778" height="23.5532" filterUnits="userSpaceOnUse" color-interpolation-filters="sRGB">
<feFlood flood-opacity="0" result="BackgroundImageFix"/>
<feBlend mode="normal" in="SourceGraphic" in2="BackgroundImageFix" result="shape"/>
<feGaussianBlur stdDeviation="0.5" result="effect1_foregroundBlur_131_7052"/>
</filter>
<filter id="filter46_f_131_7052" x="149.232" y="248.557" width="7.01051" height="10.5196" filterUnits="userSpaceOnUse" color-interpolation-filters="sRGB">
<feFlood flood-opacity="0" result="BackgroundImageFix"/>
<feBlend mode="normal" in="SourceGraphic" in2="BackgroundImageFix" result="shape"/>
<feGaussianBlur stdDeviation="0.5" result="effect1_foregroundBlur_131_7052"/>
</filter>
<filter id="filter47_f_131_7052" x="153.743" y="246.05" width="7.76246" height="11.7728" filterUnits="userSpaceOnUse" color-interpolation-filters="sRGB">
<feFlood flood-opacity="0" result="BackgroundImageFix"/>
<feBlend mode="normal" in="SourceGraphic" in2="BackgroundImageFix" result="shape"/>
<feGaussianBlur stdDeviation="0.5" result="effect1_foregroundBlur_131_7052"/>
</filter>
<filter id="filter48_f_131_7052" x="145.221" y="250.562" width="6.50926" height="10.7703" filterUnits="userSpaceOnUse" color-interpolation-filters="sRGB">
<feFlood flood-opacity="0" result="BackgroundImageFix"/>
<feBlend mode="normal" in="SourceGraphic" in2="BackgroundImageFix" result="shape"/>
<feGaussianBlur stdDeviation="0.5" result="effect1_foregroundBlur_131_7052"/>
</filter>
<filter id="filter49_f_131_7052" x="184.822" y="293.672" width="10.0208" height="15.535" filterUnits="userSpaceOnUse" color-interpolation-filters="sRGB">
<feFlood flood-opacity="0" result="BackgroundImageFix"/>
<feBlend mode="normal" in="SourceGraphic" in2="BackgroundImageFix" result="shape"/>
<feGaussianBlur stdDeviation="0.25" result="effect1_foregroundBlur_131_7052"/>
</filter>
<filter id="filter50_f_131_7052" x="183.82" y="295.928" width="6.76233" height="15.0337" filterUnits="userSpaceOnUse" color-interpolation-filters="sRGB">
<feFlood flood-opacity="0" result="BackgroundImageFix"/>
<feBlend mode="normal" in="SourceGraphic" in2="BackgroundImageFix" result="shape"/>
<feGaussianBlur stdDeviation="0.25" result="effect1_foregroundBlur_131_7052"/>
</filter>
<filter id="filter51_f_131_7052" x="182.817" y="300.44" width="2.56406" height="12.2768" filterUnits="userSpaceOnUse" color-interpolation-filters="sRGB">
<feFlood flood-opacity="0" result="BackgroundImageFix"/>
<feBlend mode="normal" in="SourceGraphic" in2="BackgroundImageFix" result="shape"/>
<feGaussianBlur stdDeviation="0.25" result="effect1_foregroundBlur_131_7052"/>
</filter>
</defs>
</svg>
