<svg width="329" height="273" viewBox="0 0 329 273" fill="none" xmlns="http://www.w3.org/2000/svg">
<g filter="url(#filter0_i_172_7081)">
<circle cx="87" cy="181" r="24" fill="#95D7EC"/>
</g>
<circle cx="82.3846" cy="167.154" r="4.61538" fill="#B5E6F2"/>
<g filter="url(#filter1_i_172_7081)">
<circle cx="307" cy="253" r="20" fill="#95D7EC"/>
</g>
<circle cx="303.154" cy="241.462" r="3.84615" fill="#B5E6F2"/>
<g filter="url(#filter2_i_172_7081)">
<circle cx="308" cy="85" r="21" fill="#95D7EC"/>
</g>
<circle cx="303.962" cy="72.8847" r="4.03846" fill="#B5E6F2"/>
<g filter="url(#filter3_i_172_7081)">
<circle cx="19" cy="92" r="19" fill="#95D7EC"/>
</g>
<circle cx="15.6538" cy="83.6538" r="3.65385" fill="#B5E6F2"/>
<path d="M96.7221 53.1877C96.2749 53.1877 95.8074 53.1467 95.3196 53.0647C94.8724 53.0237 94.4252 52.9212 93.978 52.7573C92.2706 52.1834 90.8681 51.1381 89.7705 49.6214C88.6729 48.1046 87.7989 46.3215 87.1484 44.2718C86.498 42.1812 85.9492 40.0086 85.502 37.754C85.0955 35.4585 84.6686 33.2654 84.2214 31.1748C83.571 30.8878 82.9409 30.5599 82.3311 30.1909C81.7213 29.822 81.1928 29.4326 80.7456 29.0227L80.3798 29.6375C76.4365 36.2783 72.1883 41.4434 67.6352 45.1327C63.0821 48.822 58.3867 50.5232 53.5491 50.2362C52.2075 50.1543 50.9473 49.6828 49.7684 48.822C48.5895 48.0022 48 46.8134 48 45.2557C48 45.0507 48.0203 44.8457 48.061 44.6408C48.061 44.4358 48.0813 44.2309 48.122 44.0259C48.3659 42.9601 49.0163 42.0787 50.0733 41.3819C51.1709 40.644 52.2482 40.2751 53.3052 40.2751C53.7523 39.7422 54.3215 39.4757 55.0126 39.4757C55.3378 39.4757 55.6427 39.5577 55.9272 39.7217C56.2525 39.8856 56.5167 40.1521 56.72 40.521C56.8826 40.562 57.1062 40.5825 57.3907 40.5825C57.716 40.5825 58.0005 40.5415 58.2444 40.4595C58.4884 40.3776 58.6306 40.2341 58.6713 40.0291C58.7526 39.7422 58.8746 39.5987 59.0372 39.5987C59.1998 39.5987 59.3014 39.6807 59.3421 39.8447C59.4234 40.0086 59.464 40.1931 59.464 40.3981C59.464 40.685 59.3624 40.9515 59.1591 41.1974C58.9559 41.4434 58.5697 41.6073 58.0005 41.6893C57.6753 41.6893 57.3704 41.6073 57.0858 41.4434C57.1265 41.7303 57.1265 42.0378 57.0858 42.3657C57.0858 42.6526 57.0858 42.9601 57.0858 43.288V43.4725C57.0858 43.8414 57.1875 44.1694 57.3907 44.4563C57.6347 44.7433 57.8786 44.8047 58.1225 44.6408C58.2851 44.5178 58.4071 44.4563 58.4884 44.4563C58.6103 44.4563 58.6103 44.5588 58.4884 44.7638C58.2038 45.2967 57.7363 45.5631 57.0858 45.5631C56.9232 45.5631 56.7606 45.5221 56.598 45.4401C56.1102 45.2352 55.724 44.9277 55.4394 44.5178C55.1955 44.0669 55.0532 43.6365 55.0126 43.2265C54.9313 42.4477 54.7077 41.8943 54.3418 41.5663C53.9759 41.2384 53.6304 41.0334 53.3052 40.9515C53.1832 40.9515 53.1222 40.931 53.1222 40.89C52.3498 41.0539 51.5774 41.4639 50.805 42.1197C50.0326 42.7346 49.5448 43.452 49.3415 44.2718C49.3009 44.4358 49.2602 44.6203 49.2196 44.8252C49.2196 45.0302 49.2196 45.2147 49.2196 45.3786C49.2196 46.6494 49.6871 47.6332 50.6221 48.3301C51.5571 49.027 52.6547 49.3754 53.9149 49.3754C55.7443 49.3754 57.6753 48.699 59.7079 47.3463C61.7812 46.0345 63.8952 44.2718 66.0497 42.0583C68.2043 39.8037 70.3386 37.3031 72.4525 34.5566C74.5664 31.7691 76.6194 28.9612 78.6114 26.1327C78.2049 25.2718 78.0016 24.411 78.0016 23.5502C78.0016 23.0583 78.1032 22.5663 78.3065 22.0744C78.6317 21.5825 79.2008 21.3366 80.0139 21.3366H80.2578C80.705 21.3366 81.1318 21.48 81.5384 21.767C81.9449 21.1931 82.3311 20.6397 82.697 20.1068C83.0628 19.5329 83.4287 18.9795 83.7946 18.4466C84.9328 16.6839 86.3354 14.7573 88.0021 12.6667C89.6689 10.5761 91.4779 8.58792 93.4292 6.70227C91.5999 6.08738 89.6282 5.63646 87.5143 5.34951C85.441 5.02157 83.2864 4.8576 81.0505 4.8576C78.1236 4.8576 75.1966 5.12406 72.2696 5.65696C69.3832 6.18986 66.6392 7.00971 64.0374 8.11651C61.4763 9.2233 59.1998 10.617 57.2078 12.2977C55.2158 13.9374 53.671 15.8846 52.5734 18.1392C52.0856 19.082 51.7197 20.0043 51.4758 20.9061C51.2725 21.808 51.1709 22.6688 51.1709 23.4887C51.1709 25.0464 51.5571 26.4196 52.3295 27.6084L52.4166 27.749C52.8522 28.6274 52.0101 28.5454 52.4166 28.6274C52.4166 28.6274 51.9884 28.1882 52.3137 28.1882C52.5169 28.1882 51.7312 27.9669 51.8938 27.9669C51.7312 28.0079 52.0564 27.9259 51.8938 27.9669C51.8532 27.8439 52.2637 28.1003 52.223 27.9773C52.223 27.8544 52.3295 28.2233 52.3295 28.1003C52.3295 27.6084 51.9385 28.1823 52.223 27.9773C52.5482 27.7314 52.2075 28.0183 52.4515 27.9773C52.2075 28.1003 52.736 27.8954 52.4515 27.9773C52.736 27.8544 52.4984 28.3053 52.6204 28.1003C52.8237 27.7724 52.4108 28.5161 52.4515 28.1882C52.4921 27.8602 52.3295 28.2643 52.3295 28.1003C52.6141 28.3873 52.1011 27.4854 52.223 27.9773C52.345 28.4283 52.2563 27.5838 52.2563 27.9937C52.2563 29.0595 51.5455 27.749 51.9811 27.749C51.8428 27.9669 52.124 27.749 51.9811 27.749C51.5339 27.749 52.6547 28.2004 52.3295 27.8725C51.8823 28.0364 52.8173 27.8725 52.3295 27.8725C52.0449 27.8725 52.1784 27.7109 51.8938 27.6699C51.6092 27.5879 53.2035 28.3873 52.8783 28.3463C54.4231 30.1499 56.5574 31.0518 59.2811 31.0518C60.6226 31.0518 61.9235 30.8263 63.1837 30.3754C63.2244 30.3754 63.265 30.3754 63.3057 30.3754C63.3463 30.3344 63.387 30.3139 63.4276 30.3139L63.6106 30.2524C65.5213 29.5965 67.127 28.5717 68.4279 27.178C69.7694 25.7842 70.7858 24.247 71.4769 22.5663C72.1679 20.8447 72.5135 19.246 72.5135 17.7702C72.5135 16.2945 72.1679 15.0647 71.4769 14.0809C70.7858 13.0561 69.6678 12.5437 68.123 12.5437H68.062C67.4929 12.5437 66.9644 12.8921 66.4766 13.589C66.0294 14.2449 65.7855 15.1467 65.7448 16.2945C65.7042 16.8274 65.4603 17.6063 65.0131 18.6311C64.5659 19.6149 63.9561 20.3937 63.1837 20.9676C62.6552 21.3776 62.1268 21.5825 61.5983 21.5825C61.1511 21.5825 60.7649 21.4391 60.4397 21.1521C60.3584 21.0701 60.3177 20.9881 60.3177 20.9061C60.3177 20.8242 60.5413 20.7422 60.9885 20.6602C61.4357 20.5782 61.8015 20.2503 62.0861 19.6764C62.4113 19.0615 62.5333 18.4876 62.452 17.9547C62.33 16.11 62.6146 14.6343 63.3057 13.5275C64.0374 12.3797 65.1351 11.8058 66.5985 11.8058C66.7612 11.8058 66.9034 11.8058 67.0254 11.8058C67.188 11.8058 67.3506 11.8263 67.5132 11.8673C67.9604 11.8673 68.3669 11.9083 68.7328 11.9903C69.0987 12.0723 69.4442 12.1543 69.7694 12.2362C69.5255 12.0313 69.2816 11.7853 69.0377 11.4984C68.8344 11.1704 68.7328 10.781 68.7328 10.3301C68.7328 9.96117 68.8954 9.67422 69.2206 9.46926C69.5865 9.26429 69.9524 9.16181 70.3183 9.16181C70.5215 9.16181 70.7045 9.20281 70.8671 9.28479C71.1516 9.44876 71.2939 9.59223 71.2939 9.71521C71.2939 9.83819 71.111 9.87918 70.7451 9.83819H70.6232C70.2979 9.83819 70.1353 10.0431 70.1353 10.4531C70.1353 10.822 70.237 11.2524 70.4402 11.7443C70.6841 12.2362 70.8874 12.5847 71.05 12.7896C71.8631 13.2816 72.4932 13.9374 72.9403 14.7573C73.3875 15.5771 73.6779 16.7044 73.7592 17.6472C73.8812 17.4423 73.593 17.9033 73.7556 17.6984C73.593 17.9033 73.9182 17.4934 73.7556 17.6984C73.5117 17.3704 73.7592 18.0162 73.7592 17.6472C73.7592 17.1553 73.7435 17.7134 73.7396 17.6773C73.6801 17.7131 73.0275 18.0572 73.7592 17.6472C73.7796 17.6473 72.8612 17.8623 73.7556 17.6984C72.8612 17.6984 73.744 17.6828 73.7556 17.6984C73.72 17.6505 73.103 17.5598 73.6721 17.6828C73.6917 17.6472 73.434 17.3603 73.7592 17.6472C73.7388 17.6472 73.7592 17.4833 73.7592 17.6472C73.6721 17.6828 73.7999 17.8112 73.7592 17.6472C73.3527 17.5653 73.9734 17.6186 73.6481 17.6186C73.1603 17.6186 73.9734 17.4956 73.6481 17.6186C73.201 17.8236 73.8754 17.3138 73.6721 17.6828C73.4688 18.0517 73.6274 17.6536 73.5468 17.6505C73.6481 17.6186 73.6721 17.6505 73.5468 17.6505C73.6231 17.6475 73.6721 17.6297 73.7592 17.6472C73.0681 17.6472 73.7286 17.6644 73.6721 17.6828C73.2249 18.0107 73.3236 17.208 73.794 17.7702C73.5501 18.1392 73.7941 18.5081 73.6721 18.877C73.5095 20.8857 72.7574 22.9353 71.4159 25.0259C70.0743 27.0755 68.2653 28.7357 65.9888 30.0065C66.3546 30.0065 65.312 29.7052 65.7185 29.9101C66.0031 29.6232 65.3979 29.8835 65.8451 29.8835C66.3736 29.8835 65.4312 29.0139 65.9191 29.5058C66.4476 29.9567 66.1798 28.6385 66.1798 29.6633C66.1798 30.0733 65.6055 29.8513 65.4835 30.3842C65.3616 30.8761 65.9572 29.3103 65.632 29.6382C65.5914 29.4332 65.7185 29.993 65.7185 29.706C65.7185 29.3781 65.9915 30.1065 65.7883 29.7785C65.6663 29.5736 66.3394 29.7269 66.0548 29.6039C65.8109 29.44 66.2036 29.7453 65.9191 29.6633C65.6752 29.5813 66.1297 29.7107 65.8451 29.5058C65.5605 29.2598 66.7902 29.945 65.4835 29.945C65.335 29.2666 66.0548 29.6859 66.0548 29.6039C66.0955 29.481 65.5914 30.0065 65.632 29.8835C65.2661 29.7605 66.125 30.0065 65.7185 30.0065C65.5965 30.0065 65.6055 30.3842 65.4835 30.3842C65.3616 30.3842 65.0741 30.5189 64.9521 30.5599C63.0821 31.3797 61.0698 31.7896 58.9152 31.7896C56.9232 31.7896 55.2158 31.4002 53.793 30.6214C54.1589 31.1543 54.3418 31.6052 54.3418 31.9741C54.3418 32.507 54.0776 32.9169 53.5491 33.2039C53.0612 33.4498 52.6547 33.5113 52.3295 33.3883C52.2075 33.3474 52.1262 33.2859 52.0856 33.2039C52.0449 33.0809 52.1669 32.9784 52.4515 32.8964C52.8173 32.7735 53.0003 32.384 53.0003 31.7282C53.0003 31.3592 52.9596 30.9903 52.8783 30.6214C52.797 30.2114 52.6547 29.9245 52.4515 29.7605L52.3905 29.699C51.3742 28.6742 50.5205 27.5674 49.8294 26.3786C49.1383 25.1899 48.7927 23.8166 48.7927 22.2589C48.7927 21.4391 48.8944 20.5577 49.0976 19.6149C49.3415 18.6721 49.6871 17.7292 50.1343 16.7864C50.5814 15.8026 51.1506 14.8803 51.8417 14.0194C52.5734 13.1586 53.3865 12.3592 54.2808 11.6214C54.0776 11.6623 53.8336 11.7238 53.5491 11.8058C53.3052 11.8468 53.0612 11.8673 52.8173 11.8673C52.3295 11.8673 51.8823 11.7648 51.4758 11.5599C51.1912 11.3959 50.988 11.1704 50.866 10.8835C50.744 10.5556 50.6831 10.2481 50.6831 9.96116C50.6831 9.42826 50.8254 8.97735 51.1099 8.60842C51.2319 8.48544 51.3335 8.42395 51.4148 8.42395C51.5368 8.42395 51.5978 8.64941 51.5978 9.10032C51.5978 9.46926 51.8213 9.79719 52.2685 10.0841C52.7564 10.3301 53.2848 10.5146 53.854 10.6375C54.4638 10.7195 54.9313 10.7195 55.2565 10.6375C55.5817 10.5146 55.7646 10.4326 55.8053 10.3916C57.8786 8.95685 60.2567 7.76807 62.9398 6.82524C65.6229 5.88242 68.4686 5.18554 71.4769 4.73463C74.4851 4.24272 77.4934 3.99676 80.5017 3.99676C82.9002 3.99676 85.2784 4.16073 87.6362 4.48867C89.9941 4.77562 92.23 5.22654 94.3439 5.84142C94.9131 5.26753 95.5025 4.71413 96.1123 4.18123C96.7627 3.64833 97.4132 3.15642 98.0636 2.7055C99.4052 1.68069 100.747 0.983818 102.088 0.614886C103.43 0.204962 104.649 0 105.747 0C106.926 0 107.902 0.16397 108.674 0.49191C109.487 0.819851 109.975 1.20928 110.137 1.66019L109.772 1.90615C109.446 1.53722 108.979 1.22977 108.369 0.983821C107.759 0.737864 107.048 0.614886 106.235 0.614886C105.259 0.614886 104.141 0.840345 102.881 1.29126C101.621 1.74218 100.218 2.54153 98.6734 3.68932C98.2262 4.01726 97.7587 4.40669 97.2709 4.8576C96.8237 5.30852 96.3562 5.80043 95.8684 6.33333C99.1206 7.52212 101.783 9.16181 103.857 11.2524C105.93 13.343 106.967 15.9051 106.967 18.9385C106.967 20.9061 106.479 22.7303 105.503 24.411C104.527 26.0507 103.227 27.4649 101.6 28.6537C100.015 29.8425 98.2669 30.7648 96.3562 31.4207C94.4456 32.0766 92.5349 32.4045 90.6242 32.4045C89.4046 32.4045 88.1851 32.2406 86.9655 31.9126L86.7216 31.8511C87.5753 34.1467 88.429 36.5243 89.2827 38.9838C90.1364 41.4434 91.0511 43.6775 92.0267 45.6861C93.043 47.7357 94.1407 49.2729 95.3196 50.2977C95.7668 50.7077 96.2139 50.9946 96.6611 51.1586C97.1489 51.3225 97.6368 51.4045 98.1246 51.4045C98.9783 51.4045 99.771 51.1791 100.503 50.7282C101.275 50.2772 101.865 49.6828 102.271 48.945C102.718 48.2071 102.881 47.4488 102.759 46.6699L103.308 46.6084C103.47 48.0431 103.247 49.2524 102.637 50.2362C102.027 51.2201 101.194 51.9579 100.137 52.4498C99.0799 52.9417 97.9417 53.1877 96.7221 53.1877ZM89.9534 31.2362C91.6609 31.2362 93.2463 31.0108 94.7098 30.5599C97.027 29.822 98.8767 28.7767 100.259 27.4239C101.682 26.0302 102.718 24.5545 103.369 22.9968C104.019 21.3981 104.344 19.9223 104.344 18.5696C104.344 15.9461 103.47 13.6915 101.722 11.8058C100.015 9.92017 97.7791 8.42395 95.0147 7.31715C93.7951 8.79288 92.5146 10.4941 91.173 12.4207C89.8315 14.3474 88.5103 16.3355 87.2094 18.3851C85.9492 20.4347 84.7296 22.4229 83.5507 24.3495C84.0385 25.2104 84.506 26.1942 84.9532 27.301C85.441 28.4078 85.9085 29.5761 86.3557 30.8058C86.9248 30.9698 87.5143 31.0928 88.1241 31.1748C88.7339 31.2157 89.3437 31.2362 89.9534 31.2362ZM79.2212 25.2718C79.5057 24.8209 79.7903 24.3905 80.0749 23.9806C80.3594 23.5707 80.644 23.1607 80.9286 22.7508C80.8473 22.6688 80.766 22.6073 80.6847 22.5663C80.6034 22.4844 80.5221 22.4229 80.4407 22.3819C80.1968 22.2589 79.9732 22.1974 79.77 22.1974C79.4448 22.1974 79.2415 22.3204 79.1602 22.5663C78.9976 22.8943 78.9163 23.2427 78.9163 23.6117C78.9163 24.0216 79.0179 24.575 79.2212 25.2718ZM83.9775 30.068C83.8149 29.2481 83.632 28.4897 83.4287 27.7929C83.2254 27.055 83.0019 26.3786 82.7579 25.7638L81.2335 28.2233C81.9652 28.8792 82.8799 29.4941 83.9775 30.068Z" fill="#2D3A53"/>
<path d="M106.24 45.8705C105.183 45.8705 104.187 45.6246 103.252 45.1327C102.317 44.5998 101.626 43.7594 101.179 42.6116C100.894 41.8738 100.752 41.0334 100.752 40.0906C100.752 38.9428 100.976 37.8155 101.423 36.7087C101.992 35.356 102.825 34.0237 103.923 32.712C105.02 31.4002 106.24 30.2114 107.582 29.1456C108.923 28.0798 110.265 27.2395 111.606 26.6246C112.948 25.9687 114.147 25.6408 115.204 25.6408C116.098 25.6408 116.81 25.8867 117.338 26.3786C117.704 26.7476 117.887 27.2805 117.887 27.9773C117.887 28.8792 117.541 29.9245 116.85 31.1133C116.2 32.2611 115.265 33.2654 114.045 34.1262C113.273 34.6591 112.358 35.11 111.301 35.479C110.285 35.8069 109.208 35.9709 108.069 35.9709C107.704 35.9709 107.317 35.9504 106.911 35.9094C106.545 35.8684 106.179 35.8069 105.813 35.7249C105.529 36.0529 105.183 36.5858 104.777 37.3236C104.411 38.0205 104.085 38.7994 103.801 39.6602C103.557 40.521 103.435 41.3409 103.435 42.1197C103.476 43.1855 103.76 43.9439 104.289 44.3948C104.858 44.8047 105.529 45.0097 106.301 45.0097C107.846 45.0097 109.33 44.5178 110.752 43.534C112.216 42.5092 113.537 41.2589 114.716 39.7832C115.895 38.3074 116.891 36.8932 117.704 35.5405C117.826 35.3765 117.928 35.2945 118.009 35.2945C118.09 35.2535 118.151 35.233 118.192 35.233C118.314 35.233 118.415 35.2945 118.497 35.4175C118.619 35.5405 118.639 35.7044 118.558 35.9094C118.029 36.7702 117.338 37.795 116.484 38.9838C115.671 40.1726 114.696 41.3204 113.557 42.4272C112.46 43.493 111.22 44.3743 109.838 45.0712C109.309 45.3581 108.72 45.5631 108.069 45.6861C107.46 45.8091 106.85 45.8705 106.24 45.8705ZM107.521 35.11C109.431 35.11 111.159 34.6181 112.704 33.6343C114.289 32.6095 115.428 31.3797 116.119 29.945C116.322 29.617 116.444 29.3096 116.484 29.0227C116.566 28.7357 116.606 28.5102 116.606 28.3463C116.606 27.6494 116.22 27.301 115.448 27.301C114.96 27.301 114.411 27.4239 113.801 27.6699C113.232 27.9159 112.724 28.2028 112.277 28.5307C111.505 29.1046 110.691 29.822 109.838 30.6828C109.025 31.5027 108.293 32.3225 107.643 33.1424C106.992 33.9212 106.504 34.5361 106.179 34.9871C106.382 35.028 106.606 35.069 106.85 35.11C107.094 35.11 107.317 35.11 107.521 35.11Z" fill="#2D3A53"/>
<path d="M142.33 46.2395C141.11 46.2395 140.236 45.932 139.707 45.3172C139.179 44.6613 138.915 43.9029 138.915 43.0421C138.915 42.2632 139.057 41.5253 139.342 40.8285C140.073 38.9018 140.947 37.2211 141.964 35.7864C143.021 34.3517 144.118 32.7325 145.256 30.9288C145.907 29.863 146.232 29.0636 146.232 28.5307C146.232 28.0388 145.988 27.7929 145.5 27.7929C144.85 27.7929 143.915 28.2233 142.695 29.0841C141.476 29.904 140.216 31.0928 138.915 32.6505C138.02 33.7163 137.045 34.9666 135.988 36.4013C134.971 37.836 133.996 39.2298 133.061 40.5825C132.126 41.9353 131.374 43.0626 130.805 43.9644C130.235 44.8662 129.951 45.3172 129.951 45.3172C129.707 45.3991 129.321 45.4606 128.792 45.5016C128.264 45.5836 127.735 45.6246 127.207 45.6246C126.882 45.6246 126.577 45.6041 126.292 45.5631C126.048 45.5631 125.825 45.5426 125.621 45.5016C126.028 44.8867 126.597 44.0464 127.329 42.9806C128.101 41.9148 128.914 40.767 129.768 39.5372C130.662 38.2664 131.516 37.0367 132.329 35.8479C133.142 34.6181 133.853 33.5523 134.463 32.6505C135.073 31.7486 135.48 31.1338 135.683 30.8058C136.415 29.617 136.78 28.6332 136.78 27.8544C136.78 27.3215 136.557 27.055 136.11 27.055C135.744 27.055 135.175 27.3215 134.402 27.8544C133.63 28.3463 132.593 29.2071 131.292 30.4369C130.439 31.2567 129.605 32.1791 128.792 33.2039C127.979 34.2287 127.207 35.2535 126.475 36.2783C125.337 37.795 124.3 39.2503 123.365 40.644C122.43 41.9968 121.678 43.1036 121.109 43.9644C120.58 44.8252 120.296 45.2762 120.255 45.3172C119.93 45.4401 119.544 45.5221 119.097 45.5631C118.69 45.6041 118.284 45.6246 117.877 45.6246C117.43 45.6246 117.003 45.6041 116.596 45.5631C116.231 45.5221 115.987 45.4811 115.865 45.4401C116.353 44.7842 117.003 43.9029 117.816 42.7961C118.629 41.6893 119.483 40.48 120.377 39.1683C121.312 37.8155 122.206 36.4833 123.06 35.1715C123.955 33.8598 124.727 32.671 125.377 31.6052C126.028 30.5394 126.495 29.7195 126.78 29.1456C127.268 28.0388 127.512 27.2805 127.512 26.8705C127.512 26.4196 127.329 26.1942 126.963 26.1942C126.76 26.1942 126.414 26.3376 125.926 26.6246C125.398 26.9935 124.768 27.5879 124.036 28.4078C123.345 29.1866 122.633 30.068 121.902 31.0518C121.17 32.0356 120.499 32.9784 119.889 33.8803C119.279 34.7821 118.812 35.4995 118.487 36.0324C118.405 36.0734 118.304 36.0938 118.182 36.0938C118.019 36.0938 117.897 36.0324 117.816 35.9094C117.735 35.7864 117.714 35.6429 117.755 35.479C118.04 35.028 118.507 34.3517 119.158 33.4498C119.808 32.507 120.519 31.5027 121.292 30.4369C122.105 29.3711 122.877 28.4078 123.609 27.5469C124.341 26.6451 124.93 26.0302 125.377 25.7023C126.231 25.0874 127.044 24.7799 127.817 24.7799C128.508 24.7799 129.056 25.0259 129.463 25.5178C129.869 25.9687 130.073 26.5836 130.073 27.3625C130.073 28.4283 129.809 29.6375 129.28 30.9903C129.483 30.7033 129.91 30.2524 130.561 29.6375C131.211 28.9817 131.861 28.3463 132.512 27.7314C133.203 27.1165 133.65 26.7476 133.853 26.6246C134.545 26.2557 135.195 25.9892 135.805 25.8252C136.455 25.6613 137.045 25.5793 137.573 25.5793C138.589 25.5793 139.301 25.8252 139.707 26.3172C139.951 26.5631 140.073 26.9525 140.073 27.4854C140.073 28.0183 139.951 28.6127 139.707 29.2686C139.464 29.9245 139.179 30.5394 138.854 31.1133C139.585 30.3344 140.358 29.5965 141.171 28.8997C141.984 28.2028 142.838 27.5879 143.732 27.055C144.545 26.5631 145.277 26.2147 145.927 26.0097C146.618 25.7638 147.228 25.6408 147.757 25.6408C149.342 25.6408 150.135 26.4606 150.135 28.1003C150.135 28.7152 149.972 29.4326 149.647 30.2524C149.362 31.0723 148.875 31.9331 148.183 32.8349C147.411 33.8598 146.415 35.1715 145.196 36.7702C144.017 38.3689 143.082 39.9061 142.39 41.3819C141.903 42.4067 141.659 43.2265 141.659 43.8414C141.659 44.6613 142.045 45.0712 142.817 45.0712C143.427 45.0712 144.24 44.7638 145.256 44.1489C146.476 43.411 147.777 42.3042 149.159 40.8285C150.582 39.3527 151.924 37.5286 153.184 35.356C153.306 35.233 153.468 35.1715 153.672 35.1715C154.037 35.1715 154.119 35.4175 153.915 35.9094C152.777 37.795 151.558 39.5167 150.257 41.0744C148.997 42.6321 147.696 43.8824 146.354 44.8252C145.013 45.7681 143.671 46.2395 142.33 46.2395Z" fill="#2D3A53"/>
<path d="M164.653 22.9353C164.083 22.9353 163.636 22.7508 163.311 22.3819C163.026 22.0129 162.884 21.5825 162.884 21.0906C162.884 20.2708 163.169 19.6149 163.738 19.123C164.307 18.6311 164.917 18.3851 165.567 18.3851C166.136 18.3851 166.584 18.5696 166.909 18.9385C167.234 19.2664 167.397 19.6969 167.397 20.2298C167.397 21.0086 167.112 21.6645 166.543 22.1974C165.974 22.6893 165.344 22.9353 164.653 22.9353ZM154.53 46.055C153.432 46.055 152.497 45.7271 151.725 45.0712C150.993 44.3743 150.627 43.3905 150.627 42.1197C150.627 41.4639 150.749 40.7055 150.993 39.8447C151.278 38.9428 151.603 38.123 151.969 37.3851C152.375 36.6063 152.721 35.9709 153.006 35.479C153.331 34.9871 153.493 34.7411 153.493 34.7411L159.469 25.8252C159.713 25.6203 160.018 25.4973 160.384 25.4563C160.75 25.3743 161.136 25.3333 161.543 25.3333C162.112 25.3333 162.6 25.3948 163.006 25.5178C163.413 25.5998 163.575 25.7433 163.494 25.9482L157.457 34.9871C157.335 35.151 156.929 35.7249 156.237 36.7087C155.587 37.6516 154.957 38.6969 154.347 39.8447C153.575 41.2794 153.188 42.5092 153.188 43.534C153.188 44.6408 153.697 45.1942 154.713 45.1942C155.038 45.1942 155.424 45.1327 155.872 45.0097C156.359 44.8457 156.908 44.5998 157.518 44.2718C160.079 42.8371 162.701 39.9266 165.384 35.5405C165.506 35.3355 165.608 35.233 165.689 35.233C165.811 35.192 165.892 35.1715 165.933 35.1715C166.136 35.1715 166.258 35.2535 166.299 35.4175C166.38 35.5405 166.36 35.7044 166.238 35.9094C164.774 38.164 163.331 40.1111 161.908 41.7508C160.526 43.3905 159.063 44.5793 157.518 45.3172C156.502 45.8091 155.506 46.055 154.53 46.055Z" fill="#2D3A53"/>
<path d="M180.089 46.178C179.114 46.178 178.28 45.8705 177.589 45.2557C176.898 44.5998 176.552 43.6775 176.552 42.4887C176.552 41.0539 176.959 39.5782 177.772 38.0615C178.585 36.5038 179.54 34.9666 180.638 33.4498C181.736 31.9331 182.691 30.5394 183.504 29.2686C183.951 28.4898 184.175 27.8544 184.175 27.3625C184.175 26.7886 183.911 26.5016 183.382 26.5016C182.976 26.5016 182.366 26.7681 181.553 27.301C180.74 27.7929 179.703 28.6537 178.443 29.8835C177.223 31.1133 176.044 32.4865 174.906 34.0032C173.808 35.479 172.792 36.9547 171.857 38.4304C170.963 39.9061 170.17 41.2589 169.479 42.4887C168.828 43.7184 168.341 44.6613 168.015 45.3172C167.731 45.4401 167.365 45.5221 166.918 45.5631C166.511 45.6041 166.084 45.6246 165.637 45.6246C164.621 45.6246 163.95 45.5631 163.625 45.4401C164.153 44.7023 164.845 43.6775 165.698 42.3657C166.593 41.0539 167.528 39.6397 168.503 38.123C169.479 36.5653 170.373 35.11 171.186 33.7573C171.633 32.9784 172.121 32.1381 172.65 31.2362C173.178 30.3344 173.625 29.4941 173.991 28.7152C174.357 27.8954 174.54 27.2805 174.54 26.8705C174.54 26.4606 174.378 26.2557 174.052 26.2557C173.849 26.2557 173.585 26.3581 173.26 26.5631C172.934 26.7681 172.629 27.0345 172.345 27.3625C171.735 27.9773 170.942 28.9407 169.967 30.2524C169.032 31.5232 167.792 33.4088 166.247 35.9094C166.125 36.1143 165.922 36.2168 165.637 36.2168C165.312 36.2168 165.231 35.9914 165.393 35.5405C166.125 34.3517 166.877 33.1629 167.65 31.9741C168.422 30.7443 169.194 29.5965 169.967 28.5307C170.78 27.4649 171.532 26.6246 172.223 26.0097C172.955 25.3538 173.727 25.0259 174.54 25.0259C175.313 25.0259 175.902 25.2923 176.309 25.8252C176.715 26.3581 176.918 26.973 176.918 27.6699C176.918 28.4897 176.735 29.3916 176.37 30.3754C176.532 30.2114 176.674 30.0475 176.796 29.8835C176.959 29.7195 177.122 29.5556 177.284 29.3916C178.707 27.8749 180.089 26.7681 181.431 26.0712C182.813 25.3333 184.012 24.9644 185.029 24.9644C185.801 24.9644 186.451 25.1694 186.98 25.5793C187.549 25.9892 187.834 26.5426 187.834 27.2395C187.834 28.0593 187.549 29.0431 186.98 30.1909C186.411 31.3387 185.76 32.425 185.029 33.4498C184.337 34.4746 183.768 35.274 183.321 35.8479C183.037 36.2578 182.488 37.0162 181.675 38.123C180.862 39.1888 180.171 40.2956 179.601 41.4434C179.317 41.9353 179.114 42.3862 178.992 42.7961C178.91 43.165 178.87 43.5135 178.87 43.8414C178.87 44.7842 179.296 45.2557 180.15 45.2557C181.085 45.2557 182.244 44.7023 183.626 43.5955C184.724 42.7346 185.842 41.6278 186.98 40.2751C188.159 38.8813 189.277 37.3031 190.334 35.5405C190.456 35.3355 190.578 35.233 190.7 35.233C190.822 35.192 190.903 35.1715 190.943 35.1715C191.228 35.1715 191.309 35.4175 191.187 35.9094C190.008 37.795 188.769 39.5372 187.468 41.1359C186.207 42.7346 184.927 44.0054 183.626 44.9482C182.447 45.7681 181.268 46.178 180.089 46.178Z" fill="#2D3A53"/>
<path d="M203.028 45.9935C202.256 45.9935 201.585 45.7476 201.016 45.2557C200.447 44.7638 200.162 43.9439 200.162 42.7961C200.162 42.2222 200.223 41.6278 200.345 41.0129C200.508 40.3571 200.67 39.7627 200.833 39.2298C200.183 40.0906 199.39 41.0334 198.455 42.0583C197.52 43.0831 196.524 43.9644 195.467 44.7023C194.41 45.4401 193.333 45.8091 192.235 45.8091C191.137 45.8091 190.284 45.3581 189.674 44.4563C189.105 43.5545 188.82 42.4067 188.82 41.0129C188.82 39.3732 189.186 37.6721 189.918 35.9094C190.243 35.1715 190.832 34.2287 191.686 33.0809C192.54 31.9331 193.577 30.8058 194.796 29.699C196.016 28.5922 197.337 27.6699 198.76 26.932C200.183 26.1532 201.605 25.7638 203.028 25.7638C204.085 25.7638 204.817 26.0507 205.223 26.6246C205.671 27.1575 205.894 27.8134 205.894 28.5922C205.894 28.9612 205.854 29.3506 205.772 29.7605C205.691 30.1294 205.589 30.5189 205.467 30.9288L213.456 17.7087C213.537 17.5038 213.984 17.2578 214.797 16.9709C215.61 16.6429 216.322 16.479 216.931 16.479C217.582 16.479 217.907 16.6839 217.907 17.0938C217.907 17.4218 217.744 17.8317 217.419 18.3236L209.98 30.2524C209.777 30.5804 209.39 31.1748 208.821 32.0356C208.252 32.8554 207.622 33.8188 206.931 34.9256C206.28 36.0324 205.63 37.1597 204.98 38.3074C204.939 38.4304 204.756 38.7994 204.431 39.4142C204.106 40.0291 203.78 40.7055 203.455 41.4434C203.049 42.3862 202.845 43.165 202.845 43.7799C202.845 44.5998 203.191 45.0097 203.882 45.0097C204.573 45.0097 205.366 44.6408 206.26 43.9029C207.033 43.288 207.805 42.5502 208.577 41.6893C209.35 40.8285 210.061 39.9471 210.712 39.0453C211.403 38.1435 211.951 37.3646 212.358 36.7087C212.805 36.0119 213.09 35.5609 213.212 35.356C213.334 35.192 213.476 35.11 213.639 35.11C214.004 35.11 214.147 35.2945 214.065 35.6634C213.74 36.2373 213.212 37.0982 212.48 38.246C211.789 39.3937 210.935 40.562 209.919 41.7508C208.943 42.9396 207.886 43.9234 206.748 44.7023C206.219 45.0712 205.61 45.3786 204.919 45.6246C204.268 45.8705 203.638 45.9935 203.028 45.9935ZM192.723 44.7638C193.658 44.7638 194.633 44.3538 195.65 43.534C196.707 42.7141 197.743 41.6688 198.76 40.3981C199.817 39.1273 200.772 37.795 201.626 36.4013C202.479 35.0075 203.171 33.7163 203.699 32.5275C204.268 31.3387 204.614 30.4369 204.736 29.822C204.776 29.617 204.797 29.4326 204.797 29.2686C204.837 29.0636 204.858 28.8792 204.858 28.7152C204.858 27.3215 204.37 26.6246 203.394 26.6246C202.744 26.6246 201.992 26.9115 201.138 27.4854C200.284 28.0593 199.41 28.7972 198.516 29.699C197.662 30.6009 196.849 31.5847 196.077 32.6505C195.345 33.6753 194.755 34.6796 194.308 35.6634C194.186 35.9094 193.881 36.5038 193.394 37.4466C192.946 38.3894 192.499 39.4142 192.052 40.521C191.646 41.6278 191.442 42.5912 191.442 43.411C191.442 44.3128 191.869 44.7638 192.723 44.7638Z" fill="#2D3A53"/>
<path d="M219.495 57C216.934 57 214.82 56.5491 213.154 55.6472C211.487 54.7454 210.247 53.5771 209.434 52.1424C208.621 50.7077 208.214 49.2319 208.214 47.7152C208.214 46.4854 208.418 45.3786 208.824 44.3948C209.637 42.4682 211.101 40.7875 213.215 39.3527C215.328 37.918 217.91 37.2006 220.959 37.2006C221.325 37.2006 221.691 37.2211 222.056 37.2621C222.463 37.3031 222.829 37.3646 223.154 37.4466C223.601 37.4056 224.028 37.2621 224.435 37.0162C224.841 36.7292 225.146 36.4833 225.349 36.2783C225.553 36.0324 225.715 35.7864 225.837 35.5405C225.959 35.2535 226.02 35.0075 226.02 34.8026C226.02 34.5156 225.918 34.3107 225.715 34.1877C225.593 34.1057 225.532 34.0237 225.532 33.9417C225.532 33.6548 225.797 33.5933 226.325 33.7573C227.097 34.0032 227.484 34.4951 227.484 35.233C227.484 35.9299 227.118 36.5243 226.386 37.0162C226.101 37.2621 225.756 37.4466 225.349 37.5696C224.983 37.6516 224.597 37.6926 224.191 37.6926C225.573 38.1025 226.833 38.8198 227.971 39.8447L226.935 39.7217C227.463 39.5577 226.833 39.3527 227.484 39.7217C227.199 38.9018 228.134 40.0906 227.484 39.7217C227.687 40.3366 227.077 38.9106 227.077 39.6075C227.077 40.3453 227.728 39.0248 227.484 39.7217C227.28 40.4185 227.971 39.4347 227.484 39.7217C226.996 40.0086 227.199 39.8534 227.077 39.6075C227.362 39.3615 227.161 39.7423 227.161 39.4143C227.161 39.0864 227.484 39.8761 227.24 39.5071C227.036 39.1792 227.179 39.7715 226.935 39.6075C226.691 39.4025 227.577 39.8534 227.293 39.6075C227.008 39.3205 227.484 40.04 227.24 39.5071C227.036 39.0972 227.293 39.9764 227.293 39.6075C227.293 39.0746 226.914 40.4566 227.24 40.0467C225.166 38.366 222.951 37.9385 220.227 38.1845C218.032 38.3894 216.182 38.9838 214.678 39.9676C213.174 40.9105 212.036 42.0787 211.263 43.4725C210.491 44.8662 210.105 46.3215 210.105 47.8382C210.105 49.8468 210.755 51.63 212.056 53.1877L211.934 53.0032C211.649 52.4293 211.507 51.753 211.507 50.9741C211.507 50.4822 211.568 50.0313 211.69 49.6214C212.219 48.2686 212.971 47.5922 213.946 47.5922C214.597 47.5922 215.125 47.8997 215.532 48.5146C215.694 48.7195 215.776 48.945 215.776 49.1909C215.776 49.5599 215.613 49.6214 215.288 49.3754C215.003 49.1704 214.637 49.1909 214.19 49.4369C213.743 49.7238 213.357 50.1133 213.032 50.6052C212.869 50.8101 212.727 51.1176 212.605 51.5275C212.483 51.9374 212.422 52.3679 212.422 52.8188C212.422 53.0647 212.462 53.3517 212.544 53.6796C213.316 54.4585 214.251 55.0733 215.349 55.5243C216.446 55.9752 217.727 56.2006 219.19 56.2006C221.304 56.2006 223.398 55.6677 225.471 54.6019C227.545 53.5771 229.557 52.2039 231.508 50.4822C233.46 48.7605 235.33 46.8339 237.118 44.7023C238.907 42.5707 240.594 40.3981 242.179 38.1845C243.765 35.9299 245.208 33.7983 246.509 31.7896C247.851 29.781 249.009 28.0593 249.985 26.6246C252.017 23.5912 254.131 20.6807 256.327 17.8932C258.522 15.1057 260.859 12.8511 263.339 11.1294C260.493 10.1866 257.465 9.18231 254.253 8.11651C251.082 7.0507 247.871 6.27184 244.619 5.77994C243.643 5.57498 242.708 5.452 241.814 5.411C241.854 5.452 241.814 5.452 241.692 5.411C241.163 5.32902 240.696 5.452 240.289 5.77994C239.883 6.06688 239.598 6.33333 239.435 6.57929C239.151 7.0712 239.009 7.52211 239.009 7.93204C239.009 8.30097 239.131 8.54693 239.374 8.6699C239.578 8.75189 239.679 8.85437 239.679 8.97735C239.679 9.14132 239.537 9.2233 239.253 9.2233C238.927 9.2233 238.541 9.10032 238.094 8.85437C237.687 8.60841 237.484 8.21899 237.484 7.68608C237.484 7.15318 237.687 6.66127 238.094 6.21036C238.541 5.75944 239.09 5.452 239.74 5.28803C236.447 5.20604 233.602 5.59547 231.203 6.45631C228.805 7.31715 226.833 8.46494 225.288 9.89968C223.744 11.2934 222.585 12.8511 221.813 14.5728C221.975 14.5728 221.415 14.3678 221.415 14.5728C221.374 15.4337 220.736 14.0399 220.98 14.5728C221.223 15.1057 220.361 13.4847 220.767 13.9356C221.011 13.4847 220.097 14.1629 220.544 13.9579C220.991 13.753 218.825 17.6472 219.312 17.6472C219.719 17.6472 219.388 16.8479 219.673 16.9709C220.364 17.2168 219.743 15.5625 220.108 15.8904C220.515 16.1774 220.259 13.8057 220.544 14.1336C220.747 14.3796 219.702 15.2463 220.108 15.4512C220.515 15.6562 220.178 14.1336 220.544 14.1336C221.113 14.1336 220.979 15.5156 221.264 15.0647C221.386 15.1877 220.593 14.6343 220.593 14.8803C220.593 15.4951 221.154 14.5611 220.544 15.012C219.975 15.4629 221.512 13.712 220.658 13.9579C219.845 14.2039 221.793 13.6944 220.98 13.6944C219.516 13.6944 222.117 14.2876 221.264 13.4268C220.451 12.525 221.253 14.9125 221.415 14.1336L221.851 14.5728C221.813 14.8434 221.415 15.4512 221.415 15.8904C220.98 15.4512 221.648 14.8803 221.264 15.9256C221.25 15.9631 220.593 18.7131 220.593 19.9838C220.593 21.6645 220.939 23.2632 221.63 24.7799C222.321 26.2557 223.337 27.4444 224.679 28.3463C226.02 29.2481 227.646 29.699 229.557 29.699C231.468 29.699 233.317 29.2071 235.106 28.2233C236.895 27.1985 238.338 25.8252 239.435 24.1036C240.533 22.3409 241.001 20.3528 240.838 18.1392C240.797 17.4423 240.553 16.7249 240.106 15.9871C239.7 15.2492 239.09 14.8803 238.277 14.8803C238.074 14.8803 237.85 14.9213 237.606 15.0032C237.362 15.0852 237.2 15.2287 237.118 15.4337C237.078 15.5566 236.996 15.6181 236.874 15.6181C236.671 15.6181 236.569 15.4337 236.569 15.0647C236.569 14.4908 236.773 14.0194 237.179 13.6505C237.626 13.2816 238.114 13.0971 238.643 13.0971C239.212 13.0971 239.761 13.384 240.289 13.9579C240.858 14.5318 241.163 15.5361 241.204 16.9709C241.326 16.6019 241.488 16.233 241.692 15.8641C242.139 15.2492 242.667 14.9417 243.277 14.9417C243.928 14.9417 244.354 15.2492 244.558 15.8641C244.639 16.11 244.639 16.2945 244.558 16.4175C244.476 16.5405 244.354 16.52 244.192 16.356C244.07 16.233 243.928 16.1715 243.765 16.1715C243.44 16.1715 243.013 16.356 242.484 16.7249C242.362 16.8479 242.22 17.0324 242.058 17.2783C241.895 17.5243 241.773 17.8112 241.692 18.1392C241.773 20.6397 241.305 22.7918 240.289 24.5955C239.273 26.3991 237.952 27.8134 236.326 28.8382C236.529 28.7972 236.712 28.7767 236.874 28.7767C237.037 28.7357 237.2 28.7152 237.362 28.7152C238.175 28.7152 238.826 28.9407 239.313 29.3916C239.842 29.8015 240.106 30.2524 240.106 30.7443C240.106 31.2772 239.842 31.7282 239.313 32.0971C239.029 32.2611 238.805 32.3225 238.643 32.2816C238.48 32.1996 238.48 32.0561 238.643 31.8511C238.846 31.6052 238.826 31.2977 238.582 30.9288C238.378 30.5599 238.074 30.2319 237.667 29.945C237.22 29.5761 236.61 29.3916 235.838 29.3916C235.756 29.3916 235.655 29.3916 235.533 29.3916C235.411 29.3916 235.309 29.4121 235.228 29.4531C233.48 30.2729 231.63 30.6828 229.679 30.6828C227.199 30.6828 225.085 30.1909 223.337 29.2071C221.63 28.1823 220.288 26.9115 219.312 25.3948C219.312 25.6408 220.19 25.225 220.108 25.5529C219.865 26.3318 220.718 25.4182 220.108 25.9921C220.312 26.4021 220.544 25.5412 220.544 25.9921C220.544 27.0169 221.398 25.5705 220.544 26.4313C220.056 26.9642 221.915 26.0214 220.98 26.4313C220.045 26.8003 221.813 26.4652 220.959 26.4652C220.268 26.4652 221.406 26.7932 220.959 26.4652C220.674 26.2603 221.02 27.0345 220.98 26.8705C220.939 26.6656 219.632 26.0331 219.673 25.9921C219.795 26.0741 218.993 23.3569 219.237 23.3569C218.871 23.8078 219.725 23.3569 219.237 23.3569C219.644 22.865 218.846 24.4254 218.927 24.0155C219.009 23.6056 218.639 23.8078 218.802 23.3569C218.964 22.906 218.831 24.288 219.237 23.7961C219.237 23.7961 220.108 25.1137 218.802 24.6745C219.452 24.6745 218.395 22.947 218.802 23.3569C219.208 22.865 220.544 24.2353 219.673 24.7799C220.108 25.1137 219.673 25.3187 219.673 25.1137C219.714 24.9088 218.802 24.9439 218.802 24.7799C218.802 24.411 218.621 24.0831 218.581 23.9191C217.971 22.4434 217.666 20.8652 217.666 19.1845C217.666 17.7497 217.89 16.315 218.337 14.8803C218.825 13.4045 219.556 12.0313 220.532 10.7605C220.369 10.8015 221.466 9.85868 221.223 9.89968C221.019 9.89968 222.987 9.72022 222.784 9.72022C222.256 9.72022 222.379 10.3857 221.851 10.1808C221.363 9.9758 223.024 10.1682 222.618 9.75829C222.425 9.79168 222.496 9.79928 222.618 9.75829C222.049 9.75829 223.157 9.74156 222.673 9.40777C222.063 8.95685 223.157 9.30235 222.835 9.40777C222.84 9.56062 222.618 10.3729 222.586 9.89968C222.618 9.60774 222.618 9.89968 222.722 9.74156C222.663 9.96491 222.722 10.62 222.159 10.4984C222.485 10.2934 222.159 10.7195 221.851 10.62C222.013 10.661 222.641 10.1398 222.722 10.1808C222.397 10.4677 221.851 9.72984 221.851 10.1808C221.851 10.5907 222.16 9.42826 222.404 9.83819C222.648 10.2071 221.755 9.6601 222.039 9.86506C222.365 10.111 222.261 9.57174 222.586 9.89968C222.286 11.0592 221.875 9.18439 222.159 9.75829C222.363 10.2502 222.984 8.49097 222.984 8.90089C222.984 9.88471 223.118 9.26371 222.427 9.75561C222.996 10.2475 222.049 9.40777 222.984 9.40777L222.286 10.4984C222.855 10.4984 220.715 10.0431 221.325 9.83819C222.91 8.03452 225.024 6.55879 227.667 5.411C230.309 4.26321 233.52 3.68932 237.301 3.68932C238.236 3.68932 239.192 3.73031 240.167 3.8123C241.143 3.89428 242.139 4.01726 243.155 4.18123C245.31 4.50917 247.647 5.04207 250.168 5.77994C252.729 6.5178 255.249 7.29666 257.729 8.11651C260.209 8.93635 262.424 9.69471 264.376 10.3916C265.555 9.69471 266.754 9.14132 267.974 8.73139C269.193 8.32147 270.453 8.11651 271.754 8.11651C272.893 8.11651 273.746 8.36246 274.315 8.85437C274.925 9.34628 275.23 9.89968 275.23 10.5146C275.23 11.1704 274.864 11.7648 274.132 12.2977C273.441 12.8306 272.344 13.0766 270.84 13.0356C269.742 14.6753 268.746 16.479 267.852 18.4466C266.957 20.4142 266.144 22.3819 265.412 24.3495C264.721 26.3172 264.132 28.1413 263.644 29.822C263.034 31.9126 262.363 33.9008 261.632 35.7864C260.941 37.6721 259.884 39.3937 258.461 40.9515C260.981 39.0248 263.278 36.8112 265.351 34.3107C267.465 31.8101 269.376 29.2481 271.083 26.6246C272.222 24.8619 273.604 22.8738 275.23 20.6602C276.856 18.4056 278.645 16.151 280.596 13.8964C282.547 11.6009 284.56 9.46926 286.633 7.50162C288.747 5.49299 290.861 3.85329 292.975 2.58252C295.089 1.27077 297.101 0.532902 299.012 0.368935C299.256 0.32794 299.5 0.307443 299.744 0.307443C299.987 0.307443 300.211 0.307443 300.414 0.307443C302.772 0.307443 304.459 0.819849 305.476 1.84466C306.492 2.82848 307 3.89428 307 5.04207C307 5.77994 306.797 6.47681 306.39 7.13269C305.984 7.74757 305.435 8.17799 304.744 8.42395L304.622 7.80906C305.597 7.23517 306.085 6.41532 306.085 5.34951C306.085 4.52967 305.719 3.77131 304.988 3.07443C304.297 2.37756 303.24 2.02913 301.817 2.02913C301.085 2.02913 300.252 2.1521 299.317 2.39806C297.853 2.80798 296.227 3.64833 294.438 4.9191C292.65 6.18986 290.78 7.70658 288.828 9.46926C286.918 11.2319 285.027 13.1176 283.157 15.1262C281.328 17.0939 279.621 19 278.035 20.8447C276.45 22.6893 275.088 24.3085 273.949 25.7023C272.852 27.096 272.079 28.1003 271.632 28.7152C270.901 29.74 269.966 30.9698 268.827 32.4045C267.73 33.8393 266.469 35.315 265.047 36.8317C263.664 38.3074 262.201 39.7012 260.656 41.0129C259.111 42.2837 257.546 43.329 255.961 44.1489C254.375 44.9277 252.83 45.3172 251.326 45.3172C250.513 45.3172 250.107 45.2352 250.107 45.0712C250.107 44.8662 250.371 44.6408 250.899 44.3948C251.428 44.1489 251.773 43.9439 251.936 43.7799C252.139 43.616 252.485 43.1241 252.973 42.3042C253.461 41.4844 254.03 40.5005 254.68 39.3527C255.371 38.164 256.062 36.9342 256.753 35.6634C257.485 34.3927 258.136 33.2244 258.705 32.1586C259.274 31.0518 259.701 30.1704 259.985 29.5146C260.229 29.0227 260.676 28.1413 261.327 26.8705C261.977 25.5588 262.77 24.0831 263.705 22.4434C264.64 20.7627 265.616 19.082 266.632 17.4013C267.689 15.6796 268.726 14.1834 269.742 12.9126C269.457 12.8716 269.132 12.8101 268.766 12.7282C268.4 12.6462 268.014 12.5642 267.608 12.4822L265.839 11.9288C264.538 13.0356 263.258 14.3474 261.998 15.8641C260.737 17.3808 259.558 18.9385 258.461 20.5372C257.404 22.0949 256.449 23.5707 255.595 24.9644C254.741 26.3581 254.05 27.4854 253.522 28.3463C252.302 30.4369 250.798 32.753 249.009 35.2945C247.22 37.836 245.208 40.3776 242.972 42.9191C240.736 45.4606 238.338 47.7972 235.777 49.9288C233.256 52.0604 230.614 53.7616 227.849 55.0324C225.085 56.3441 222.3 57 219.495 57ZM271.998 12.0518C272.689 12.0108 273.238 11.8263 273.645 11.4984C274.051 11.1704 274.254 10.8015 274.254 10.3916C274.254 10.0227 274.051 9.69471 273.645 9.40777C273.279 9.12082 272.649 8.97735 271.754 8.97735C270.982 9.01834 270.169 9.2438 269.315 9.65372C268.461 10.0227 267.608 10.5351 266.754 11.1909C267.445 11.4369 268.075 11.6214 268.644 11.7443C269.213 11.8673 269.844 11.9493 270.535 11.9903C270.819 11.6624 271.083 11.3754 271.327 11.1294C271.612 10.8425 271.897 10.617 272.181 10.4531L272.547 10.6375C272.384 10.8425 272.222 11.068 272.059 11.3139C271.897 11.5599 271.714 11.8058 271.51 12.0518H271.998ZM276.815 50.4207C275.962 50.4207 275.189 50.1543 274.498 49.6214C273.97 49.2524 273.584 48.699 273.34 47.9612C273.096 47.2233 272.974 46.4035 272.974 45.5016C272.974 44.7638 273.035 43.9849 273.157 43.165C273.319 42.3452 273.523 41.5049 273.767 40.644C274.458 38.2664 275.515 35.6429 276.937 32.7735C278.401 29.904 280.068 26.9935 281.938 24.0421C283.808 21.0906 285.779 18.3236 287.853 15.7411C289.967 13.1176 292.02 10.8835 294.012 9.03883L294.377 9.46926C293.036 11.109 291.674 13.0356 290.292 15.2492C288.95 17.4218 287.629 19.7379 286.328 22.1974C285.068 24.657 283.869 27.137 282.73 29.6375C281.633 32.0971 280.677 34.4542 279.864 36.7087C279.824 36.8317 279.661 37.2621 279.377 38C279.133 38.7379 278.848 39.6602 278.523 40.767C278.238 41.8328 277.974 42.9191 277.73 44.0259C277.486 45.1327 277.364 46.096 277.364 46.9159C277.364 47.4897 277.446 47.9612 277.608 48.3301C277.771 48.699 278.035 48.8835 278.401 48.8835C278.767 48.8835 279.255 48.699 279.864 48.3301C280.149 48.1251 280.413 47.9202 280.657 47.7152C280.901 47.5512 281.145 47.3463 281.389 47.1003L281.877 47.6537C281.308 48.3096 280.556 48.9245 279.621 49.4984C278.726 50.1133 277.791 50.4207 276.815 50.4207Z" fill="#2D3A53"/>
<path d="M291.737 45.8705C290.68 45.8705 289.684 45.6246 288.749 45.1327C287.814 44.5998 287.123 43.7594 286.676 42.6116C286.391 41.8738 286.249 41.0334 286.249 40.0906C286.249 38.9428 286.473 37.8155 286.92 36.7087C287.489 35.356 288.322 34.0237 289.42 32.712C290.518 31.4002 291.737 30.2114 293.079 29.1456C294.42 28.0798 295.762 27.2395 297.103 26.6246C298.445 25.9687 299.644 25.6408 300.701 25.6408C301.595 25.6408 302.307 25.8867 302.835 26.3786C303.201 26.7476 303.384 27.2805 303.384 27.9773C303.384 28.8792 303.039 29.9245 302.348 31.1133C301.697 32.2611 300.762 33.2654 299.542 34.1262C298.77 34.6591 297.855 35.11 296.798 35.479C295.782 35.8069 294.705 35.9709 293.567 35.9709C293.201 35.9709 292.814 35.9504 292.408 35.9094C292.042 35.8684 291.676 35.8069 291.31 35.7249C291.026 36.0529 290.68 36.5858 290.274 37.3236C289.908 38.0205 289.583 38.7994 289.298 39.6602C289.054 40.521 288.932 41.3409 288.932 42.1197C288.973 43.1855 289.257 43.9439 289.786 44.3948C290.355 44.8047 291.026 45.0097 291.798 45.0097C293.343 45.0097 294.827 44.5178 296.25 43.534C297.713 42.5092 299.034 41.2589 300.213 39.7832C301.392 38.3074 302.388 36.8932 303.201 35.5405C303.323 35.3765 303.425 35.2945 303.506 35.2945C303.587 35.2535 303.648 35.233 303.689 35.233C303.811 35.233 303.913 35.2945 303.994 35.4175C304.116 35.5405 304.136 35.7044 304.055 35.9094C303.526 36.7702 302.835 37.795 301.982 38.9838C301.169 40.1726 300.193 41.3204 299.055 42.4272C297.957 43.493 296.717 44.3743 295.335 45.0712C294.806 45.3581 294.217 45.5631 293.567 45.6861C292.957 45.8091 292.347 45.8705 291.737 45.8705ZM293.018 35.11C294.928 35.11 296.656 34.6181 298.201 33.6343C299.786 32.6095 300.925 31.3797 301.616 29.945C301.819 29.617 301.941 29.3096 301.982 29.0227C302.063 28.7357 302.104 28.5102 302.104 28.3463C302.104 27.6494 301.717 27.301 300.945 27.301C300.457 27.301 299.908 27.4239 299.299 27.6699C298.729 27.9159 298.221 28.2028 297.774 28.5307C297.002 29.1046 296.189 29.822 295.335 30.6828C294.522 31.5027 293.79 32.3225 293.14 33.1424C292.489 33.9212 292.001 34.5361 291.676 34.9871C291.879 35.028 292.103 35.069 292.347 35.11C292.591 35.11 292.814 35.11 293.018 35.11Z" fill="#2D3A53"/>
<path d="M220.108 24.6746L219.673 25.553C219.673 25.553 219.843 26.1637 219.673 25.9922C219.503 25.8207 218.802 24.6746 218.802 24.6746H220.108Z" fill="#2D3A53"/>
<path d="M221.415 25.9922H220.544L220.108 26.4314L220.544 26.8706H221.415V25.9922Z" fill="#2D3A53"/>
<path d="M221.851 12.816H220.544V13.6944H219.673V14.5729V16.3297H218.802V18.0865H220.544V17.2081V15.4513H221.415V14.5729H221.851V12.816Z" fill="#2D3A53"/>
<defs>
<filter id="filter0_i_172_7081" x="63" y="156" width="48" height="49" filterUnits="userSpaceOnUse" color-interpolation-filters="sRGB">
<feFlood flood-opacity="0" result="BackgroundImageFix"/>
<feBlend mode="normal" in="SourceGraphic" in2="BackgroundImageFix" result="shape"/>
<feColorMatrix in="SourceAlpha" type="matrix" values="0 0 0 0 0 0 0 0 0 0 0 0 0 0 0 0 0 0 127 0" result="hardAlpha"/>
<feOffset dy="-6"/>
<feGaussianBlur stdDeviation="0.5"/>
<feComposite in2="hardAlpha" operator="arithmetic" k2="-1" k3="1"/>
<feColorMatrix type="matrix" values="0 0 0 0 0.388235 0 0 0 0 0.72549 0 0 0 0 0.866667 0 0 0 1 0"/>
<feBlend mode="normal" in2="shape" result="effect1_innerShadow_172_7081"/>
</filter>
<filter id="filter1_i_172_7081" x="287" y="232" width="40" height="41" filterUnits="userSpaceOnUse" color-interpolation-filters="sRGB">
<feFlood flood-opacity="0" result="BackgroundImageFix"/>
<feBlend mode="normal" in="SourceGraphic" in2="BackgroundImageFix" result="shape"/>
<feColorMatrix in="SourceAlpha" type="matrix" values="0 0 0 0 0 0 0 0 0 0 0 0 0 0 0 0 0 0 127 0" result="hardAlpha"/>
<feOffset dy="-6"/>
<feGaussianBlur stdDeviation="0.5"/>
<feComposite in2="hardAlpha" operator="arithmetic" k2="-1" k3="1"/>
<feColorMatrix type="matrix" values="0 0 0 0 0.388235 0 0 0 0 0.72549 0 0 0 0 0.866667 0 0 0 1 0"/>
<feBlend mode="normal" in2="shape" result="effect1_innerShadow_172_7081"/>
</filter>
<filter id="filter2_i_172_7081" x="287" y="63" width="42" height="43" filterUnits="userSpaceOnUse" color-interpolation-filters="sRGB">
<feFlood flood-opacity="0" result="BackgroundImageFix"/>
<feBlend mode="normal" in="SourceGraphic" in2="BackgroundImageFix" result="shape"/>
<feColorMatrix in="SourceAlpha" type="matrix" values="0 0 0 0 0 0 0 0 0 0 0 0 0 0 0 0 0 0 127 0" result="hardAlpha"/>
<feOffset dy="-6"/>
<feGaussianBlur stdDeviation="0.5"/>
<feComposite in2="hardAlpha" operator="arithmetic" k2="-1" k3="1"/>
<feColorMatrix type="matrix" values="0 0 0 0 0.388235 0 0 0 0 0.72549 0 0 0 0 0.866667 0 0 0 1 0"/>
<feBlend mode="normal" in2="shape" result="effect1_innerShadow_172_7081"/>
</filter>
<filter id="filter3_i_172_7081" x="0" y="72" width="38" height="39" filterUnits="userSpaceOnUse" color-interpolation-filters="sRGB">
<feFlood flood-opacity="0" result="BackgroundImageFix"/>
<feBlend mode="normal" in="SourceGraphic" in2="BackgroundImageFix" result="shape"/>
<feColorMatrix in="SourceAlpha" type="matrix" values="0 0 0 0 0 0 0 0 0 0 0 0 0 0 0 0 0 0 127 0" result="hardAlpha"/>
<feOffset dy="-6"/>
<feGaussianBlur stdDeviation="0.5"/>
<feComposite in2="hardAlpha" operator="arithmetic" k2="-1" k3="1"/>
<feColorMatrix type="matrix" values="0 0 0 0 0.388235 0 0 0 0 0.72549 0 0 0 0 0.866667 0 0 0 1 0"/>
<feBlend mode="normal" in2="shape" result="effect1_innerShadow_172_7081"/>
</filter>
</defs>
</svg>
